<svg xmlns="http://www.w3.org/2000/svg" width="auto" height="31" fill="none" viewBox="0 0 146 31"><path fill="#fff" d="M35.95 4.746a.695.695 0 0 0-.5-.345h-8.172l.035-.035a1.035 1.035 0 0 0 .345-1.175 1.075 1.075 0 0 0-1.12-.595h-2.855a.715.715 0 0 0-.395.165l-3.04 3.06-1.856-1.84v-.36a3.745 3.745 0 0 0-.845-2.44.695.695 0 0 0-.375-.15c-.205 0-.415-.03-.615-.03a6.286 6.286 0 0 0-4.276 1.61 5.891 5.891 0 0 0-1.9 4.41c-.001.425.049.848.15 1.26l-9.406 9.281a.43.43 0 0 0-.125.305v.5c.003.114.05.221.13.3l4.156 4.091c-.43.46-.886.95-1.076 1.145a.69.69 0 0 0 0 .755l3.576 3.91a.695.695 0 0 0 .41.18.71.71 0 0 0 .39-.16l.13-.13.205.206c.195.08.404.119.615.115l1.285-.565 2.13 2.1a.454.454 0 0 0 .3.12h.5a.429.429 0 0 0 .306-.125l6.31-6.31c.085.04.177.066.27.074a.695.695 0 0 0 .375-.145l.085-.08.5.455c.21.066.43.093.65.08l1.84-1.03a.706.706 0 0 0 .286-.47.726.726 0 0 0-.255-.5l-1.045-.68-.24-.175 6.11-6.11a.43.43 0 0 0 .125-.3v-.5a.435.435 0 0 0-.13-.31l-1.58-1.546c.595-.65 1.16-1.215 1.635-1.685l.386-.385a.665.665 0 0 0 .11-.55h1.325a.71.71 0 0 0 .39-.16l4.655-4.641a.675.675 0 0 0 .09-.595ZM19.656 8.29l1.32.03c-.36.15-.707.332-1.035.545l-.3-.555.015-.02Zm-1.715-2.59 1.205 1.195-.44.46-.73-.12a.41.41 0 0 0-.315.145l-1.255 1.39c.084-.397.145-.8.18-1.205l.335-.335c.42-.452.764-.969 1.02-1.53Zm.56 3.305-.11.11-.25-.275.17-.19.19.355Zm-2.265 3.146a.716.716 0 0 0-.395.165l-1.575 1.575a.7.7 0 0 0-.17.4.73.73 0 0 0 .165.395l.175.17-1.14 1.14v-.35c0-.314-.036-.628-.106-.935l4.456-4.415.415.445a5.5 5.5 0 0 0-.815 2.595l-.55-.915a.7.7 0 0 0-.46-.27Zm0 2.085-.275.275-.215-.22.325-.325.165.27Zm-8.911 5.44a.72.72 0 0 0 0 .436c.057.102.138.19.235.255a4.593 4.593 0 0 0-.525.445 3.5 3.5 0 0 1-.38-1.685 4.94 4.94 0 0 1 2.58-4.206h.07a8.584 8.584 0 0 1 2.32-.655c.22.434.336.914.34 1.4 0 .285-.031.568-.095.845a.747.747 0 0 0-.245-.065c-1.87.04-3.475 1.256-4.29 3.23h-.01Zm3.22-1.674c-.022.32-.062.639-.12.955-.025.105-.075.32-.15.575a1.5 1.5 0 0 1-.67-.92c.278-.258.6-.465.95-.61h-.01Zm1.32-5.106h-.11a7.23 7.23 0 0 0-1.855.325c.045-.08.095-.155.14-.22.5-.5 2.5-2.5 3-3.036.15-.137.336-.23.536-.27l.845.84a10.67 10.67 0 0 1-1.76 2.76 1.33 1.33 0 0 0-.47-.36l-.116-.03a1.325 1.325 0 0 0-.2-.01h-.01Zm2.586-6.046c.162-.196.354-.365.57-.5.117-.065.24-.122.365-.17-.018.492-.065.983-.14 1.47a2 2 0 0 1-.785-.8h-.01Zm.53 2.13-.045.165-.33-.33a2.5 2.5 0 0 0 .385.165h-.01Zm1.1 1c.065-.2.125-.4.175-.6a.53.53 0 0 0 .085.1l.13.115-.39.386Zm-2.87-6.395a4.97 4.97 0 0 1 3.38-1.26l.115-.115c.254.422.386.907.38 1.4 0 .42-.072.839-.215 1.235a.67.67 0 0 0-.37-.185 4.585 4.585 0 0 0-1.58.315l.16.395-.5-.24a4.8 4.8 0 0 0-2.276 2.695.705.705 0 0 0 0 .43.68.68 0 0 0 .32.285l.14-.4.19.38a2.73 2.73 0 0 0-.68.42 3.441 3.441 0 0 1-.5-1.905 4.57 4.57 0 0 1 1.435-3.45ZM2.794 18.088l8.416-8.342.06.086-1.855 1.855c-.14.135-.26.275-.47.5a2.96 2.96 0 0 0-.5 1.12c-.056.198-.095.4-.115.605a7.352 7.352 0 0 0-.84.61 5.926 5.926 0 0 0-2.145 4.566 5.171 5.171 0 0 0 .295 1.78l-2.846-2.78Zm5.416 8.96-2.53-2.765c.5-.545.95-1.04 1.335-1.5.7-.81 1.185-1.37 1.65-1.5l.5.535a15.867 15.867 0 0 1-1.695 1.94 1.565 1.565 0 0 0-.165.625.73.73 0 0 0 .165.4l1.5 1.47-.76.796Zm.655-2.79a13.437 13.437 0 0 0 2.035-2.645c.149-.27.274-.553.375-.845.15-.355.26-.726.325-1.105l3.756-3.756.45.45c-1.185 1.12-4.8 4.806-5.85 8.971l-1.091-1.07Zm4.61 4.4-1.32-1.31a2.285 2.285 0 0 0 2.556-.5l2-2 .08.47-3.316 3.34Zm-.5-2.405 3.5-3.5.256.255-2.96 2.96a1.001 1.001 0 0 1-.716.296l-.08-.01Zm2.656-6.13-.09.295a.69.69 0 0 0 .085.5.92.92 0 0 0 .53.22h.055l-.055.15c-.025 0-4.74 4.73-4.74 4.73a.655.655 0 0 0-.096.5l-.17-.165c0-.08.04-.18.04-.18l-.415-.104.5-.13.1-.396c0-.09.075-.26.14-.445.065-.185.245-.675.25-.685 1.26-3.185 3.58-5.58 5.08-7.07-.503.875-.897 1.809-1.174 2.78h-.04Zm1.74-5.166c.096.372.245.727.445 1.055-.09.095-.18.19-.265.29a.705.705 0 0 0-.155-.325l-.5-.5.475-.52Zm.54 9.246s-.04-.255-.045-.315c.33-.185.645-.385.95-.59l-.905.905Zm.265-2.025.045-.11.05.045-.095.065Zm2.41.265-1.855-1.71 1-.155 1.42 1.35-.565.515Zm-.8-3.3-2.47.395a6.502 6.502 0 0 1 1.865-2.866v.185a.424.424 0 0 1 0 .5v.89a.426.426 0 0 0 .43.426.425.425 0 0 0 .28-.105l.565-.5a.43.43 0 0 0 .14-.32v-.936a.405.405 0 0 0-.08-.25.43.43 0 0 0 .08-.255v-.05l.715.715c-.41.778-.908 1.506-1.485 2.17h-.04Zm2.03-3.5-.44-.38v-.27c.17.097.35.176.536.234.01.14-.02.275-.055.41l-.04.005Zm-.41-2.751a2.37 2.37 0 0 1 .77-.385c0 .5-.034.94-.07 1.36a1.385 1.385 0 0 1-.66-.98l-.04.005Zm1.026 6.79-.375.38c.165-.26.315-.5.45-.77a2.447 2.447 0 0 0-.035.386l-.04.005Zm.36-8.595c-1.5 0-2.686.835-3.58 2.415a.751.751 0 0 0-.05.43.72.72 0 0 0 .23.31l-.086.085a.42.42 0 0 0-.125.3v.815a.534.534 0 0 0-.275-.14 3.2 3.2 0 0 1-.39-1.63 4.775 4.775 0 0 1 4.62-4.56 2.886 2.886 0 0 1 .15 2.255.959.959 0 0 0-.094-.115.73.73 0 0 0-.4-.165Zm.35 6.875-.135.22c.213-.551.38-1.12.5-1.7.042.15.073.305.09.46-.046.37-.19.72-.415 1.015l-.04.005Zm1.845-.835v-.185a1.445 1.445 0 0 0-.245-.815c.462-.76.975-1.488 1.535-2.18l.95.93-2.24 2.25Zm-.78-2.76a.696.696 0 0 0-.085.09c-.155.23-.31.47-.465.715v-.37c.02-.46.011-.921-.025-1.38l3.58-3.58.46.46a29.035 29.035 0 0 0-3.425 4.06l-.04.005Zm.54-4.18h.175l-.17.165c.04-.06.04-.105.035-.17l-.04.005Zm3.295-1.536-.22-.22.25-.25.16.28-.19.19Zm2.5.17h-.83a.675.675 0 0 0 0-.5l-.955-1.68a.695.695 0 0 0-.5-.28.68.68 0 0 0-.395.165l-1.525 1.5a.69.69 0 0 0 0 .755l-.03.03h-1.825a3.945 3.945 0 0 0-.5-.895.435.435 0 0 0-.345-.165h-.495a.808.808 0 0 0-.055-.2 1.065 1.065 0 0 0-1.11-.595h-1.06l2.94-3.065h1.975l-.335.335a.805.805 0 0 0-.205.895 1.185 1.185 0 0 0 1.135.59h7.131l-3.015 3.11Z"/><path stroke="#fff" stroke-miterlimit="10" stroke-width=".2" d="m22.208 22.823.025-.025M35.949 4.746a.695.695 0 0 0-.5-.345h-8.17l.034-.035a1.035 1.035 0 0 0 .345-1.175 1.075 1.075 0 0 0-1.12-.595h-2.855a.715.715 0 0 0-.395.165l-3.04 3.06-1.856-1.84v-.36a3.745 3.745 0 0 0-.845-2.44.695.695 0 0 0-.375-.15c-.205 0-.415-.03-.615-.03a6.286 6.286 0 0 0-4.276 1.61 5.891 5.891 0 0 0-1.9 4.41c-.001.425.049.848.15 1.26l-9.406 9.281a.43.43 0 0 0-.125.305v.5c.003.114.05.221.13.3l4.156 4.091c-.43.46-.886.95-1.076 1.145a.69.69 0 0 0 0 .755l3.576 3.91a.695.695 0 0 0 .41.18.71.71 0 0 0 .39-.16l.13-.13.205.206c.195.08.404.119.615.115l1.285-.565 2.13 2.1a.454.454 0 0 0 .3.12h.5a.429.429 0 0 0 .306-.125l6.31-6.31c.085.04.177.066.27.074a.695.695 0 0 0 .375-.145l.085-.08.5.455c.21.066.43.093.65.08l1.84-1.03a.706.706 0 0 0 .286-.47.726.726 0 0 0-.255-.5l-1.045-.68-.24-.175 6.11-6.11a.43.43 0 0 0 .125-.3v-.5a.435.435 0 0 0-.13-.31l-1.58-1.546c.595-.65 1.16-1.215 1.635-1.685l.386-.385a.665.665 0 0 0 .11-.55h1.325a.71.71 0 0 0 .39-.16l4.655-4.641a.675.675 0 0 0 .09-.595ZM19.657 8.29l1.32.03c-.36.15-.707.332-1.035.545l-.3-.555.015-.02Zm-1.715-2.59 1.205 1.195-.44.46-.73-.12a.41.41 0 0 0-.315.145l-1.255 1.39c.084-.397.145-.8.18-1.205l.335-.335c.42-.452.764-.969 1.02-1.53Zm.56 3.305-.11.11-.25-.275.17-.19.19.355Zm-2.265 3.146a.716.716 0 0 0-.395.165l-1.575 1.575a.7.7 0 0 0-.17.4.73.73 0 0 0 .165.395l.175.17-1.14 1.14v-.35c0-.314-.036-.628-.106-.935l4.456-4.415.415.445a5.5 5.5 0 0 0-.815 2.595l-.55-.915a.7.7 0 0 0-.46-.27Zm0 2.085-.275.275-.215-.22.325-.325.165.27Zm-8.911 5.44a.72.72 0 0 0 0 .436c.057.102.138.19.235.255a4.593 4.593 0 0 0-.525.445 3.5 3.5 0 0 1-.38-1.685 4.94 4.94 0 0 1 2.58-4.206h.07a8.584 8.584 0 0 1 2.32-.655c.22.434.336.914.34 1.4 0 .285-.031.568-.095.845a.747.747 0 0 0-.245-.065c-1.87.04-3.475 1.256-4.29 3.23h-.01Zm3.22-1.674c-.022.32-.062.639-.12.955-.025.105-.075.32-.15.575a1.5 1.5 0 0 1-.67-.92c.278-.258.6-.465.95-.61h-.01Zm1.32-5.106h-.11a7.23 7.23 0 0 0-1.855.325c.045-.08.095-.155.14-.22.5-.5 2.5-2.5 3-3.036.15-.137.336-.23.536-.27l.845.84a10.67 10.67 0 0 1-1.76 2.76 1.33 1.33 0 0 0-.47-.36l-.116-.03a1.325 1.325 0 0 0-.2-.01h-.01Zm2.586-6.046c.162-.196.354-.365.57-.5.117-.065.24-.122.365-.17-.018.492-.065.983-.14 1.47a2 2 0 0 1-.785-.8h-.01Zm.53 2.13-.045.165-.33-.33a2.5 2.5 0 0 0 .385.165h-.01Zm1.1 1c.065-.2.125-.4.175-.6a.53.53 0 0 0 .085.1l.13.115-.39.386Zm-2.87-6.395a4.97 4.97 0 0 1 3.38-1.26l.115-.115c.254.422.386.907.38 1.4 0 .42-.072.839-.215 1.235a.67.67 0 0 0-.37-.185 4.585 4.585 0 0 0-1.58.315l.16.395-.5-.24a4.8 4.8 0 0 0-2.276 2.695.705.705 0 0 0 0 .43.68.68 0 0 0 .32.285l.14-.4.19.38a2.73 2.73 0 0 0-.68.42 3.441 3.441 0 0 1-.5-1.905 4.57 4.57 0 0 1 1.435-3.45ZM2.794 18.088l8.416-8.342.06.086-1.855 1.855c-.14.135-.26.275-.47.5a2.96 2.96 0 0 0-.5 1.12c-.056.198-.095.4-.115.605a7.352 7.352 0 0 0-.84.61 5.926 5.926 0 0 0-2.145 4.566 5.171 5.171 0 0 0 .295 1.78l-2.846-2.78Zm5.416 8.96-2.53-2.765c.5-.545.95-1.04 1.335-1.5.7-.81 1.185-1.37 1.65-1.5l.5.535a15.867 15.867 0 0 1-1.695 1.94 1.565 1.565 0 0 0-.165.625.73.73 0 0 0 .165.4l1.5 1.47-.76.796Zm.655-2.79a13.437 13.437 0 0 0 2.035-2.645c.149-.27.274-.553.375-.845.15-.355.26-.726.325-1.105l3.756-3.756.45.45c-1.185 1.12-4.8 4.806-5.85 8.971l-1.091-1.07Zm4.61 4.4-1.32-1.31a2.285 2.285 0 0 0 2.556-.5l2-2 .08.47-3.316 3.34Zm-.5-2.405 3.5-3.5.256.255-2.96 2.96a1.001 1.001 0 0 1-.716.296l-.08-.01Zm2.656-6.13-.09.295a.69.69 0 0 0 .085.5.92.92 0 0 0 .53.22h.055l-.055.15c-.025 0-4.74 4.73-4.74 4.73a.655.655 0 0 0-.096.5l-.17-.165c0-.08.04-.18.04-.18l-.415-.104.5-.13.1-.396c0-.09.075-.26.14-.445.065-.185.245-.675.25-.685 1.26-3.185 3.58-5.58 5.08-7.07-.503.875-.897 1.809-1.174 2.78h-.04Zm1.74-5.166c.096.372.245.727.445 1.055-.09.095-.18.19-.265.29a.705.705 0 0 0-.155-.325l-.5-.5.475-.52Zm.54 9.246s-.04-.255-.045-.315c.33-.185.645-.385.95-.59l-.905.905Zm.265-2.025.045-.11.05.045-.095.065Zm2.41.265-1.855-1.71 1-.155 1.42 1.35-.565.515Zm-.8-3.3-2.47.395a6.502 6.502 0 0 1 1.865-2.866v.185a.424.424 0 0 1 0 .5v.89a.426.426 0 0 0 .43.426.425.425 0 0 0 .28-.105l.565-.5a.43.43 0 0 0 .14-.32v-.936a.405.405 0 0 0-.08-.25.43.43 0 0 0 .08-.255v-.05l.715.715c-.41.778-.908 1.506-1.485 2.17h-.04Zm2.03-3.5-.44-.38v-.27c.17.097.35.176.536.234.01.14-.02.275-.055.41l-.04.005Zm-.41-2.751a2.37 2.37 0 0 1 .77-.385c0 .5-.034.94-.07 1.36a1.385 1.385 0 0 1-.66-.98l-.04.005Zm1.026 6.79-.375.38c.165-.26.315-.5.45-.77a2.447 2.447 0 0 0-.035.386l-.04.005Zm.36-8.595c-1.5 0-2.686.835-3.58 2.415a.751.751 0 0 0-.05.43.72.72 0 0 0 .23.31l-.086.085a.42.42 0 0 0-.125.3v.815a.534.534 0 0 0-.275-.14 3.2 3.2 0 0 1-.39-1.63 4.775 4.775 0 0 1 4.62-4.56 2.886 2.886 0 0 1 .15 2.255.959.959 0 0 0-.094-.115.73.73 0 0 0-.4-.165Zm.35 6.875-.135.22c.213-.551.38-1.12.5-1.7.042.15.073.305.09.46-.046.37-.19.72-.415 1.015l-.04.005Zm1.845-.835v-.185a1.445 1.445 0 0 0-.245-.815c.462-.76.975-1.488 1.535-2.18l.95.93-2.24 2.25Zm-.78-2.76a.696.696 0 0 0-.085.09c-.155.23-.31.47-.465.715v-.37c.02-.46.011-.921-.025-1.38l3.58-3.58.46.46a29.035 29.035 0 0 0-3.425 4.06l-.04.005Zm.54-4.18h.175l-.17.165c.04-.06.04-.105.035-.17l-.04.005Zm3.295-1.536-.22-.22.25-.25.16.28-.19.19Zm2.5.17h-.83a.675.675 0 0 0 0-.5l-.955-1.68a.695.695 0 0 0-.5-.28.68.68 0 0 0-.395.165l-1.525 1.5a.69.69 0 0 0 0 .755l-.03.03h-1.825a3.945 3.945 0 0 0-.5-.895.435.435 0 0 0-.345-.165h-.495a.808.808 0 0 0-.055-.2 1.065 1.065 0 0 0-1.11-.595h-1.06l2.94-3.065h1.975l-.335.335a.805.805 0 0 0-.205.895 1.185 1.185 0 0 0 1.135.59h7.131l-3.015 3.11Z"/><path fill="#fff" d="M37.954 17.433c0-.64-.081-1.277-.245-1.896l2-.21.155.155a25.623 25.623 0 0 0-.084 3.056 8.044 8.044 0 0 1-2.806.5c-2.235 0-3.625-1.395-3.625-3.71 0-2.316 1.815-3.816 4.05-3.816a5.001 5.001 0 0 1 2.556.68c-.11.5-.34 1.455-.44 1.915a4.82 4.82 0 0 0-2.55-.805c-.441-.01-.879.072-1.286.24a2.97 2.97 0 0 0-.425 1.63c0 1.41.7 2.36 1.825 2.36.293.006.584-.032.865-.114M43.76 19.053a2.621 2.621 0 0 1-2.805-2.795 2.812 2.812 0 0 1 2.94-2.926c1.7 0 2.75 1.09 2.75 2.81a2.741 2.741 0 0 1-2.885 2.91Zm.06-4.28c-.77 0-1.165.64-1.165 1.5s.435 1.5 1.195 1.5 1.095-.61 1.095-1.5-.35-1.466-1.125-1.466M49.48 14.617a2.14 2.14 0 0 1 1.876-1.285c1.215 0 2.065 1 2.065 2.74 0 1.866-1.24 3-3.045 3a7.251 7.251 0 0 1-2.7-.5l.104-1v-4.175a12.05 12.05 0 0 0-.26-2.165l1.96-.31v3.695Zm0 .29v2.61c.277.092.565.139.856.14.92 0 1.28-.534 1.28-1.5 0-.845-.405-1.39-1.3-1.39-.284.004-.565.05-.835.135M56.462 18.897h-1.91c.084-.842.119-1.688.104-2.535.007-.897-.08-1.791-.26-2.67l1.96-.36v3c-.02.853.014 1.707.105 2.555m-2.045-7.32a1.095 1.095 0 0 1 1.075-1.106.972.972 0 0 1 1 1 1.056 1.056 0 0 1-1.065 1.1 1 1 0 0 1-1-1M60.602 19.052c-1.905 0-3.09-1-3.09-2.805a2.815 2.815 0 0 1 2.865-2.915c1.37 0 2.37.78 2.37 2.37a4.861 4.861 0 0 1-.09.875l-3.31.095c.145.67.7 1.09 1.575 1.09a3.747 3.747 0 0 0 1.69-.41l-.205 1.44a6.587 6.587 0 0 1-1.805.26Zm-1.285-3.05 1.77-.155a2.669 2.669 0 0 0 0-.28c0-.545-.175-.95-.74-.95s-1.04.58-1.04 1.32l.01.065ZM63.932 18.898c.08-.787.115-1.579.105-2.37v-.155c.007-.9-.08-1.798-.26-2.68l1.9-.36v1.575h.06c.3-.835.766-1.595 1.446-1.595a.94.94 0 0 1 .5.15l-.32 1.96a5.109 5.109 0 0 0-1.63-.225v1.31c-.022.791.013 1.584.105 2.37l-1.906.02ZM68.614 18.898c.08-.787.115-1.578.105-2.37a14.191 14.191 0 0 0-.26-2.835l1.9-.36v1.47h.06c.39-1 1.105-1.5 1.875-1.5a1.5 1.5 0 0 1 1.6 1.635v1.56c-.02.791.013 1.583.1 2.37H72.22v-3.085c0-.565-.23-.835-.89-.835-.3.001-.598.046-.885.135v1.415c-.022.792.013 1.584.105 2.37l-1.936.03ZM77.83 19.053a2.62 2.62 0 0 1-2.806-2.796 2.816 2.816 0 0 1 2.94-2.925c1.7 0 2.75 1.09 2.75 2.81a2.74 2.74 0 0 1-2.885 2.91Zm.065-4.28c-.775 0-1.166.64-1.166 1.5s.43 1.5 1.196 1.5c.765 0 1.09-.61 1.09-1.5s-.35-1.466-1.12-1.466M100.772 18.898c.07-.72.105-1.81.105-3.536 0-1.725-.055-2.885-.105-3.45.92-.13 1.847-.198 2.775-.205 2.001 0 3.131.865 3.131 2.555 0 1.69-1.09 2.63-2.761 2.63-.415.008-.831-.008-1.245-.05 0 .886 0 1.426.05 2.056h-1.95Zm2.755-5.826a4.604 4.604 0 0 0-.855.075v2.36c.306.05.615.077.925.08.276.002.549-.042.81-.13.212-.334.32-.724.31-1.12 0-.885-.44-1.265-1.19-1.265ZM111.318 15.868a7.264 7.264 0 0 0-.255-2.21l1.951-.306v2.67a9.507 9.507 0 0 0 .205 2.671l-1.736.36c-.04-.38-.08-.72-.1-1.265h-.065a2 2 0 0 1-1.855 1.285 1.502 1.502 0 0 1-1.605-1.635v-1.55a8.242 8.242 0 0 0-.255-2.155l1.95-.36v3.365c0 .605.235.895.905.895.292 0 .583-.045.86-.135v-1.63ZM117.279 19.053c-1.9 0-3.086-1-3.086-2.796a2.818 2.818 0 0 1 .803-2.067 2.803 2.803 0 0 1 2.053-.838c1.37 0 2.365.78 2.365 2.36a4.515 4.515 0 0 1-.095.875l-3.295.09a1.433 1.433 0 0 0 1.57 1.09 3.72 3.72 0 0 0 1.685-.41l-.205 1.436a6.539 6.539 0 0 1-1.795.26Zm-1.285-3.04 1.765-.156a2.615 2.615 0 0 0 0-.28c0-.54-.175-.945-.74-.945s-1.035.575-1.035 1.315l.01.065ZM122.39 14.632a2.13 2.13 0 0 1 1.87-1.28c1.215 0 2.055 1 2.055 2.73 0 1.86-1.235 2.965-3.03 2.965a7.172 7.172 0 0 1-2.69-.5l.1-.975v-4.16a12.02 12.02 0 0 0-.256-2.156l1.951-.31v3.686Zm0 .29v2.595c.275.095.564.144.855.145.915 0 1.275-.535 1.275-1.5 0-.84-.405-1.385-1.295-1.385-.284.004-.565.05-.835.135M127.445 13.452a9.981 9.981 0 0 0-.255-2.205l1.951-.31v5.41a20.11 20.11 0 0 0 .1 2.55h-1.901c.086-.85.121-1.705.105-2.56v-2.885ZM133.526 15.908v-.39c0-.47-.175-.73-.67-.73a3.413 3.413 0 0 0-2.04.865 9.415 9.415 0 0 1-.261-1.685 6.256 6.256 0 0 1 2.661-.616c1.355 0 2.065.74 2.065 1.816 0 .73-.05 1.325-.05 1.91a5.68 5.68 0 0 0 .195 1.615l-1.735.355-.105-.975h-.06a1.857 1.857 0 0 1-1.685 1 1.362 1.362 0 0 1-1.501-1.385c0-1.405 1.786-1.715 3.206-1.755m-.855 2c.289-.006.577-.05.855-.13v-1.13c-.67 0-1.54.145-1.54.71 0 .365.275.55.685.55ZM90.505 10.906v4.536a15.635 15.635 0 0 0 .206 3.25l-1.74.36-.106-1.27h-.06a1.76 1.76 0 0 1-1.705 1.29c-1.225 0-2.195-.92-2.195-2.69s1.175-3.03 2.89-3.03c.338-.005.675.039 1 .13v-.03a9.795 9.795 0 0 0-.26-2.216l1.97-.33Zm-1.7 4a2.5 2.5 0 0 0-.785-.134c-.835 0-1.31.5-1.31 1.5a1.19 1.19 0 0 0 1.27 1.35c.28-.005.558-.05.825-.135v-2.58ZM94.722 19.052c-1.906 0-3.09-1-3.09-2.805a2.811 2.811 0 0 1 2.865-2.915c1.37 0 2.37.78 2.37 2.37a4.5 4.5 0 0 1-.095.875l-3.306.095c.14.67.7 1.09 1.576 1.09a3.746 3.746 0 0 0 1.69-.41l-.205 1.44a6.615 6.615 0 0 1-1.805.26Zm-1.29-3.05 1.775-.155a2.669 2.669 0 0 0 0-.28c0-.545-.175-.95-.74-.95-.566 0-1.046.58-1.046 1.32l.01.065ZM38.294 28.76h-.825l.405-3.106h-3.16l-.405 3.105h-.84l.92-6.73h.83l-.4 2.915h3.16l.4-2.916h.836l-.92 6.731ZM43.715 27.855c-.04.26 0 .4.23.4.1-.002.2-.017.295-.045l-.055.5c-.173.067-.358.1-.545.095-.445 0-.71-.185-.7-.68a2.304 2.304 0 0 1-1.65.735c-.895 0-1.545-.55-1.545-1.85 0-1.57.735-3.136 2.335-3.136.487.004.957.182 1.325.5l.075-.42h.78l-.544 3.9Zm-.43-2.806a1.775 1.775 0 0 0-1.16-.465c-1.165 0-1.525 1.395-1.525 2.36 0 .966.355 1.246.92 1.246a2.004 2.004 0 0 0 1.42-.686l.345-2.455ZM45.025 26.848c0-1.895 1.09-2.96 2.605-2.96 1.14 0 1.725.79 1.625 1.865l-.77.055c.025-.75-.15-1.245-.95-1.245-.8 0-1.625.5-1.625 2.25 0 1 .5 1.385 1.105 1.385a1.285 1.285 0 0 0 1.3-1l.735.14a2 2 0 0 1-2.1 1.545c-1.35 0-1.925-.83-1.925-2M49.831 26.783c0-1.56.93-2.9 2.555-2.9 1.046 0 1.536.56 1.536 1.24a1.53 1.53 0 0 1-1.245 1.5 8.607 8.607 0 0 1-2 .29c0 .65.17 1.31 1.154 1.31a1.195 1.195 0 0 0 1.216-.89l.7.155a2 2 0 0 1-2.046 1.405c-1.385 0-1.87-.95-1.87-2.085m.885-.56a6.696 6.696 0 0 0 1.636-.245c.5-.145.76-.4.76-.845 0-.445-.295-.63-.78-.63-1 0-1.5.8-1.616 1.72ZM55.286 28.748h-.845l.67-4.776h.78l-.1.81c.5-.55.9-.895 1.56-.895a1.69 1.69 0 0 1 .226 0l-.125.84a2.165 2.165 0 0 0-1.7.686l-.466 3.335ZM60.317 28.749h-.845l1-7.001h.835l-.425 2.9a2.896 2.896 0 0 1 1.765-.75c.965 0 1.41.53 1.266 1.636l-.45 3.23h-.846l.44-3.14c.1-.736-.13-1-.655-1a2.695 2.695 0 0 0-1.585.725l-.5 3.4ZM65.533 28.749h-.846l.67-4.78h.86l-.684 4.78Zm.39-5.72a.46.46 0 0 1-.5-.5.626.626 0 0 1 .685-.69c.345 0 .5.17.5.5a.632.632 0 0 1-.69.684M70.619 25.354l-.715.105a.89.89 0 0 0-.97-.96c-.74 0-1 .355-1 .725 0 .455.4.615.875.765.705.2 1.56.37 1.56 1.365s-.78 1.5-1.93 1.5-1.696-.5-1.776-1.45l.695-.16a1 1 0 0 0 1.126 1c.5 0 1.06-.165 1.06-.76 0-.5-.445-.65-.955-.8-.68-.175-1.45-.37-1.45-1.34 0-.97.89-1.45 1.81-1.45 1.145 0 1.615.625 1.665 1.47M73.78 28.568a2.435 2.435 0 0 1-1.166.3c-.92 0-1.345-.42-1.205-1.375l.41-2.89h-.745l.085-.625h.74l.195-1.376.855-.12-.205 1.5h1.315l-.085.626h-1.31l-.4 2.795c-.075.5 0 .82.545.82.302-.012.597-.096.86-.245l.11.59ZM74.324 26.923c-.002-.2.01-.401.04-.6.195-1.45 1.07-2.435 2.595-2.435 1.375 0 1.865.855 1.865 1.94.001.202-.01.404-.035.605-.185 1.5-1.05 2.435-2.54 2.435-1.345 0-1.925-.78-1.925-1.945Zm3.61-.555c0-.185.025-.375.025-.55 0-.835-.37-1.255-1.105-1.255-.865 0-1.5.575-1.645 1.805a4.396 4.396 0 0 0-.025.5c0 .88.37 1.34 1.14 1.34.855 0 1.46-.605 1.61-1.86M80.34 28.748h-.845l.67-4.775h.78l-.1.81c.5-.55.9-.895 1.56-.895.074-.006.147-.006.22 0l-.12.84a2.166 2.166 0 0 0-1.7.685l-.465 3.335ZM83.54 28.749h-.82l.665-4.78h.835l-.68 4.78Zm.39-5.72a.46.46 0 0 1-.5-.5.626.626 0 0 1 .685-.69c.345 0 .5.17.5.5a.624.624 0 0 1-.685.684M88.825 27.855c-.035.26 0 .4.235.4.1-.002.2-.017.295-.045l-.055.5c-.175.067-.362.1-.55.095-.445 0-.705-.185-.695-.68a2.31 2.31 0 0 1-1.655.735c-.89 0-1.54-.55-1.54-1.85 0-1.57.735-3.136 2.33-3.136.489.004.96.181 1.33.5l.075-.42h.78l-.55 3.9Zm-.425-2.806a1.785 1.785 0 0 0-1.165-.465c-1.16 0-1.5 1.395-1.5 2.36 0 .966.35 1.246.92 1.246a2.003 2.003 0 0 0 1.42-.686l.325-2.455ZM90.416 28.869c-.37 0-.555-.17-.555-.5a.64.64 0 0 1 .735-.716c.36 0 .545.17.545.5a.635.635 0 0 1-.725.716ZM98.802 28.76h-.83l.41-3.106h-3.16l-.406 3.105h-.84l.92-6.73h.83l-.4 2.915h3.16l.4-2.916h.836l-.92 6.731ZM104.223 27.855c-.04.26 0 .4.23.4.101-.002.202-.017.3-.045l-.06.5c-.174.067-.359.1-.545.095-.445 0-.705-.185-.7-.68a2.316 2.316 0 0 1-1.65.735c-.896 0-1.546-.55-1.546-1.85 0-1.57.735-3.136 2.336-3.136.487.004.956.182 1.325.5l.075-.42h.78l-.545 3.9Zm-.43-2.806a1.776 1.776 0 0 0-1.16-.465c-1.165 0-1.526 1.395-1.526 2.36 0 .966.356 1.246.921 1.246a2.004 2.004 0 0 0 1.42-.686l.345-2.455ZM105.532 26.848c0-1.895 1.085-2.96 2.606-2.96 1.14 0 1.725.79 1.625 1.865l-.77.055c.025-.75-.15-1.245-.95-1.245-.8 0-1.626.5-1.626 2.25 0 1 .501 1.385 1.106 1.385a1.284 1.284 0 0 0 1.3-1l.735.14a2.005 2.005 0 0 1-2.1 1.545c-1.351 0-1.926-.83-1.926-2M110.339 26.783c0-1.56.93-2.9 2.555-2.9 1.04 0 1.535.56 1.535 1.24a1.528 1.528 0 0 1-1.245 1.5 8.604 8.604 0 0 1-2 .29c0 .65.17 1.31 1.155 1.31a1.197 1.197 0 0 0 1.215-.89l.7.155a2 2 0 0 1-2.045 1.405c-1.385 0-1.87-.95-1.87-2.085m.885-.56a6.697 6.697 0 0 0 1.635-.245c.5-.145.76-.4.76-.845 0-.445-.295-.63-.78-.63-1 0-1.5.8-1.615 1.72ZM115.784 28.748h-.845l.67-4.776h.78l-.1.81c.5-.55.9-.895 1.56-.895a1.69 1.69 0 0 1 .225 0l-.125.84a2.165 2.165 0 0 0-1.7.686l-.465 3.335ZM123.26 22.438a2.064 2.064 0 0 0-.66-.125c-.435 0-.745.18-.845.845l-.115.82h1.33l-.09.625h-1.33l-.865 6.146h-.845l.865-6.125h-.71l.095-.626h.705l.115-.8c.135-1.05.715-1.53 1.605-1.53a2 2 0 0 1 .865.165l-.12.605ZM126.325 23.979h.845l-.665 4.775h-.78l.085-.63a2.816 2.816 0 0 1-1.795.725c-.965 0-1.395-.54-1.245-1.645l.445-3.226h.845l-.435 3.14a1.82 1.82 0 0 0 0 .501c.04.375.26.5.67.5a2.555 2.555 0 0 0 1.545-.68l.485-3.46ZM130.541 28.568a2.435 2.435 0 0 1-1.165.3c-.92 0-1.345-.42-1.205-1.375l.405-2.89h-.74l.08-.625h.745l.195-1.376.855-.12-.205 1.5h1.31l-.08.626h-1.315l-.395 2.795c-.075.5 0 .82.545.82.301-.012.594-.096.855-.245l.115.59ZM134.726 23.979h.846l-.671 4.775h-.76l.08-.63a2.789 2.789 0 0 1-1.79.725c-.97 0-1.395-.54-1.245-1.645l.445-3.226h.845l-.435 3.14a1.554 1.554 0 0 0 0 .501c.035.375.26.5.67.5a2.543 2.543 0 0 0 1.54-.68l.475-3.46ZM137.072 28.748h-.845l.67-4.776h.78l-.1.81c.5-.55.9-.895 1.56-.895a1.69 1.69 0 0 1 .225 0l-.135.86a2.165 2.165 0 0 0-1.7.686l-.455 3.315ZM139.307 26.923c-.004-.2.008-.401.035-.6.195-1.45 1.07-2.435 2.595-2.435 1.375 0 1.865.855 1.865 1.94.001.202-.011.404-.035.605-.185 1.5-1.05 2.435-2.54 2.435-1.345 0-1.92-.78-1.92-1.945Zm3.605-.555v-.55c0-.835-.37-1.255-1.105-1.255-.865 0-1.5.575-1.645 1.805a4.17 4.17 0 0 0 0 .5c0 .88.37 1.34 1.14 1.34.855 0 1.46-.605 1.61-1.86M144.508 28.869c-.37 0-.555-.17-.555-.5a.634.634 0 0 1 .188-.542.638.638 0 0 1 .547-.174c.36 0 .55.17.55.5a.644.644 0 0 1-.73.715ZM22.033 23.827l1.7-.92-1.425-1.04-1.14 1.12.865.84Z"/><mask id="a" width="27" height="27" x="2" y="3" maskUnits="userSpaceOnUse" style="mask-type:luminance"><path fill="#fff" d="m2.115 18.238 11.767 11.591 15.022-14.972L16.972 3.662 2.115 18.238Z"/></mask><g mask="url(#a)"><path fill="url(#b)" d="M28.909 3.661H2.12V29.83H28.91V3.661Z"/></g><mask id="c" width="22" height="25" x="6" y="3" maskUnits="userSpaceOnUse" style="mask-type:luminance"><path fill="#fff" d="m17.637 22.477.45-1.32.37.34a4.77 4.77 0 0 1-.3.866c-.06.145-.12.3-.18.454l-.34-.34Zm4.895-13.451a6.28 6.28 0 0 0-2.205 1.2 5.166 5.166 0 0 0-1.87 4 3.85 3.85 0 0 0 .735 2.41c-.77.686-1.66 1.926-2.335 4.171l-.09.3a.13.13 0 0 0 .077.157.13.13 0 0 0 .063.008l.73-.115-.34 1-.035-.035-4.82 4.821.21.215a1.78 1.78 0 0 0 2.5 0l2.625-2.625c.005.08.015.16.03.24l.165 1 6.916-6.89c.295-.405.469-.886.5-1.386a4.415 4.415 0 0 0-.19-.95.11.11 0 0 1 0-.08 20.807 20.807 0 0 1 2.305-3.1l-1.955-1.836-.585.585c.097-.325.156-.66.175-1l-2.426-2.27-.18.18Zm-10.5 10.906v.03-.025m-.296-11.146c.158.605.456 1.166.87 1.635l-2.125 2.125c-.12.12-.232.246-.335.38l-.085.08a2.57 2.57 0 0 0-.44.97c-.07.241-.108.49-.115.74a6.691 6.691 0 0 0-.975.686 5.5 5.5 0 0 0-2 4.24c-.04.986.281 1.951.905 2.716l-.32.364c-.026.035-.06.07-.096.11l4.396 4.336a.145.145 0 0 0 .04-.07c0-.035 0-.07.025-.105.015-.119.04-.236.075-.35v-.05c.055-.22.125-.47.16-.62.035-.15.085-.29.155-.5.07-.21.155-.45.24-.665v-.035c1.35-3.41 3.89-5.936 5.38-7.421l.386-.385a.125.125 0 0 0 0-.18l-.825-.825 1-1a.13.13 0 0 0 0-.16l-1-1.646a.129.129 0 0 0-.103-.05.13.13 0 0 0-.102.05l-1.58 1.58a.135.135 0 0 0 0 .186l.475.5-2.466 2.465c.206-.535.311-1.103.31-1.675a4.033 4.033 0 0 0-.15-1.07l4.946-4.896.665.725 1.285-1.22-.5-.95.36-.375 2.03.04-1.425-1.335-.19.19-.565.59-.05.05-.405.425-.88-.155-1.345 1.5.435.39h.06l-2.3 2.28a12 12 0 0 0 1.39-4.535.1.1 0 0 0 .065-.03l.325-.325a5.03 5.03 0 0 0 1.27-2.44l-1.575-1.5-5.296 5.215Z"/></mask><g mask="url(#c)"><path fill="url(#d)" d="M27.508 3.556H6.535v24.098h20.973V3.556Z"/></g><path fill="#fff" d="m30.714 9.487 4.435-4.416h-8.706c-.37 0-.655-.15-.46-.345l.845-.84c.39-.39.235-.63-.305-.63h-2.81l-4.36 4.385 2.6.05c.535 0 .69.245.3.63l-.38.38c-2.146.626-4 2.44-4 5.001a3.5 3.5 0 0 0 .854 2.47c-1.6 1.29-2.31 3.846-2.44 4.266l.97-.145.65.605c-.18 1.125-.935 1.675-.67 3.315l.225 1.566 2.535-2.946.59.55 1.56-1.41-.5-.5 1.5-1.43.25-1.03c.346-.72.926-1.28.926-2.046a4.538 4.538 0 0 0-.195-.935l-.035-.11a28.06 28.06 0 0 1 4.64-5.585l-.82-.82h2.8v-.03Zm-7.456 3.375c.546-.71.849-1.575.865-2.47 0-.306-.042-.61-.125-.905h2.635l-3.375 3.375ZM16.096 13.007l-1.195 1.195a.124.124 0 0 0 0 .18l1 1a.125.125 0 0 0 .18 0l.95-.95a.13.13 0 0 0 0-.16l-.73-1.22a.13.13 0 0 0-.205 0"/><path fill="#fff" d="m16.837 16.368-1.46-1.455-3.69 3.69-1.056 2.045.105-.295v-.03c.215-.645.355-1.285.355-1.285l.245-.2a4.74 4.74 0 0 0 1.295-3.19 3.786 3.786 0 0 0-.635-2.085 1.246 1.246 0 0 1 .5.91 11.387 11.387 0 0 0 3.5-7.266h.03l.41-.41a4.676 4.676 0 0 0 1.296-3.166 3.116 3.116 0 0 0-.61-1.925c-3.28-.295-6.06 2-6.06 5.326a3.921 3.921 0 0 0 1.11 2.86l.19-.13c-.786.8-2.886 2.9-2.886 2.9a2.335 2.335 0 0 0-.43 1.65l.215-.09A5.46 5.46 0 0 0 6 19.149a3.71 3.71 0 0 0 1 2.716c-.56.625-1.236 1.455-2.206 2.425l3.426 3.745.58-.575.7.675 1.46-.79-1.175-.86.18-.175.16.16.605-.12-.125-.285s1.35-4.17 3.27-6.38a99.061 99.061 0 0 1 2.976-3.296"/><path fill="#fff" d="m17.162 9.31.51.006.685.75.975-.925-.595-1.105-.67-.11-1.09 1.215.185.17ZM11.936 26.419a1.655 1.655 0 0 0 2.34 0l3.42-3.42-1.17-1.17-4.59 4.59ZM12.832 8.151c.585-1.635 1.81-2.85 3.76-2.85ZM13.861 9.007a2.065 2.065 0 0 0-1.595.795l-2.38 2.38a2.945 2.945 0 0 0-.92 2.165"/><path fill="#fff" d="M13.862 9.007V6.432a2 2 0 0 0 1.91 2M11.016 19.273l4.36-4.36 1.46 1.454c-1.804 1.805-5.53 5.296-6.45 10.291M7.901 20.053c.67-1.725 2.03-2.96 3.876-2.96Z"/><path fill="#5B5D5E" d="M11.111 24.974a4.98 4.98 0 0 0-.15.5c.045-.165.095-.325.15-.5ZM10.711 26.479l.075-.345c-.035.145-.065.27-.075.345Z"/><path fill="#5C5E5D" d="m22.812 22.063-.5-.315-.185-.17 6.466-6.461v-.5l-1.875-1.836c.7-.79 1.37-1.46 1.925-2l.38-.385a.12.12 0 0 0 0-.18l-.5-.5h2.225a.135.135 0 0 0 .09-.04l4.656-4.635a.13.13 0 0 0-.09-.22h-9.001a.765.765 0 0 1-.205-.026l.76-.75c.32-.32.315-.56.255-.71-.06-.15-.24-.33-.725-.33h-2.856a.12.12 0 0 0-.09.035L20.197 6.4l-2.275-2.26-.03.03c.024-.189.035-.38.035-.57a3.3 3.3 0 0 0-.67-2.085l-.066-.07h-.095a5.956 5.956 0 0 0-4.56 1.47 5.47 5.47 0 0 0-1.76 4.096 4.6 4.6 0 0 0 .2 1.385l-9.581 9.461v.5l4.45 4.38c-.5.536-1.13 1.216-1.355 1.45a.13.13 0 0 0 0 .176l3.575 3.91a.13.13 0 0 0 .185 0l.435-.425.5.5a.14.14 0 0 0 .146 0l1.55-.685 2.34 2.306h.475l6.59-6.591.206.195a.13.13 0 0 0 .175 0l.385-.345.765.72a.135.135 0 0 0 .155 0l1.835-1a.13.13 0 0 0 .061-.11.13.13 0 0 0-.06-.11l-.806-.5-.19-.165ZM19.752 6.89l-.43.445-.05.05-.41.425-.88-.15-1.34 1.5.434.39h.06l-2.305 2.28a12.071 12.071 0 0 0 1.395-4.535.12.12 0 0 0 .065-.035l.32-.32a5.07 5.07 0 0 0 1.166-2l1.975 1.95Zm-.72 2.2-.665.63-.59-.645h-.42l.8-.89.425.075.45.83Zm-3.746 6.306a.124.124 0 0 1 .18 0l.88.875a.129.129 0 0 1 .04.092.128.128 0 0 1-.04.093c-.72.655-5.14 4.846-6.13 9.626l-.04.04-.105-.105-.12-.12-1.566-1.54a.125.125 0 0 1 0-.18 12.504 12.504 0 0 0 2.136-2.73.1.1 0 0 0 .045-.045c.14-.253.256-.517.35-.79.155-.395.279-.802.37-1.216a.135.135 0 0 0 .05-.03l3.95-3.97Zm-.045-1.195.805-.81a.135.135 0 0 1 .205 0l.5.8a.135.135 0 0 1 0 .16l-.65.645a.126.126 0 0 1-.09.038.124.124 0 0 1-.09-.038l-.64-.64a.125.125 0 0 1 0-.18m-4.825 6.33c-.115.271-.245.535-.39.79l-.86-.855v-.695a2.1 2.1 0 0 0 1.25.805M9.21 18.477a3.5 3.5 0 0 1 1.835-1.04 9.672 9.672 0 0 1-.155 1.64c-.04.16-.14.575-.275 1a1.785 1.785 0 0 1-1.405-1.615m2.26-.09c.033-.333.053-.667.06-1h.155a.13.13 0 0 0 .13-.13v-.22a.126.126 0 0 0-.083-.123.127.127 0 0 0-.052-.007c-1.71.055-3.16 1.16-3.91 3a.13.13 0 0 0 .07.17l.204.08a.13.13 0 0 0 .17-.075 5.29 5.29 0 0 1 .5-.96v1.296c-.615.085-1.115.5-1.7 1.13a3.61 3.61 0 0 1-.75-2.356 5.4 5.4 0 0 1 2.89-4.625 8.663 8.663 0 0 1 2.67-.705.13.13 0 0 1 .11.065c.318.538.49 1.15.5 1.775a4.395 4.395 0 0 1-.97 2.72m.686-5h-.335a6.586 6.586 0 0 0-2.5.605c.004-.118.019-.235.045-.35a2.71 2.71 0 0 1 .445-.88c.5-.5 2.5-2.5 2.97-3l.08-.076a1.5 1.5 0 0 1 .965-.385l1.19 1.19a11.222 11.222 0 0 1-2.335 3.566 1.285 1.285 0 0 0-.5-.66m3.39-4.686c-.097.435-.218.864-.365 1.285l-1.04-1.04v-1.08a2.096 2.096 0 0 0 1.405.835Zm-1.375-1.93v-.155c.195-.236.428-.437.69-.595a3 3 0 0 1 .44-.21 2 2 0 0 1 .575-.11 15.082 15.082 0 0 1-.24 2.53 1.745 1.745 0 0 1-1.47-1.46m-1.23-3.46a5.5 5.5 0 0 1 4.03-1.36.135.135 0 0 1 .1.054 3.05 3.05 0 0 1 .456 1.645 4.466 4.466 0 0 1-1.2 2.97c0-.334.03-.68.034-1.03h.145a.125.125 0 0 0 .125-.124V5.27a.135.135 0 0 0-.135-.13c-.49.01-.974.106-1.43.285l-.23.1-.06.03a4.39 4.39 0 0 0-2.07 2.46.129.129 0 0 0 .035.144.13.13 0 0 0 .045.026l.21.075a.13.13 0 0 0 .165-.075c.127-.352.295-.687.5-1v.5l-.035 1.1a2.315 2.315 0 0 0-1.11.545 4.35 4.35 0 0 0-.29.26 3.716 3.716 0 0 1-.89-2.53 5 5 0 0 1 1.605-3.74M2.16 18.096l9.136-9.001c.148.288.333.555.55.795l-2.13 2.13a3.28 3.28 0 0 0-.33.375l-.085.085c-.211.29-.36.62-.44.97a3.266 3.266 0 0 0-.116.746 6.292 6.292 0 0 0-.975.68 5.5 5.5 0 0 0-2 4.24 4.03 4.03 0 0 0 .905 2.716l-.315.365-4.2-4.1Zm6.44 9.186-.29.29a.135.135 0 0 1-.19 0l-2.925-3.2a.125.125 0 0 1 0-.175c.61-.625 1.1-1.195 1.5-1.665.86-1 1.4-1.61 2.065-1.696a.11.11 0 0 1 .095.03l.846.86.045.05a14.616 14.616 0 0 1-1.956 2.3.135.135 0 0 0-.04.096v.23a.13.13 0 0 0 .035.095l1.796 1.76-.98 1.025Zm.876.5a.12.12 0 0 1-.145 0l-.175-.18a.125.125 0 0 1 0-.165l.755-.745.65.645-1.085.445Zm4.025 1.47-2.18-2.16-.62-.6c0-.075.04-.2.075-.345v-.055c.06-.22.13-.47.165-.62.04-.17.09-.336.15-.5.075-.23.16-.45.245-.67v-.035c1.345-3.416 3.885-5.94 5.38-7.426l.386-.38a.135.135 0 0 0 0-.185l-.826-.825 1-1a.135.135 0 0 0 0-.16l-1-1.65a.135.135 0 0 0-.205 0l-1.58 1.585a.126.126 0 0 0 0 .18l.475.5-2.465 2.46a4.63 4.63 0 0 0 .31-1.675c0-.36-.05-.72-.15-1.065l4.946-4.9.67.724 1.285-1.22-.5-.95.365-.375 2.5.05a.665.665 0 0 1 .275.04.5.5 0 0 1-.135.18l-.365.36a6.2 6.2 0 0 0-2.2 1.195 5.166 5.166 0 0 0-1.875 4 3.87 3.87 0 0 0 .735 2.406c-.77.685-1.655 1.93-2.33 4.175l-.096.295a.129.129 0 0 0 .027.123.128.128 0 0 0 .118.043l.73-.11-.335 1a.156.156 0 0 0-.11.045l-4.68 4.68a.15.15 0 0 0 0 .215l.045.05a1.885 1.885 0 0 0 2.65 0l2.575-2.575c.006.074.016.147.03.22l.21 1.295-3.695 3.66Zm6.9-9.34a.135.135 0 0 1 0-.186l.186-.195a8.106 8.106 0 0 0 2.215-3.905 9.366 9.366 0 0 1-1.955 4.7l-.445-.415Zm2.231-7.847a19.803 19.803 0 0 1-.135 2.345 1.795 1.795 0 0 1-1.5-1.715c.415-.383.94-.626 1.5-.695a.13.13 0 0 1 .125.065m-.185 2.826a8.368 8.368 0 0 1-.38 1.5l-1.035-1.035a.135.135 0 0 1-.04-.095v-1.215c.354.466.876.775 1.455.86m.68-2.58v-.5a.145.145 0 0 0-.035-.09l-.165-.166a.135.135 0 0 0-.095-.04c-1.335 0-2.39.74-3.215 2.2a.135.135 0 0 0 .05.18l.195.106a.13.13 0 0 0 .175-.05c.138-.249.296-.486.47-.71v2.225a.116.116 0 0 0 .04.09l1.32 1.32a9.354 9.354 0 0 1-2 2.7l-2.965.465a.13.13 0 0 1-.14-.17c.68-2 1.5-3 2.2-3.545a.126.126 0 0 0 .045-.1v-.37a.13.13 0 0 0-.2-.105l-.07.045a3.42 3.42 0 0 1-.63-2.12 5.211 5.211 0 0 1 5.29-5.001c.322.519.495 1.115.5 1.725a3.86 3.86 0 0 1-.64 2.075l-.105.105c0-.09-.03-.175-.045-.25m-5.46 12.772-.155-.955a4.743 4.743 0 0 1-.055-.5c.65-.352 1.27-.757 1.855-1.21l.53.475-2.175 2.19Zm-.445-2.875-.34-.34.43-1.26.365.34c-.07.297-.17.586-.295.865-.055.13-.11.26-.16.395Zm-.806.03a.15.15 0 0 1 .215 0l.646.64a.155.155 0 0 1 0 .22l-3.156 3.155a1.435 1.435 0 0 1-1.69.25.156.156 0 0 1-.076-.183.156.156 0 0 1 .036-.062l4.025-4.02Zm1.5.645-.294-.29c.064-.2.14-.398.225-.59.096-.223.181-.45.255-.68l.905.82c-.35.267-.714.515-1.09.745m2.815.05a.13.13 0 0 1-.175 0l-2.705-2.5 2.085-.326 1.81 1.716a.126.126 0 0 1 0 .19l-1.015.92Zm1.59-.64.625.405a.135.135 0 0 1 0 .225l-.835.465a.13.13 0 0 1-.15 0l-.34-.32a.13.13 0 0 1 0-.185l.555-.555a.13.13 0 0 1 .16 0m5.58-7.431-4.22 4.22c.106-.212.225-.417.355-.615a2.9 2.9 0 0 0 .59-1.54 4.45 4.45 0 0 0-.19-.955.145.145 0 0 1 0-.08 20.888 20.888 0 0 1 1.866-2.59l1.6 1.56Zm.386-4.5a30.057 30.057 0 0 0-3.67 4.215l-.07.1c-.16.236-.316.476-.466.72l-.25.41a.14.14 0 0 0 0 .125l.04.085c.02.038.036.078.045.12.082.252.136.512.16.775-.046.454-.22.885-.5 1.245a3.5 3.5 0 0 0-.665 1.69l-1.23 1.23-.5-.47a10.002 10.002 0 0 0 2.15-5.84c.02-.5.007-1.002-.04-1.5l3.93-3.931a.125.125 0 0 1 .186 0l.97.97-.09.055Zm-3.96-.69h1.695l-1.816 1.82c.115-.379.174-.771.175-1.166 0-.211-.018-.422-.055-.63m3.86-.6a.135.135 0 0 1-.18 0l-.61-.61h-.03a.135.135 0 0 1 0-.185l.736-.735a.13.13 0 0 1 .205 0l.465.815a.13.13 0 0 1 0 .155l-.585.56Zm6.192-3.63-3.69 3.675a.125.125 0 0 1-.09.04h-1.821l.57-.57a.13.13 0 0 0 0-.155l-.96-1.68a.13.13 0 0 0-.2 0l-1.5 1.5a.135.135 0 0 0 0 .185l.28.275-.45.45-2.3.035a3.665 3.665 0 0 0-.5-1l-.066-.09h-.115c-.313 0-.626.025-.935.075a.526.526 0 0 0 .1-.53c-.06-.15-.24-.33-.725-.33l-1.735-.035a.13.13 0 0 1-.09-.22l3.625-3.646a.115.115 0 0 1 .09-.035h2.656a.65.65 0 0 1 .27.04.68.68 0 0 1-.135.18l-.85.84a.384.384 0 0 0-.11.426c.13.305.6.33.74.33h7.83a.13.13 0 0 1 .09.22m-14.151 8.5-.56.566v.865l.56-.565v-.865Zm0 1.37-.56.57v.861l.56-.565v-.865Zm0 1.371-.56.57v.915l.56-.5v-.985Z"/><defs><linearGradient id="b" x1="31.566" x2="-9.64" y1="18.831" y2="18.831" gradientUnits="userSpaceOnUse"><stop stop-color="#fff"/><stop offset=".41" stop-color="#DFDDD4"/><stop offset=".79" stop-color="#C5C1B2"/><stop offset="1" stop-color="#BBB7A5"/></linearGradient><linearGradient id="d" x1="50.797" x2="10.59" y1="15.099" y2="15.099" gradientUnits="userSpaceOnUse"><stop stop-color="#fff"/><stop offset=".16" stop-color="#F0EFEB"/><stop offset=".53" stop-color="#D3D1C5"/><stop offset=".82" stop-color="#C2BEAE"/><stop offset="1" stop-color="#BBB7A5"/></linearGradient></defs></svg>