<svg xmlns="http://www.w3.org/2000/svg" width="auto" height="auto" fill="none" viewBox="0 0 861 140"><path fill="#009183" d="M817.9 10.113h19.587L755.875 129.98h-19.586L817.9 10.113Z"/><path fill="#FF6C0C" d="M840.612 10h19.586l-81.611 119.866H759L840.612 10Z"/><path fill="url(#a)" d="M70 19c0-4.97 4.315-9 9.286-9 426.489.004 301.069.285 735.553.285L733.339 130 70 125.622V19Z"/><circle cx="70" cy="70" r="70" fill="#00A887"/><circle cx="70" cy="70" r="70" stroke="#fff"/><path fill="#fff" d="M70 136.499c36.727 0 66.5-29.773 66.5-66.5 0-36.726-29.773-66.5-66.5-66.5C33.273 3.5 3.5 33.274 3.5 70c0 36.727 29.773 66.5 66.5 66.5Z"/><path fill="#00A887" d="M113.979 26.016a62.184 62.184 0 1 0 18.223 43.967 61.77 61.77 0 0 0-18.223-43.967Zm-43.967 89.947a45.966 45.966 0 0 1-32.508-78.462A45.962 45.962 0 0 1 115.968 70 46.014 46.014 0 0 1 70 115.963h.012Z"/><path fill="#1D1D1B" d="M108.737 87.161c0-.202.041-.347.047-.428.006-.08 0-.173 0-.249a.775.775 0 0 0-.214-.63 1.351 1.351 0 0 0-.793-.168h-.341a1.243 1.243 0 0 0-.955.278 2.528 2.528 0 0 0-.347 1.197l-.139 1.157a5.876 5.876 0 0 0-.058.689.747.747 0 0 0 .214.607c.24.133.515.19.787.162h.336a1.228 1.228 0 0 0 .966-.277c.207-.352.325-.75.341-1.157l.139-1.157.017-.024Zm1.707-.15-.174 1.458a3.641 3.641 0 0 1-.827 2.163 2.816 2.816 0 0 1-2.048.625h-.902a2.663 2.663 0 0 1-1.736-.451 1.937 1.937 0 0 1-.52-1.498 7.28 7.28 0 0 1 .052-.822l.185-1.458c.031-.79.317-1.549.816-2.163a2.815 2.815 0 0 1 2.042-.62h.954c.613-.057 1.227.1 1.736.446a1.89 1.89 0 0 1 .52 1.504c0 .279-.02.557-.057.833l-.041-.017Zm-6.942-.353v.035h-1.637v-.278a.688.688 0 0 0-.22-.578 1.262 1.262 0 0 0-.735-.168 1.155 1.155 0 0 0-.943.318c-.184.36-.29.754-.312 1.157l-.145 1.157c-.03.228-.045.458-.046.689a.759.759 0 0 0 .197.607c.23.132.494.188.757.162.313.031.625-.058.874-.249.213-.248.332-.564.336-.89h1.677a3.292 3.292 0 0 1-.804 2.018 2.696 2.696 0 0 1-1.938.62h-.619a2.661 2.661 0 0 1-1.736-.452 1.933 1.933 0 0 1-.509-1.516c.002-.274.02-.549.052-.821l.186-1.458c.029-.79.315-1.55.815-2.164a2.811 2.811 0 0 1 2.042-.619h.51a2.85 2.85 0 0 1 1.735.4 1.653 1.653 0 0 1 .515 1.376v.284c0 .07 0 .197-.046.37h-.006Zm-6.555 3.066-.185 1.44H92.03l.833-6.855h1.666l-.66 5.415h3.078Zm-7.983-.995-.336-3.124h-.272l-1.122 3.124h1.73Zm2.048 2.465h-1.736l-.162-1.233H86.8l-.457 1.233h-1.735l2.753-6.856h2.673l1.024 6.856h-.046Zm-6.601-6.856-.839 6.856h-1.649l.342-2.754h-2.58l-.342 2.754H77.7l.84-6.856h1.642l-.324 2.638h2.58l.318-2.638h1.655Zm-7.416 2.349v.035H75.35V86.415a.67.67 0 0 0-.225-.578 1.273 1.273 0 0 0-.74-.168 1.117 1.117 0 0 0-.932.318c-.19.358-.298.753-.318 1.157l-.14 1.157a5.792 5.792 0 0 0-.057.689.78.78 0 0 0 .203.607 1.734 1.734 0 0 0 1.637-.087c.208-.25.326-.565.335-.89h1.678a3.257 3.257 0 0 1-.804 1.99 2.69 2.69 0 0 1-1.932.618h-.625a2.661 2.661 0 0 1-1.736-.45 1.957 1.957 0 0 1-.515-1.517c.005-.274.024-.549.058-.821l.18-1.458c.033-.79.32-1.55.821-2.164a2.835 2.835 0 0 1 2.048-.619h.503a2.893 2.893 0 0 1 1.736.4 1.679 1.679 0 0 1 .509 1.376c.007.095.007.19 0 .284 0 .07 0 .197-.04.37v.058Zm-8.77 2.042-.348-3.124h-.272l-1.122 3.124h1.741Zm2.036 2.465h-1.736l-.162-1.233H66.05l-.463 1.233h-1.735l2.753-6.856h2.673l1.024 6.856h-.04Zm-6.59-6.856-.838 6.856h-1.591l.613-5.08-2.164 5.05h-1.69l-.919-5.136-.63 5.137h-1.597l.839-6.856h2.505l.867 5.033 2.089-5.033 2.516.03ZM51.818 88.73l-.342-3.124h-.272l-1.157 3.124h1.77Zm2.042 2.465h-1.736l-.156-1.233h-2.314l-.463 1.233h-1.735l2.748-6.856h2.666l1.03 6.856h-.04Zm-6.555-4.507v.035h-1.643V86.415a.672.672 0 0 0-.225-.578 1.273 1.273 0 0 0-.74-.168 1.116 1.116 0 0 0-.932.318c-.19.358-.299.753-.319 1.157l-.138 1.157a5.792 5.792 0 0 0-.058.689.742.742 0 0 0 .202.607c.23.132.495.188.758.162.312.03.624-.059.874-.249.213-.249.333-.563.341-.89h1.672a3.222 3.222 0 0 1-.804 1.99 2.672 2.672 0 0 1-1.932.618h-.62a2.65 2.65 0 0 1-1.735-.45 1.934 1.934 0 0 1-.515-1.517 6.36 6.36 0 0 1 .064-.821l.202-1.446c.03-.792.32-1.552.822-2.164a2.811 2.811 0 0 1 2.036-.62h.515a2.852 2.852 0 0 1 1.735.4 1.66 1.66 0 0 1 .51 1.377v.283c0 .07 0 .197-.04.37l-.03.047Zm-6.433-2.349-.168 1.377h-3.303l-.168 1.417h3.205L40.3 88.29h-3.216l-.18 1.522h3.373l-.168 1.377h-5.021l.839-6.856 4.946.006Zm-6.034 0-.173 1.377h-1.736l-.67 5.479h-1.673l.671-5.479h-1.735l.168-1.377h5.148Z"/><path fill="#00A887" d="M72.604 80.63h-11.13l13.78-25.848h-5.346l5.38-9.962h30.216l-5.727 9.962h-11.57L74.714 79.039c-.56 1.012-1.272 1.59-2.111 1.59Zm-10.72-.243h10.72c.735 0 1.36-.486 1.857-1.435v-.029L88.039 54.51h11.599l5.444-9.465H75.439l-5.114 9.47h5.34L61.883 80.388Z"/><path fill="#00A887" d="m105.295 44.919-5.588 9.719h-11.57L74.605 78.964c-.399.787-1.03 1.528-1.978 1.528H61.676l13.78-25.854h-5.352l5.248-9.713 29.943-.006ZM70.018 54.769 57.533 77.244c-1.116 1.996-3.002 3.471-5.45 3.471H34.41a4.934 4.934 0 0 1-4.935-4.934 4.853 4.853 0 0 1 .631-2.413l15.7-28.312h11.849l-13.44 24.066c-.13.192-.205.416-.219.648a1.065 1.065 0 0 0 1.064 1.064h4.183l1.013-1.816 7.925-14.255 11.837.006Z"/><path fill="#00A887" d="M34.41 80.837a5.06 5.06 0 0 1-4.414-7.521l15.736-28.347H57.88l-.105.18L44.338 69.22c-.12.17-.193.37-.209.579a.943.943 0 0 0 .943.937h4.113l8.933-16.066h12.148l-.098.185-12.49 22.47c-1.25 2.239-3.274 3.517-5.554 3.517l-17.714-.005Zm11.466-35.654L30.187 73.426a4.812 4.812 0 0 0 4.2 7.168h17.674c2.187 0 4.136-1.238 5.34-3.396l12.385-22.285h-11.57l-8.903 16.054h-4.258a1.186 1.186 0 0 1-1.157-1.186c.011-.255.093-.501.237-.711L57.47 45.183H45.876Z"/><path fill="#fff" d="M123.471 87.15a7.312 7.312 0 0 0-1.874-.816l-.127-.046a8.41 8.41 0 0 0-2.112-.578.58.58 0 0 0-.578.428.607.607 0 0 0 .092.636c.284.236.615.408.972.503l.318.11-.578 1.666-.145-.034-.225-.081a3.028 3.028 0 0 1-1.771-1.262 2.456 2.456 0 0 1-.034-2.001c.134-.428.356-.822.653-1.157.271-.28.613-.48.99-.579.347-.07.705-.07 1.052 0 .661.147 1.311.34 1.944.579.64.21 1.264.463 1.869.758.32.15.605.365.839.63.24.305.389.672.428 1.059a2.83 2.83 0 0 1-.168 1.273 2.401 2.401 0 0 1-1.279 1.556 2.992 2.992 0 0 1-2.181-.087h-.069l.579-1.649c.343.144.715.207 1.087.185a.581.581 0 0 0 .486-.433.575.575 0 0 0-.168-.66ZM120.47 80.97l-.451 2.115-1.51-.319.821-3.883 7.492 1.606-.376 1.761-5.976-1.28ZM126.04 62.53a.577.577 0 0 0-.468-.527 7.124 7.124 0 0 0-2.031.122h-.15a8.603 8.603 0 0 0-2.123.458.578.578 0 0 0-.324.649.577.577 0 0 0 .376.522c.357.082.729.082 1.087 0l.342-.047.237 1.739-.145.029-.237.04a3.014 3.014 0 0 1-2.146-.324 2.371 2.371 0 0 1-.932-1.78 3.007 3.007 0 0 1 .07-1.303 1.97 1.97 0 0 1 .625-.956c.273-.223.594-.382.937-.464.649-.175 1.31-.303 1.978-.383a16.082 16.082 0 0 1 2.013-.185c.355-.011.708.052 1.036.185.352.162.652.422.862.748a2.9 2.9 0 0 1 .422 1.205 2.41 2.41 0 0 1-.428 1.976 3.063 3.063 0 0 1-1.984.922h-.07l-.243-1.739a2.593 2.593 0 0 0 1.059-.33.58.58 0 0 0 .237-.556ZM120.163 72.737l-.22 1.803 1.435.4-.18 1.396-1.481.046-.225 1.791 7.81-.713.26-2.12-7.399-2.603Zm2.43 3.582.127-1.026 3.263.921-3.39.105ZM120.157 72.058l-.029-1.756 3.182-.058-.029-1.443-3.176.058-.035-1.802 7.66-.128.029 1.802-2.887.041.017 1.443 2.898-.046.029 1.755-7.659.134ZM125.815 54.732l-7.838.232.433 1.768 1.481-.151.342 1.373-1.371.58.434 1.739 7.034-3.478-.515-2.063Zm-4.286 2.7-.249-1.002 3.373-.307-3.124 1.31ZM117.855 54.256l-.666-1.568 5.514-2.175-5.924 1.192-.533-1.255 4.976-3.437-5.415 2.465-.66-1.557 7.058-3.002.972 2.314-2.731 1.91-.532.312-1.024.619c.284-.081.648-.174 1.07-.284l.706-.18 3.24-.642.978 2.315-7.029 2.973ZM119.48 40.211l-7.468 2.39.902 1.579 1.377-.532.706 1.22-1.157.938.897 1.544 5.785-5.27-1.042-1.869Zm-3.378 3.772-.515-.885 3.153-1.232-2.638 2.117ZM115.529 36.348a.575.575 0 0 0-.654-.26 7.186 7.186 0 0 0-1.735 1.041l-.122.081a7.883 7.883 0 0 0-1.683 1.383.58.58 0 0 0 0 .711.58.58 0 0 0 .578.301c.361-.088.697-.256.984-.492l.278-.196 1.006 1.452-.121.092-.191.14a3.097 3.097 0 0 1-2.112.688 2.451 2.451 0 0 1-1.637-1.157 3.072 3.072 0 0 1-.526-1.198c-.072-.39-.029-.79.121-1.157.152-.32.364-.606.625-.845.503-.449 1.036-.863 1.597-1.238.552-.4 1.132-.759 1.735-1.076.303-.16.636-.252.978-.272.382-.018.762.075 1.093.267.374.223.692.527.932.89a2.417 2.417 0 0 1 .509 1.95 3.017 3.017 0 0 1-1.354 1.736l-.058.046-.995-1.435c.318-.199.589-.465.793-.78a.58.58 0 0 0-.041-.672ZM112.451 32.882l-1.689-1.695-.996.995 1.562 1.567-1.087 1.094-1.562-1.568-1.175 1.186 1.684 1.69-1.105 1.11-2.939-2.962 5.409-5.426 2.951 2.956-1.053 1.053ZM100.806 24.396l-.81 1.307-1.874-1.168-.891 1.417 2.03 1.267-.827 1.325-3.529-2.216 4.055-6.514 3.535 2.221-.787 1.262-2.024-1.267-.752 1.191 1.874 1.175ZM96.63 19.528a1.59 1.59 0 0 0-.452-.943 4.974 4.974 0 0 0-1.342-.902l-1.736-.897-3.47 6.844 1.735.89c.475.27.988.466 1.522.58.353.043.711-.026 1.023-.197.283-.17.527-.397.718-.666a14.9 14.9 0 0 0 1.041-1.822c.333-.616.62-1.256.856-1.915.105-.312.14-.644.104-.972Zm-1.886.579c-.082.208-.272.578-.579 1.157l-.162.312c-.347.694-.579 1.157-.74 1.377-.084.17-.21.315-.365.422a.707.707 0 0 1-.388.087 1.363 1.363 0 0 1-.422-.11l-.133-.07a.282.282 0 0 1-.087-.057l2.193-4.316.087.03.127.069c.16.071.304.176.422.306.091.098.15.221.168.353-.008.156-.05.307-.121.446v-.006ZM106.22 26.857l-1.099-.914.949-1.146 3.633 3.055-.96 1.14-1.152-.978-3.968 4.738-1.377-1.146 3.974-4.75ZM84.908 13.988l-3.72 6.942 1.735.498.614-1.348 1.353.382-.19 1.48 1.735.498.52-7.844-2.047-.608Zm.179 5.08-.983-.284 1.411-3.083-.428 3.367ZM79.656 14.518a.578.578 0 0 0-.515-.4.58.58 0 0 0-.642.284 7.592 7.592 0 0 0-.475 1.996v.139a8.371 8.371 0 0 0-.185 2.175.607.607 0 0 0 .527.497.577.577 0 0 0 .578-.202 2.55 2.55 0 0 0 .33-1.042l.046-.335 1.736.272c-.003.05-.003.1 0 .15 0 .052 0 .128-.035.237a2.991 2.991 0 0 1-.937 1.962 2.385 2.385 0 0 1-1.961.376 2.83 2.83 0 0 1-1.221-.446 2.025 2.025 0 0 1-.735-.88A2.465 2.465 0 0 1 76 18.267a15.25 15.25 0 0 1 .215-2.013c.09-.67.228-1.333.41-1.984.104-.337.266-.652.48-.932a2.1 2.1 0 0 1 .96-.607 2.94 2.94 0 0 1 1.285-.052 2.383 2.383 0 0 1 1.736.99 3.02 3.02 0 0 1 .3 2.168v.076l-1.735-.278c.084-.367.086-.748.006-1.117ZM73.278 12.163l-.537 7.658 1.789.126.537-7.658-1.79-.126ZM71.499 14.363v.139a1.395 1.395 0 0 0 0 .144h-1.701v-.098a2.316 2.316 0 0 0-.145-.943.475.475 0 0 0-.457-.283.516.516 0 0 0-.52.347 5.387 5.387 0 0 0-.145 1.631v1.284c-.031.542.014 1.085.133 1.614a.503.503 0 0 0 .503.336.577.577 0 0 0 .52-.295c.132-.298.19-.624.169-.949v-.237a.675.675 0 0 0 0-.15h-.695V15.56h2.436v4.211h-1.261l-.081-.48c-.16.192-.356.35-.579.463-.232.09-.48.133-.729.127a2.147 2.147 0 0 1-.862-.174 1.96 1.96 0 0 1-.688-.503 2.359 2.359 0 0 1-.515-1.082 13.128 13.128 0 0 1-.145-2.314c-.007-.62.025-1.24.099-1.857.043-.368.155-.725.33-1.053.2-.326.492-.587.838-.752.39-.179.815-.268 1.244-.26a2.176 2.176 0 0 1 1.701.625c.415.523.612 1.186.55 1.85ZM45.321 22.808c.313.515.579 1.012.856 1.51l.614 1.156-1.424.776-3.61-6.81 1.65-.873 3.534 3.471c-.434-.677-.793-1.267-1.088-1.735-.295-.469-.532-.926-.723-1.273l-.578-1.065 1.411-.752 3.599 6.78-1.655.88-3.61-3.604c.382.509.712 1.03 1.024 1.539ZM34.393 28.065l1.66-1.446 1.013 1.163-1.666 1.446 1.099 1.267 1.799-1.568 1.024 1.175-3.141 2.742-5.028-5.797 3.142-2.736.977 1.116-1.799 1.58.92 1.058ZM39.252 27.95a14.83 14.83 0 0 1-1.157-1.643 15.965 15.965 0 0 1-1.018-1.735 2.632 2.632 0 0 1-.26-1.019 2.089 2.089 0 0 1 .306-1.099c.235-.361.547-.666.914-.89a2.372 2.372 0 0 1 1.961-.446c.713.247 1.309.75 1.672 1.411l.04.07-1.463.943a2.742 2.742 0 0 0-.752-.833.578.578 0 0 0-.642.052.578.578 0 0 0-.284.642c.237.643.565 1.248.972 1.8l.081.126a7.804 7.804 0 0 0 1.313 1.736.66.66 0 0 0 1.03-.538 2.407 2.407 0 0 0-.457-.995l-.18-.29 1.476-.96.093.128c0 .04.075.11.127.196.457.596.678 1.34.619 2.089a2.39 2.39 0 0 1-1.203 1.59c-.364.252-.779.42-1.215.492-.382.057-.772 0-1.123-.162a2.474 2.474 0 0 1-.85-.665ZM54.86 20.189a21.225 21.225 0 0 0-1.157-3.859 2.453 2.453 0 0 0-.614-.856A2.025 2.025 0 0 0 52.055 15a2.96 2.96 0 0 0-1.29.138 2.996 2.996 0 0 0-1.157.614 1.962 1.962 0 0 0-.579.977 2.461 2.461 0 0 0 0 1.047c.125.666.29 1.323.498 1.967.182.65.41 1.286.682 1.904.137.318.333.607.579.85.296.257.66.422 1.047.474.435.048.875 0 1.29-.138a2.943 2.943 0 0 0 1.157-.614c.28-.26.481-.596.579-.966.075-.35.075-.713 0-1.064Zm-1.736.792a.578.578 0 0 1-.463.463.578.578 0 0 1-.642-.133 4.261 4.261 0 0 1-.578-1.446l-.411-1.325a4.57 4.57 0 0 1-.307-1.545.579.579 0 0 1 .463-.462.58.58 0 0 1 .642.115c.29.448.5.944.62 1.464l.398 1.325a4.42 4.42 0 0 1 .278 1.544ZM54.785 13.982l1.747-.4 1.372 5.97 2.1-.48.347 1.505-3.842.89-1.724-7.485ZM65.262 16.093c-.078-.672-.2-1.34-.365-1.996a2.665 2.665 0 0 0-.457-.954 2.105 2.105 0 0 0-.942-.637 2.892 2.892 0 0 0-1.296-.098 3.19 3.19 0 0 0-1.238.399c-.33.211-.594.51-.764.862a2.667 2.667 0 0 0-.203 1.024c0 .678.05 1.354.15 2.025.063.673.177 1.34.342 1.996.085.344.236.668.446.954.249.3.578.522.948.642a3.47 3.47 0 0 0 2.534-.312c.327-.208.588-.505.752-.856.145-.328.218-.683.215-1.042a14.168 14.168 0 0 0-.122-2.007Zm-1.7 2.493a.695.695 0 0 1-1.158.133 4.578 4.578 0 0 1-.353-1.533l-.168-1.377a4.631 4.631 0 0 1-.034-1.579.695.695 0 0 1 1.157-.145c.211.49.333 1.013.358 1.545l.168 1.371c.102.523.111 1.06.03 1.585ZM31.205 29.018l-1.047 1.094 4.437 4.292-1.25 1.296-4.437-4.292-.995 1.03-1.07-1.042 3.291-3.413 1.07 1.035ZM26.265 45.472l.838-1.585-7.52-2.146-1.001 1.892 5.982 5.079.85-1.603-1.197-.89.665-1.239 1.383.492Zm-3.194-.064-2.719-2.024 3.2 1.116-.48.908ZM17.09 85.862c-.538.197-1.001.359-1.377.474l-1.157.347-.463-1.527 7.33-2.216.543 1.794-4.223 2.835a36.029 36.029 0 0 1 1.736-.689c.578-.214 1.11-.393 1.649-.578l1.232-.376.474 1.544-7.33 2.245-.543-1.788 4.078-2.811a54.99 54.99 0 0 1-1.95.746ZM18.143 76.804h-1.568l-4.09-.186-.232-1.877 7.816.805.255 2.08-7.394 2.643-.231-1.889 3.91-1.159c.18-.046.406-.116.695-.185.29-.07.578-.157.931-.227l-.092-.005ZM15.065 71.285v-2.22h1.538v2.22h1.672v-2.4h1.562v4.185h-7.665v-4.184h1.493v2.399h1.4ZM19.594 59.085a.775.775 0 0 0-.474-.278 1.358 1.358 0 0 0-1.221.539l-.185.162a.368.368 0 0 1-.07.075 5.866 5.866 0 0 1-1.342 1.06c-.213.09-.44.14-.67.151a3.01 3.01 0 0 1-.764-.08 2.046 2.046 0 0 1-1.4-.928 2.157 2.157 0 0 1-.209-1.692c.102-.611.436-1.16.932-1.53a2.133 2.133 0 0 1 1.735-.203c.04.007.079.019.116.035l.121.029-.358 1.576h-.099a1.428 1.428 0 0 0-.775 0 .52.52 0 0 0-.358.389.545.545 0 0 0 .086.446.77.77 0 0 0 .44.255c.307.07.717-.134 1.203-.62.087-.093.162-.163.209-.203.046-.04.092-.099.162-.163a4.207 4.207 0 0 1 1.25-.956 2.11 2.11 0 0 1 .647-.11c.244-.003.486.024.723.081.64.105 1.212.46 1.591.986a2.321 2.321 0 0 1 .226 1.808 2.32 2.32 0 0 1-.972 1.57 2.42 2.42 0 0 1-1.857.18 1.043 1.043 0 0 0-.156-.035l-.25-.087.377-1.6.214.053c.292.093.603.109.902.046a.51.51 0 0 0 .365-.429.546.546 0 0 0-.139-.527ZM14.312 54.305l.52-1.727 7.319 2.254-.52 1.721-7.319-2.248ZM20.74 80.012l.405 1.75-7.469 1.738-.399-1.756 7.463-1.732ZM23.28 49.277a2.377 2.377 0 0 0-.735-.636 13.701 13.701 0 0 0-1.92-.85 13.694 13.694 0 0 0-2.008-.66 2.314 2.314 0 0 0-.972 0 1.643 1.643 0 0 0-.89.55c-.325.435-.579.92-.753 1.434l-.706 1.846 7.15 2.759.712-1.857c.215-.498.35-1.027.4-1.568a1.735 1.735 0 0 0-.278-1.018Zm-1.371 2.007c0 .058-.04.105-.052.145-.012.04 0 .058-.052.087l-4.513-1.736a.466.466 0 0 0 0-.087l.052-.138c.062-.164.15-.316.26-.452a.626.626 0 0 1 .336-.202.99.99 0 0 1 .48.04c.214.058.625.203 1.22.44l.32.122a44.41 44.41 0 0 1 1.445.578c.177.069.334.18.457.324.077.11.119.242.122.376.006.171-.02.342-.075.503ZM29.348 39.202a2.262 2.262 0 0 0-.544-.815c-.506-.48-1.05-.92-1.625-1.314a12.582 12.582 0 0 0-1.736-1.157 2.372 2.372 0 0 0-.937-.277 1.7 1.7 0 0 0-1.007.3c-.427.34-.798.744-1.099 1.198l-1.157 1.597 6.196 4.518 1.157-1.603c.337-.426.607-.902.798-1.411a1.66 1.66 0 0 0-.046-1.036Zm-1.614 1.157a1.157 1.157 0 0 1-.22.434c-.035.058-.075.104-.087.127a.305.305 0 0 1-.075.076l-3.905-2.84a.213.213 0 0 1 .04-.082l.087-.121c.099-.144.222-.27.365-.37a.671.671 0 0 1 .376-.11c.16.023.314.08.451.167.191.122.544.359 1.065.735l.283.208c.63.457 1.041.77 1.238.943.15.117.272.265.359.434.043.12.051.251.023.376v.023ZM17.217 64.72c.308-.127.646-.159.972-.094l.34.035.435.052a4.731 4.731 0 0 0 1.076-.058l.185-2.086c-.243.243-.793.336-1.649.278h-.416c-.914-.052-1.522.192-1.811.725a1.79 1.79 0 0 0-.671-.783 2.312 2.312 0 0 0-1.088-.33 2.432 2.432 0 0 0-.943.081c-.268.08-.51.228-.706.429a1.886 1.886 0 0 0-.381.701c-.112.47-.181.95-.209 1.432l-.179 2.01 7.602.655L19.93 66l-3.049-.273.029-.365a.777.777 0 0 1 .307-.643Zm-1.736.665a.653.653 0 0 1 0 .11.773.773 0 0 0 0 .117l-1.857-.168v-.226c.003-.282.098-.555.272-.777a.932.932 0 0 1 .723-.168 1.023 1.023 0 0 1 .735.301c.144.245.193.533.139.811h-.012ZM24.476 93.105a2.699 2.699 0 0 1-.711.636c-.542.312-1.102.59-1.678.834l-3.766 1.671-.729-1.66 4.385-1.955c.42-.16.812-.389 1.157-.677a.515.515 0 0 0 .035-.579.509.509 0 0 0-.445-.335c-.448.065-.88.208-1.28.422l-4.384 1.956-.717-1.626 4.466-1.996c.372-.177.76-.322 1.157-.434a2.14 2.14 0 0 1 .746-.075c.377.017.737.164 1.018.416.337.326.6.72.77 1.157.182.386.285.806.3 1.233 0 .363-.112.717-.324 1.012ZM122.396 92.303a2.534 2.534 0 0 0-.775-.7 13.702 13.702 0 0 0-1.799-.914 14.893 14.893 0 0 0-1.892-.735 2.524 2.524 0 0 0-1.036-.098 2.098 2.098 0 0 0-1.041.474 3.44 3.44 0 0 0-1.036 2.343c.005.387.124.763.342 1.082.202.293.467.538.775.718.576.348 1.178.654 1.799.913.607.288 1.233.532 1.874.73.341.106.699.14 1.053.098a2.079 2.079 0 0 0 1.042-.475 3.02 3.02 0 0 0 .74-1.064c.192-.395.292-.828.295-1.267a2.079 2.079 0 0 0-.341-1.105Zm-1.273 1.77a.61.61 0 0 1-.509.417 4.502 4.502 0 0 1-1.504-.492l-1.267-.578a4.881 4.881 0 0 1-1.365-.781.715.715 0 0 1-.038-.658.712.712 0 0 1 .518-.407c.52.08 1.023.248 1.487.498l1.267.578c.498.178.961.445 1.365.787a.577.577 0 0 1 .046.636ZM29.689 113.246l1.695 1.515 4.02-5.264-.896-.81-4.819 4.559ZM37.568 107.578l-1.423-1.286-1.383 1.553 1.43 1.281 1.376-1.548ZM101.725 108.139l1.655-1.556 4.153 5.16-.873.828-4.935-4.432ZM109.749 113.612l-1.388 1.321-1.429-1.513 1.4-1.321 1.417 1.513ZM40.773 113.064l1.684.486.063-.179a2.894 2.894 0 0 0-1.11-3.657 3.112 3.112 0 0 0-1.672-.619 2.651 2.651 0 0 0-2.337 1.186 2.638 2.638 0 0 0-.272 2.569 10.8 10.8 0 0 0 .897 1.51c.292.361.49.788.578 1.244a1.068 1.068 0 0 1-.902 1.099 1.015 1.015 0 0 1-.191 0 1.505 1.505 0 0 1-.77-.307c-.729-.515-.88-1.232-.463-2.187l.087-.196-1.7-.608-.07.18c-.694 1.706-.307 3.089 1.157 4.113a3.581 3.581 0 0 0 1.892.723 2.906 2.906 0 0 0 1.662-.44 2.89 2.89 0 0 0 .837-.798 2.629 2.629 0 0 0 .318-2.545 7.89 7.89 0 0 0-.793-1.412 5.586 5.586 0 0 1-.804-1.359.781.781 0 0 1 .133-.695.99.99 0 0 1 .579-.387 1.12 1.12 0 0 1 .781.225c.27.167.463.433.538.741.056.376.014.761-.122 1.116v.197ZM44.17 119.853a1.3 1.3 0 0 1-1.002.613.819.819 0 0 1-.37-.109.93.93 0 0 1-.503-.695 2.566 2.566 0 0 1 .41-1.463l3.356 1.781.092-.179a7.506 7.506 0 0 0 .735-1.955 2.719 2.719 0 0 0-.156-1.597 2.43 2.43 0 0 0-1.157-1.192 2.715 2.715 0 0 0-1.157-.329 2.634 2.634 0 0 0-1.186.237 4.46 4.46 0 0 0-1.996 2.106 4.104 4.104 0 0 0-.578 2.73 2.574 2.574 0 0 0 1.405 1.817 2.82 2.82 0 0 0 1.221.358 2.778 2.778 0 0 0 2.221-1.116l.15-.168-1.382-.983-.104.144Zm.71-3.569c.203.104.793.416.197 1.66l-1.7-.908c.393-.579.78-.874 1.157-.856.122.008.24.044.347.104ZM51.453 117.741a1.457 1.457 0 0 0-.532-.121 1.908 1.908 0 0 0-1.192.411l.301-.729-1.492-.619-2.731 6.577 1.649.683 1.382-3.344c.37-.885.822-1.307 1.389-1.284.17.01.337.051.492.121l.231.116.197.104.7-1.701-.15-.086a1.711 1.711 0 0 0-.244-.128ZM61.456 120.644a2.077 2.077 0 0 0-1.042-.527 2.409 2.409 0 0 0-.387-.052 1.818 1.818 0 0 0-1.435.579 1.585 1.585 0 0 0-1.342-1.221 1.648 1.648 0 0 0-.37-.046 1.738 1.738 0 0 0-1.192.382l.104-.486-1.637-.353-1.493 6.942 1.736.376.856-4.009c.065-.449.233-.877.492-1.25a.615.615 0 0 1 .526-.214c.06-.005.12-.005.18 0a.583.583 0 0 1 .335.18c.078.092.12.209.121.329-.016.36-.07.717-.162 1.065l-.896 4.188 1.735.376.862-4.049c.209-.972.579-1.452 1.03-1.429a.583.583 0 0 1 .145 0c.324.069.393.214.422.318.043.406.006.817-.11 1.209l-.908 4.235 1.735.376.932-4.356a5.667 5.667 0 0 0 .197-1.736 1.58 1.58 0 0 0-.434-.827ZM67.385 121.546a2.428 2.428 0 0 0-1.533-.613H65.8a2.518 2.518 0 0 0-2.117.897 4.495 4.495 0 0 0-.944 2.742c-.12.952.098 1.916.614 2.725a2.618 2.618 0 0 0 2.036 1.07h.058c1.388.064 2.314-.654 2.753-2.129l.064-.208-1.66-.324-.047.185c-.272 1.047-.827 1.036-1.035 1.03a.973.973 0 0 1-.746-.428 2.554 2.554 0 0 1-.232-1.505l3.795.226v-.202a7.589 7.589 0 0 0-.144-2.077 2.696 2.696 0 0 0-.81-1.389Zm-1.672.579v.197a.775.775 0 0 1 .677.399c.155.322.223.679.196 1.035l-1.926-.115c.22-1.354.833-1.325 1.035-1.319v-.197h.018ZM71.048 121.123l-1.782.052.214 5.86c.05.387.027.779-.07 1.157-.266.498-1.087.272-1.087.272l.046 1.336.162.029c.214.041.43.066.648.075h.249c.444.01.878-.131 1.232-.399.304-.231.51-.567.579-.943a8.486 8.486 0 0 0 .057-1.568l-.248-5.871ZM71.013 118.499l-1.856.052.052 1.869 1.857-.052-.053-1.869ZM76.814 121.335a2.466 2.466 0 0 0-1.643-.694 2.724 2.724 0 0 0-.526 0c-1.886.226-2.69 1.585-2.395 4.05.042.987.42 1.929 1.07 2.673.44.437 1.029.691 1.649.711.177.014.355.014.532 0 1.88-.225 2.684-1.602 2.383-4.102a4.186 4.186 0 0 0-1.07-2.638Zm-2.701 3.136a4.426 4.426 0 0 1 .058-1.788.735.735 0 0 1 .63-.578.774.774 0 0 1 .712.353c.305.55.477 1.164.503 1.793a4.565 4.565 0 0 1-.046 1.788.733.733 0 0 1-.648.578h-.15a.728.728 0 0 1-.614-.405 4.773 4.773 0 0 1-.445-1.741ZM81.518 119.427a1.625 1.625 0 0 0-.278.04 1.733 1.733 0 0 0-1.25 1.221l-.167-.77-1.58.353 1.54 6.943 1.735-.382-.781-3.535a2.312 2.312 0 0 1 0-1.417 1.108 1.108 0 0 1 .844-.614c.084-.019.17-.033.255-.04h.226l-.388-1.84-.156.041ZM91.659 116.952a1.643 1.643 0 0 0-.908-.48 1.615 1.615 0 0 0-.295 0c-.285.01-.564.077-.822.197a1.808 1.808 0 0 0-1.047 1.093l-1-2.21-1.626.729 3.737 8.331 1.625-.729-1.648-3.685c-.7-1.574-.099-1.84.098-1.927a.604.604 0 0 1 .26-.063.624.624 0 0 1 .226.046c.07.029.278.179.636.972l1.805 4.049 1.632-.729-1.811-4.049a6.024 6.024 0 0 0-.862-1.545ZM96.716 113.81a2.661 2.661 0 0 0-.862-.144 2.716 2.716 0 0 0-1.394.422 2.546 2.546 0 0 0-1.348 1.938 4.532 4.532 0 0 0 .827 2.725 4.361 4.361 0 0 0 2.077 1.996c.282.102.58.155.88.156a2.739 2.739 0 0 0 1.388-.428 2.53 2.53 0 0 0 1.325-1.956 4.733 4.733 0 0 0-.856-2.771 4.231 4.231 0 0 0-2.037-1.938Zm-1.55 1.527a.665.665 0 0 1 .364-.109.979.979 0 0 1 .446.121c.505.377.915.866 1.197 1.429.338.498.574 1.059.695 1.649a.723.723 0 0 1-.348.792.743.743 0 0 1-.387.122.823.823 0 0 1-.475-.168 4.763 4.763 0 0 1-1.157-1.394 4.293 4.293 0 0 1-.682-1.655.72.72 0 0 1 .347-.787ZM103.86 116.767l-2.69-7.26-1.33 1.018 1.596 3.818-3.234-2.568-1.446 1.099 5.623 4.13c.174.354.282.736.318 1.128a.795.795 0 0 1-.37.521c-.124.09-.253.171-.388.243l-.214.11.914 1.192.139-.064c.238-.097.462-.225.665-.382.303-.211.539-.504.683-.844.111-.295.143-.615.093-.926a6.86 6.86 0 0 0-.359-1.215ZM84.487 125.827l-1.158.301-.497-2.144 2.123-.545.538 1.953s.735 1.924-1.62 2.683l-.22-.776a1.114 1.114 0 0 0 .834-1.472ZM62.248 11.822l1.152.087 1.556-1.905-1.823.226-.885 1.592ZM224.562 59.156c2.948 0 5.099.636 6.454 1.907 1.354 1.26 2.031 3 2.031 5.218 0 1-.151 1.959-.453 2.875a6.3 6.3 0 0 1-1.485 2.422c-.677.709-1.583 1.271-2.718 1.688-1.136.406-2.537.609-4.203.609h-2.079V82h-4.843V59.156h7.296Zm-.25 3.969h-2.203v6.781h1.594c.906 0 1.693-.12 2.359-.36.667-.239 1.183-.614 1.547-1.124.365-.51.547-1.167.547-1.969 0-1.125-.312-1.958-.937-2.5-.625-.552-1.594-.828-2.907-.828Zm19.704-3.969c2.073 0 3.781.25 5.125.75 1.354.5 2.359 1.255 3.015 2.266.656 1.01.985 2.286.985 3.828 0 1.042-.198 1.953-.594 2.734a6.236 6.236 0 0 1-1.563 1.985 9.215 9.215 0 0 1-2.093 1.328L255.609 82h-5.375l-5.453-8.766h-2.578V82h-4.844V59.156h6.657Zm-.344 3.969h-1.469v6.172h1.563c1.604 0 2.75-.266 3.437-.797.698-.542 1.047-1.333 1.047-2.375 0-1.083-.375-1.854-1.125-2.313-.74-.458-1.891-.687-3.453-.687Zm35.547 7.422c0 1.76-.219 3.365-.657 4.812-.437 1.438-1.104 2.678-2 3.72-.885 1.04-2.01 1.843-3.374 2.405-1.365.553-2.98.829-4.844.829-1.865 0-3.479-.276-4.844-.829-1.365-.562-2.495-1.364-3.391-2.406-.885-1.041-1.547-2.286-1.984-3.734-.437-1.448-.656-3.057-.656-4.828 0-2.365.385-4.422 1.156-6.172.781-1.76 1.979-3.125 3.594-4.094 1.614-.969 3.666-1.453 6.156-1.453 2.479 0 4.516.484 6.109 1.453 1.605.969 2.792 2.333 3.563 4.094.781 1.76 1.172 3.828 1.172 6.203Zm-16.672 0c0 1.594.198 2.969.594 4.125.406 1.146 1.036 2.031 1.89 2.656.854.615 1.959.922 3.313.922 1.375 0 2.489-.307 3.344-.922.854-.625 1.473-1.51 1.859-2.656.396-1.156.594-2.531.594-4.125 0-2.396-.448-4.281-1.344-5.656-.896-1.375-2.37-2.063-4.422-2.063-1.365 0-2.479.313-3.344.938-.854.614-1.484 1.5-1.89 2.656-.396 1.146-.594 2.52-.594 4.125Zm31.109-7.688c-.927 0-1.75.183-2.468.547a4.899 4.899 0 0 0-1.797 1.547c-.48.677-.844 1.495-1.094 2.453-.25.959-.375 2.037-.375 3.235 0 1.614.198 2.994.594 4.14.406 1.136 1.031 2.005 1.875 2.61.843.593 1.932.89 3.265.89.927 0 1.854-.104 2.782-.312a26.587 26.587 0 0 0 3.046-.89v4.062c-1.01.416-2.005.713-2.984.89-.979.188-2.078.281-3.297.281-2.354 0-4.292-.484-5.812-1.453-1.511-.979-2.631-2.343-3.36-4.093-.729-1.76-1.093-3.813-1.093-6.157 0-1.729.234-3.312.703-4.75.468-1.437 1.156-2.682 2.062-3.734.906-1.052 2.026-1.865 3.359-2.438 1.334-.572 2.865-.859 4.594-.859 1.136 0 2.271.146 3.406.438 1.146.28 2.24.672 3.282 1.172l-1.563 3.937a25.82 25.82 0 0 0-2.578-1.063 7.686 7.686 0 0 0-2.547-.453ZM317.516 82h-13.157V59.156h13.157v3.969h-8.313v5.016h7.735v3.968h-7.735V78h8.313v4Zm18.265-6.344c0 1.354-.328 2.531-.984 3.531-.656 1-1.615 1.771-2.875 2.313-1.25.542-2.771.813-4.563.813-.791 0-1.567-.053-2.328-.157a16.036 16.036 0 0 1-2.172-.453 13.545 13.545 0 0 1-1.968-.766v-4.5c1.083.48 2.208.912 3.375 1.297 1.166.386 2.323.579 3.468.579.792 0 1.427-.105 1.907-.313.489-.208.843-.495 1.062-.86a2.38 2.38 0 0 0 .328-1.25c0-.572-.192-1.062-.578-1.468-.385-.406-.917-.787-1.594-1.14a63.933 63.933 0 0 0-2.265-1.141c-.532-.25-1.11-.553-1.735-.907a10.162 10.162 0 0 1-1.781-1.328 6.4 6.4 0 0 1-1.39-1.89c-.355-.75-.532-1.646-.532-2.688 0-1.364.313-2.531.938-3.5.625-.969 1.515-1.708 2.672-2.219 1.166-.52 2.541-.78 4.125-.78 1.187 0 2.317.14 3.39.421a20.98 20.98 0 0 1 3.391 1.188l-1.563 3.765a25.816 25.816 0 0 0-2.828-.984 9.17 9.17 0 0 0-2.547-.36c-.604 0-1.119.1-1.546.297-.428.188-.75.459-.969.813-.219.343-.328.744-.328 1.203 0 .541.156 1 .468 1.375.323.365.802.719 1.438 1.062.646.344 1.448.745 2.406 1.204 1.167.552 2.162 1.13 2.985 1.734.833.594 1.473 1.297 1.921 2.11.448.801.672 1.801.672 3Zm24.875-5.11c0 1.761-.218 3.365-.656 4.813-.438 1.438-1.104 2.678-2 3.72-.885 1.04-2.01 1.843-3.375 2.405-1.365.553-2.979.829-4.844.829-1.864 0-3.479-.276-4.843-.829-1.365-.562-2.495-1.364-3.391-2.406-.886-1.041-1.547-2.286-1.985-3.734-.437-1.448-.656-3.057-.656-4.828 0-2.365.386-4.422 1.156-6.172.782-1.76 1.98-3.125 3.594-4.094 1.615-.969 3.667-1.453 6.156-1.453 2.48 0 4.516.484 6.11 1.453 1.604.969 2.792 2.333 3.562 4.094.782 1.76 1.172 3.828 1.172 6.203Zm-16.672 0c0 1.595.198 2.97.594 4.126.406 1.146 1.037 2.031 1.891 2.656.854.615 1.958.922 3.312.922 1.375 0 2.49-.307 3.344-.922.854-.625 1.474-1.51 1.859-2.656.396-1.156.594-2.531.594-4.125 0-2.396-.448-4.281-1.344-5.656-.895-1.375-2.369-2.063-4.422-2.063-1.364 0-2.479.313-3.343.938-.854.614-1.485 1.5-1.891 2.656-.396 1.146-.594 2.52-.594 4.125Zm48.672-.187c0 2.573-.495 4.724-1.484 6.454-.979 1.718-2.401 3.015-4.266 3.89-1.864.865-4.109 1.297-6.734 1.297h-6.469V59.156h7.172c2.396 0 4.474.427 6.234 1.282 1.761.843 3.125 2.098 4.094 3.765.969 1.656 1.453 3.709 1.453 6.156Zm-5.031.125c0-1.687-.25-3.072-.75-4.156-.49-1.094-1.219-1.9-2.187-2.422-.959-.52-2.146-.781-3.563-.781h-2.578V78h2.078c2.365 0 4.12-.63 5.266-1.89 1.156-1.261 1.734-3.136 1.734-5.626ZM410.547 82h-13.156V59.156h13.156v3.969h-8.313v5.016h7.735v3.968h-7.735V78h8.313v4Zm27.078 0-1.656-5.438h-8.328L425.984 82h-5.218l8.062-22.938h5.922L442.844 82h-5.219Zm-2.813-9.5-1.656-5.313a60.39 60.39 0 0 0-.422-1.359c-.166-.562-.338-1.13-.515-1.703a42.119 42.119 0 0 1-.407-1.516c-.104.427-.25.959-.437 1.594-.177.625-.349 1.219-.516 1.781-.166.563-.286.964-.359 1.204l-1.641 5.312h5.953Zm29.876-2.14c0 2.572-.495 4.723-1.485 6.453-.979 1.718-2.401 3.015-4.265 3.89-1.865.865-4.11 1.297-6.735 1.297h-6.469V59.156h7.172c2.396 0 4.474.427 6.235 1.282 1.76.843 3.125 2.098 4.093 3.765.969 1.656 1.454 3.709 1.454 6.156Zm-5.032.124c0-1.687-.25-3.072-.75-4.156-.489-1.094-1.218-1.9-2.187-2.422-.959-.52-2.146-.781-3.563-.781h-2.578V78h2.078c2.365 0 4.12-.63 5.266-1.89 1.156-1.261 1.734-3.136 1.734-5.626ZM479.094 82l-5.5-17.922h-.141l.094 1.938c.052.854.099 1.765.141 2.734.041.969.062 1.844.062 2.625V82h-4.328V59.156h6.594l5.406 17.469h.094l5.734-17.469h6.594V82h-4.516V71.187c0-.718.011-1.546.031-2.484.032-.937.068-1.828.11-2.672l.093-1.922h-.14L483.531 82h-4.437Zm20.515 0V59.156h4.844V82h-4.844Zm24.079-6.344c0 1.354-.329 2.531-.985 3.531-.656 1-1.614 1.771-2.875 2.313-1.25.542-2.771.813-4.562.813a17.12 17.12 0 0 1-2.328-.157 16.036 16.036 0 0 1-2.172-.453 13.513 13.513 0 0 1-1.969-.766v-4.5c1.083.48 2.208.912 3.375 1.297 1.167.386 2.323.579 3.469.579.791 0 1.427-.105 1.906-.313.489-.208.844-.495 1.062-.86a2.38 2.38 0 0 0 .329-1.25c0-.572-.193-1.062-.579-1.468-.385-.406-.916-.787-1.593-1.14a64.916 64.916 0 0 0-2.266-1.141 26.131 26.131 0 0 1-1.734-.907 10.169 10.169 0 0 1-1.782-1.328 6.4 6.4 0 0 1-1.39-1.89c-.354-.75-.532-1.646-.532-2.688 0-1.364.313-2.531.938-3.5.625-.969 1.516-1.708 2.672-2.219 1.167-.52 2.542-.78 4.125-.78 1.187 0 2.318.14 3.391.421 1.083.27 2.213.667 3.39 1.188l-1.562 3.765a25.889 25.889 0 0 0-2.828-.984 9.18 9.18 0 0 0-2.547-.36c-.605 0-1.12.1-1.547.297-.427.188-.75.459-.969.813-.219.343-.328.744-.328 1.203 0 .541.156 1 .469 1.375.323.365.802.719 1.437 1.062.646.344 1.448.745 2.406 1.204 1.167.552 2.162 1.13 2.985 1.734.833.594 1.474 1.297 1.922 2.11.448.801.672 1.801.672 3Zm4.14 6.344V59.156h4.844V82h-4.844Zm31.328-11.453c0 1.76-.218 3.365-.656 4.812-.438 1.438-1.104 2.678-2 3.72-.885 1.04-2.01 1.843-3.375 2.405-1.365.553-2.979.829-4.844.829-1.864 0-3.479-.276-4.843-.829-1.365-.562-2.495-1.364-3.391-2.406-.886-1.041-1.547-2.286-1.985-3.734-.437-1.448-.656-3.057-.656-4.828 0-2.365.386-4.422 1.156-6.172.782-1.76 1.98-3.125 3.594-4.094 1.615-.969 3.667-1.453 6.156-1.453 2.48 0 4.516.484 6.11 1.453 1.604.969 2.792 2.333 3.562 4.094.782 1.76 1.172 3.828 1.172 6.203Zm-16.672 0c0 1.594.198 2.969.594 4.125.406 1.146 1.037 2.031 1.891 2.656.854.615 1.958.922 3.312.922 1.375 0 2.49-.307 3.344-.922.854-.625 1.474-1.51 1.859-2.656.396-1.156.594-2.531.594-4.125 0-2.396-.448-4.281-1.344-5.656-.895-1.375-2.369-2.063-4.422-2.063-1.364 0-2.479.313-3.343.938-.854.614-1.485 1.5-1.891 2.656-.396 1.146-.594 2.52-.594 4.125Zm11.938-18.438v.328c-.302.292-.698.652-1.188 1.079-.489.427-1.015.875-1.578 1.343-.562.459-1.114.901-1.656 1.328-.542.417-1.016.766-1.422 1.047h-3.172v-.422c.344-.395.74-.864 1.188-1.406.458-.552.911-1.12 1.359-1.703.448-.583.823-1.114 1.125-1.594h5.344ZM584.156 82H578l-9.938-17.281h-.14c.042.719.078 1.443.109 2.172l.094 2.187.094 2.172V82h-4.328V59.156H570l9.922 17.11h.109a143.17 143.17 0 0 0-.078-2.11l-.094-2.094-.062-2.093V59.156h4.359V82Zm28.453 0h-15.968v-3.36l5.734-5.796a85.674 85.674 0 0 0 2.781-2.969c.709-.802 1.219-1.531 1.532-2.188.322-.656.484-1.359.484-2.109 0-.906-.255-1.583-.766-2.031-.5-.458-1.172-.688-2.015-.688-.886 0-1.745.203-2.579.61-.833.406-1.703.984-2.609 1.734l-2.625-3.11a24.311 24.311 0 0 1 2.078-1.593c.74-.5 1.594-.901 2.563-1.203.979-.313 2.151-.469 3.515-.469 1.5 0 2.787.271 3.86.813 1.083.541 1.916 1.28 2.5 2.218.583.927.875 1.98.875 3.157 0 1.26-.25 2.411-.75 3.453-.5 1.041-1.229 2.073-2.188 3.094a63.24 63.24 0 0 1-3.437 3.39l-2.938 2.766v.219h9.953V82Zm18.188-11.422c0 1.844-.146 3.49-.438 4.938-.281 1.447-.739 2.677-1.375 3.687a6.268 6.268 0 0 1-2.468 2.313c-1.021.53-2.261.796-3.719.796-1.833 0-3.339-.463-4.516-1.39-1.177-.938-2.047-2.281-2.609-4.031-.563-1.76-.844-3.865-.844-6.313 0-2.469.255-4.578.766-6.328.521-1.76 1.364-3.11 2.531-4.047 1.167-.937 2.724-1.406 4.672-1.406 1.823 0 3.323.469 4.5 1.406 1.187.927 2.068 2.271 2.641 4.031.572 1.75.859 3.865.859 6.344Zm-11.172 0c0 1.74.094 3.193.281 4.36.198 1.156.526 2.025.985 2.609.458.583 1.093.875 1.906.875.802 0 1.432-.287 1.891-.86.468-.583.802-1.453 1-2.609.197-1.166.296-2.625.296-4.375 0-1.74-.099-3.193-.296-4.36-.198-1.166-.532-2.04-1-2.624-.459-.594-1.089-.89-1.891-.89-.813 0-1.448.296-1.906.89-.459.583-.787 1.458-.985 2.625-.187 1.166-.281 2.62-.281 4.36ZM649.234 82h-15.968v-3.36L639 72.845a85.674 85.674 0 0 0 2.781-2.969c.709-.802 1.219-1.531 1.531-2.188.323-.656.485-1.359.485-2.109 0-.906-.255-1.583-.766-2.031-.5-.458-1.172-.688-2.015-.688-.886 0-1.745.203-2.578.61-.834.406-1.704.984-2.61 1.734l-2.625-3.11a24.311 24.311 0 0 1 2.078-1.593c.74-.5 1.594-.901 2.563-1.203.979-.313 2.151-.469 3.515-.469 1.5 0 2.787.271 3.86.813 1.083.541 1.916 1.28 2.5 2.218.583.927.875 1.98.875 3.157 0 1.26-.25 2.411-.75 3.453-.5 1.041-1.229 2.073-2.188 3.094a63.606 63.606 0 0 1-3.437 3.39l-2.938 2.766v.219h9.953V82Zm17.422-17.734c0 1.052-.218 1.963-.656 2.734a5.434 5.434 0 0 1-1.781 1.89c-.74.49-1.573.85-2.5 1.079v.094c1.833.229 3.224.791 4.172 1.687.958.896 1.437 2.094 1.437 3.594 0 1.333-.328 2.526-.984 3.578-.646 1.052-1.646 1.88-3 2.484-1.354.604-3.099.906-5.235.906a18.88 18.88 0 0 1-3.531-.312 13.925 13.925 0 0 1-3.062-.922v-4.11c.979.5 2.005.881 3.078 1.141 1.073.25 2.073.375 3 .375 1.729 0 2.937-.296 3.625-.89.698-.604 1.047-1.448 1.047-2.531 0-.636-.162-1.172-.485-1.61-.323-.437-.885-.77-1.687-1-.792-.229-1.901-.344-3.328-.344h-1.735v-3.703h1.766c1.406 0 2.474-.13 3.203-.39.74-.271 1.24-.636 1.5-1.094.271-.469.406-1 .406-1.594 0-.812-.25-1.448-.75-1.906-.5-.458-1.333-.688-2.5-.688-.729 0-1.396.094-2 .282a8.362 8.362 0 0 0-1.609.656c-.479.25-.901.495-1.266.734l-2.234-3.328c.896-.646 1.943-1.182 3.141-1.61 1.208-.426 2.645-.64 4.312-.64 2.354 0 4.219.474 5.594 1.422s2.062 2.286 2.062 4.016Z"/><defs><linearGradient id="a" x1="-335.674" x2="1061.41" y1="31.119" y2="84.13" gradientUnits="userSpaceOnUse"><stop stop-color="#FF6C0C"/><stop offset="1" stop-color="#F9BE00"/></linearGradient></defs></svg>