<svg xmlns="http://www.w3.org/2000/svg" width="67" height="40" fill="none"><path fill="#fff" d="M66.011 19.52v-3.764a1.279 1.279 0 0 0-1.434-1.435h-5.76v-.444h4.54a1.281 1.281 0 0 0 1.402-1.408V8.933A1.286 1.286 0 0 0 63.33 7.49h-4.52v-.397h5.76a1.293 1.293 0 0 0 1.434-1.448V1.92c0-.91-.499-1.414-1.61-1.428H48.586c-.348.015-.68.153-.935.39a2.094 2.094 0 0 0-.337 1.065v10.319c.016.238.016.476 0 .714a1.495 1.495 0 0 1-.728 1.199 1.772 1.772 0 0 1-1.017.229h-.087a1.441 1.441 0 0 1-1.233-.674 1.981 1.981 0 0 1-.256-1.064V1.894a1.515 1.515 0 0 0-.343-.977 1.536 1.536 0 0 0-.95-.39h-4.782a1.26 1.26 0 0 0-1.294 1.347v.06A7.894 7.894 0 0 0 32.138.587h-7.55a1.28 1.28 0 0 0-1.435 1.428v1.96-.242a4.715 4.715 0 0 0-1.704-2.62A5.294 5.294 0 0 0 18.081 0a5.617 5.617 0 0 0-3.367 1.092 5.798 5.798 0 0 0-1.967 2.418 9.61 9.61 0 0 0-.741 3.778c.013.515.062 1.028.148 1.536a5.24 5.24 0 0 0-1.495-2.02 4.196 4.196 0 0 0-2.614-.883 5.18 5.18 0 0 0-4.91 6.735c.244.76.618 1.47 1.105 2.102a3.066 3.066 0 0 0-1.037-.189c-.342.004-.68.06-1.004.169A3.038 3.038 0 0 0 .57 15.99a3.179 3.179 0 0 0 .074 3.732 3.2 3.2 0 0 0-.357 3.247 3.28 3.28 0 0 0 2.89 1.912h.1c.286-.002.57-.045.843-.128.067 0 .128-.067.188-.094a8.549 8.549 0 0 0-1.09 1.933 4.883 4.883 0 0 0-.196 3.045 5.172 5.172 0 0 0 3.085 3.536 4.755 4.755 0 0 0 1.879.397 4.48 4.48 0 0 0 4.203-2.903c-.088.466-.149.936-.182 1.408-.02 1.144.156 2.283.519 3.368a5.792 5.792 0 0 0 2.64 3.287c.872.52 1.868.794 2.883.794.603 0 1.202-.091 1.778-.269a4.775 4.775 0 0 0 2.957-2.485c.19-.43.318-.883.384-1.348v2.21a1.274 1.274 0 0 0 1.414 1.407h7.975c.378.006.756-.012 1.132-.053a7.51 7.51 0 0 0 2.963-1.004 1.656 1.656 0 0 0 1.347 1.091h12.798a1.751 1.751 0 0 0 1.347-.983l.674-1.967h4.802l.674 1.98a1.677 1.677 0 0 0 1.347.97h5.173c.209-.004.414-.057.599-.155 0 0 .04-.04.067-.054a1.2 1.2 0 0 0 .398-.323c.052-.108.087-.224.1-.343.058-.221.058-.453 0-.674a.74.74 0 0 0 0-.128l-6.58-16.387h5.321a1.273 1.273 0 0 0 1.293-1.49Zm-20.307 1.853a10.103 10.103 0 0 0 4.25-.93 8.043 8.043 0 0 0 1.63-.99v.102l-4.97 12.656h-2.695V21.225c.59.097 1.187.147 1.785.148ZM30.38 7.141h.41c.265-.013.53-.013.795 0a.89.89 0 0 1 .815.842 1.092 1.092 0 0 1-.283 1.01.903.903 0 0 1-.633.25h-1.104V7.14Zm-7.288 25.69c-.074-.33-.169-.674-.263-.998l-.141-.484a25.825 25.825 0 0 1-.472-2.129 29.508 29.508 0 0 1-.384-2.633c-.054-.52-.08-1.045-.108-1.563v-.445c-.043-.817-.03-1.636.04-2.451.017-.265.048-.528.095-.788a1.415 1.415 0 0 0-.546-1.395 1.273 1.273 0 0 0-.626-.175c-.26.017-.51.1-.727.243l-.499.336c-.363.25-.727.499-1.077.761a1.542 1.542 0 0 0-1.146-.902 15.652 15.652 0 0 0-2.242-.175h-.714c-.733.005-1.464.062-2.19.168a13.135 13.135 0 0 0-3.596 1.078c.229-.169.451-.357.673-.512a1.394 1.394 0 0 0 .586-1.05 1.347 1.347 0 0 0-.613-1.031l-.572.95.209-1.213c-.06-.04-.122-.108-.182-.155.908.41 1.862.711 2.842.896.888.17 1.79.26 2.694.27h.903a17.558 17.558 0 0 0 2.223-.183 1.347 1.347 0 0 0 1.07-.801v-.222c.533.404 1.058.862 1.597 1.192.222.151.48.24.748.256.239-.009.471-.08.673-.209a1.475 1.475 0 0 0 .499-1.347 10.95 10.95 0 0 1-.162-1.825c0-.613 0-1.233.054-2.203 0-.31 0-.62.087-1.084.088-.782.182-1.563.317-2.338.2-1.136.463-2.26.788-3.367.095-.363.162-.732.202-1.105v27.003c-.034-.148-.007-.243-.04-.37Zm8.897-.19H30.18v-1.016h1.677c.384 0 .471.168.498.222.088.188.08.431-.364.795Zm4.587-12.837a7.335 7.335 0 0 0-1.785-.815c-.249-.074-.552-.06-.815-.115a8.465 8.465 0 0 0-1.576-.222h-2.02v-2.735h1.946a7.827 7.827 0 0 0 4.405-1.468 8.256 8.256 0 0 0 1.159 3.024c.273.43.59.832.943 1.2h-.842a1.237 1.237 0 0 0-1.415 1.13Z"/><path fill="#802360" d="M37.641 35.521a5.503 5.503 0 0 1-1.003 1.05 6.19 6.19 0 0 1-3.14 1.287c-.328.034-.659.048-.99.04H24.54c-.31 0-.31 0-.31-.296V1.946c0-.317 0-.317.33-.317h7.545a6.736 6.736 0 0 1 4.142 1.38 5.49 5.49 0 0 1 1.293 1.348.418.418 0 0 0 .168.175V1.809c0-.134.054-.188.196-.188h4.768c.142 0 .196.054.19.189V12.654c-.017.577.13 1.147.423 1.644a2.56 2.56 0 0 0 2.088 1.239 2.97 2.97 0 0 0 1.772-.384 2.626 2.626 0 0 0 1.246-2.02 6.26 6.26 0 0 0 .04-.87V1.945c.004-.061.004-.122 0-.182 0-.121.061-.169.175-.162h3.847c3.98-.047 7.968 0 11.948 0h.182c.31 0 .323 0 .323.317v3.724c0 .337 0 .337-.33.337h-6.553c-.31 0-.31 0-.31.31v2.02c0 .203.06.263.27.263h5.388c.316 0 .323 0 .323.33v3.537c0 .29 0 .296-.296.296h-5.342c-.31 0-.31 0-.31.316v2.062c0 .282 0 .283.277.283h6.594c.323 0 .323 0 .323.323v3.765c0 .296 0 .296-.31.296h-6.796c-.121 0-.148.047-.1.162.12.303.242.613.37.916.7 1.751 1.405 3.502 2.115 5.254l4.344 10.844c.101.263.202.518.316.768.061.141 0 .182-.127.182h-5.173a.236.236 0 0 1-.256-.203l-.856-2.525a.263.263 0 0 0-.296-.223h-5.947a.27.27 0 0 0-.297.223c-.283.842-.572 1.67-.855 2.512a.263.263 0 0 1-.297.222H37.978c-.256 0-.263 0-.263-.262v-1.913a.33.33 0 0 0-.074-.216Zm14.993-18.987-.148.236a6.736 6.736 0 0 1-2.997 2.694 9.363 9.363 0 0 1-6.46.465c-.235-.061-.249-.054-.249.202v12.911c0 .203.054.256.25.256h4.108a.297.297 0 0 0 .323-.222c.741-1.913 1.496-3.819 2.243-5.725l2.91-7.41a.91.91 0 0 0 .068-.356v-2.85a.256.256 0 0 0-.048-.201Zm-14.926-4.661c-.262.323-.505.673-.78.923a6.668 6.668 0 0 1-4.642 2.02h-2.748c-.256 0-.262 0-.262.263v4.452c0 .195.06.25.256.25h2.849a7.09 7.09 0 0 1 2.094.289 5.159 5.159 0 0 1 2.614 1.684c.212.278.408.568.586.869v-2.52c0-.316 0-.316.323-.316h4.547l-.337-.135a6.883 6.883 0 0 1-3.368-2.761 7.409 7.409 0 0 1-1.132-4.156v-.862Zm-8.432-3.664v1.94c0 .154.04.228.215.228h2.02a2.02 2.02 0 0 0 1.348-.552 2.223 2.223 0 0 0 .626-1.926 2.02 2.02 0 0 0-1.812-1.84c-.72-.073-1.454 0-2.175 0-.196 0-.25.068-.25.25.028.606.027 1.253.027 1.9Zm-.21 23.91v1.435c0 .128 0 .21.176.21h2.795a1.468 1.468 0 0 0 1.253-.742 1.603 1.603 0 0 0-1.394-2.465h-2.607c-.162 0-.229.047-.222.216.006.43 0 .922 0 1.347Zm1.557-8.425h-1.348c-.14 0-.201.04-.201.195v2.694c0 .142.047.202.195.195h2.425c.397.008.783-.136 1.077-.404a1.53 1.53 0 0 0 .411-1.576 1.347 1.347 0 0 0-1.105-1.057 7.69 7.69 0 0 0-1.454-.047Zm24.537 1.845a1.03 1.03 0 0 0-.067.142l-1.812 5.105c-.06.162-.04.23.148.23h3.482c.149 0 .203 0 .142-.19a689.225 689.225 0 0 1-1.401-3.92c-.155-.444-.317-.882-.492-1.367ZM37.648 29.91v-3.73a4.849 4.849 0 0 1-1.751 2.02c-.095.067-.108.108 0 .161a5.01 5.01 0 0 1 1.75 1.55Z"/><path fill="#22234A" d="m60.178 26.149-2.115-5.254c-.128-.303-.236-.62-.37-.916-.135-.296-4.964-.519-5.079 0l-2.91 7.41c-.747 1.905-1.502 3.812-2.243 5.724a.296.296 0 0 1-.323.223H43.03c-.196 0-.25-.054-.25-.256V20.12c0-.255.06-.37-.384-.343h-4.405c-.323 0-.323 0-.323.317v2.519a8.88 8.88 0 0 0-.586-.87 5.158 5.158 0 0 0-2.613-1.683 7.091 7.091 0 0 0-2.095-.29h-2.85c-.107 0-3.9.095-5.293.06v17.783c0 .296 0 .296.31.296h7.968c.33.007.66-.007.99-.04a6.19 6.19 0 0 0 3.139-1.287c.379-.304.716-.657 1.003-1.05a.33.33 0 0 1 0 .208v1.94c0 .256 0 .263.263.263H50.7a.263.263 0 0 0 .297-.222c.283-.842.572-1.671.855-2.513a.27.27 0 0 1 .296-.222h5.948a.269.269 0 0 1 .296.222l.856 2.526a.236.236 0 0 0 .256.202h5.172c.142 0 .189-.04.128-.182-.114-.25-.208-.505-.316-.768l-4.31-10.837Zm-30.91-2.445h1.348c.483-.028.968-.01 1.448.054a1.347 1.347 0 0 1 1.105 1.057 1.529 1.529 0 0 1-.411 1.576c-.295.268-.68.412-1.078.404h-2.425c-.148 0-.195-.053-.195-.195v-2.694c.007-.162.067-.209.209-.202Zm4.042 9.308a1.47 1.47 0 0 1-1.253.741h-2.795c-.148 0-.175-.08-.175-.209V30.763c0-.169.054-.223.222-.216h2.607a1.603 1.603 0 0 1 1.374 2.465h.02Zm4.358-3.091a5.013 5.013 0 0 0-1.745-1.516c-.114-.054-.1-.094 0-.161a4.85 4.85 0 0 0 1.752-2.021l-.007 3.698Z"/><path fill="#fff" d="M55.16 25.556a1.023 1.023 0 0 0-.067.141l-1.812 5.106c-.061.161-.04.229.148.229h3.482c.148 0 .202 0 .142-.189a681.583 681.583 0 0 1-1.401-3.92c-.155-.444-.317-.882-.492-1.367Z"/><path fill="#F6C12E" d="M13.07 7.251a8.527 8.527 0 0 1 .673-3.368 4.823 4.823 0 0 1 1.597-1.966 4.567 4.567 0 0 1 2.694-.876 4.19 4.19 0 0 1 2.694.876 3.584 3.584 0 0 1 1.347 2.02 5.658 5.658 0 0 1-.168 3.031 31.31 31.31 0 0 0-.815 3.516c-.155.849-.25 1.711-.343 2.566-.054.438-.068.883-.095 1.348a19.012 19.012 0 0 0 0 1.96c0 .677.059 1.353.175 2.02 0 .074.047.162 0 .21-.047.046-.148 0-.215-.062a21.351 21.351 0 0 1-2.876-2.155 16.078 16.078 0 0 1-2.277-2.505 12.497 12.497 0 0 1-1.462-2.533 9.967 9.967 0 0 1-.929-4.082ZM13.07 32.085a10.104 10.104 0 0 1 1.185-4.674 14.216 14.216 0 0 1 1.933-2.802c.815-.92 1.717-1.76 2.695-2.506.545-.417 1.124-.781 1.69-1.172.04 0 .088-.067.142 0 .053.068.06.115.047.182-.061.318-.102.64-.122.963a17.617 17.617 0 0 0-.04 2.6c.034.674.06 1.347.135 2.021.094.916.222 1.832.397 2.741.142.741.296 1.475.492 2.203.135.478.283.956.397 1.441a4.715 4.715 0 0 1-.27 3.2 3.661 3.661 0 0 1-2.29 1.913 4.64 4.64 0 0 1-3.785-.418 4.755 4.755 0 0 1-2.142-2.694 9.062 9.062 0 0 1-.464-2.998ZM14.598 18.312a13.15 13.15 0 0 1-2.963-.243 11.312 11.312 0 0 1-3.624-1.286 9.013 9.013 0 0 1-2.694-2.344 6.587 6.587 0 0 1-1.159-2.095A4.042 4.042 0 0 1 7.304 7.07a3.22 3.22 0 0 1 2.64.586 4.48 4.48 0 0 1 1.462 2.156 17.03 17.03 0 0 0 1.394 2.89 22.966 22.966 0 0 0 2.337 3.293 10.957 10.957 0 0 0 2.02 1.946c.055 0 .142.054.115.142-.027.087-.1.06-.161.067-.831.13-1.672.184-2.513.162ZM14.599 21.148c.822-.022 1.645.03 2.458.155h.135c.047 0 .108 0 .121.06.014.061-.047.082-.08.109a11.451 11.451 0 0 0-2.506 2.471 22.495 22.495 0 0 0-2.62 4.042c-.33.673-.58 1.347-.85 2.02a3.625 3.625 0 0 1-2.181 2.243 3.543 3.543 0 0 1-2.587-.107 4.04 4.04 0 0 1-2.438-2.802 3.84 3.84 0 0 1 .148-2.365 8.23 8.23 0 0 1 2.957-3.751 11.148 11.148 0 0 1 5.065-1.94 14.047 14.047 0 0 1 2.378-.135ZM3.135 23.785a2.162 2.162 0 0 1-1.872-1.233 2.121 2.121 0 0 1 .336-2.304c.133-.146.28-.279.438-.397.108-.087.108-.141 0-.229a2.27 2.27 0 0 1-.943-1.495 2.068 2.068 0 0 1 .364-1.516 1.98 1.98 0 0 1 1.05-.808 2.156 2.156 0 0 1 2.082.438c.332.294.645.609.936.943.812.797 1.694 1.52 2.634 2.162.141.094.262.209.41.296.149.088.095.135 0 .196-.579.383-1.131.801-1.67 1.239a15.64 15.64 0 0 0-1.825 1.71c-.357.423-.823.74-1.347.917-.193.053-.393.08-.593.08Z"/></svg>