<svg xmlns="http://www.w3.org/2000/svg" width="auto" height="45" fill="none" viewBox="0 0 122 45"><path fill="#fff" fill-rule="evenodd" stroke="#fff" stroke-linecap="round" stroke-linejoin="round" stroke-width=".2" d="M19.602 44.084a.601.601 0 0 1-.432-.183L1.177 25.521A.596.596 0 0 1 1 25.097c0-.173.063-.34.177-.47L24.325 1.47A.994.994 0 0 1 24.979 1a.87.87 0 0 1 .654.294c.13.191.284.365.458.517L43.875 19.59c.113.115.177.27.177.432a.654.654 0 0 1-.183.438L20.04 43.914a.608.608 0 0 1-.431.17h-.007Z" clip-rule="evenodd"/><path fill="#8A9F94" fill-rule="evenodd" d="M24.972 1.608h.13c.23.319.492.61.786.87l17.549 17.543-23.828 23.455a4772.282 4772.282 0 0 0-17.994-18.38v-.032C9.32 17.332 17.034 9.612 24.756 1.903c.084-.09.156-.188.216-.295Z" clip-rule="evenodd"/><path fill="#fff" fill-rule="evenodd" stroke="#fff" stroke-linecap="round" stroke-linejoin="round" stroke-width=".1" d="M96.391 14.12c.432-.653.831-1.307 1.263-1.929H98.7a49.687 49.687 0 0 0-1.674 2.087l-.635-.157ZM51.364 13.068a2.74 2.74 0 0 1 2.126-.693 2.329 2.329 0 0 1 2.74 2.322c-.25.016-.499.049-.745.098-.046-.21-.098-.419-.144-.654a1.91 1.91 0 0 0-1.485-1.158h-.713a1.904 1.904 0 0 0-1.484.91c-.04.163-.085.326-.138.483a1.648 1.648 0 0 0 1.151 1.616c.57.209 1.152.386 1.734.556a3.2 3.2 0 0 1 1.498.909 2.35 2.35 0 0 1 .229 2.191 2.27 2.27 0 0 1-1.27 1.25 5.48 5.48 0 0 1-2.04.189 2.434 2.434 0 0 1-2.1-1.164 3.885 3.885 0 0 1-.392-1.165h.438l.353-.104c.095.494.334.95.687 1.308.322.254.702.424 1.105.497h.949a2.492 2.492 0 0 0 1.177-.536c.213-.241.364-.531.438-.844a1.786 1.786 0 0 0-.327-1.204 2.615 2.615 0 0 0-1.06-.654c-.614-.17-1.229-.346-1.837-.543a2.355 2.355 0 0 1-1.308-1.085 2.27 2.27 0 0 1 .418-2.525ZM81.746 13.238l.753-.085v1.851h1.713v.654h-1.668c-.11.923 0 1.851-.052 2.78a4.617 4.617 0 0 0 .183 1.799c.262.412.824.314 1.237.281l.333-.144.334-.11c.039.202.072.405.104.608a3.446 3.446 0 0 1-2.034.241 1.308 1.308 0 0 1-.896-1.412v-4.043h-.929v-.654h.929c-.013-.575-.007-1.17-.007-1.766ZM58.553 15.69a2.91 2.91 0 0 1 2.943-.654 2.159 2.159 0 0 1 1.387 1.812c.035.435.035.873 0 1.308h-4.285v.399c.066.3.138.608.223.909a1.963 1.963 0 0 0 1.962 1.04 5.65 5.65 0 0 1 .478-.118 1.418 1.418 0 0 0 .791-1.04c.262.04.51.085.765.138a2.126 2.126 0 0 1-1.694 1.628c-.74.137-1.503.031-2.178-.3a2.727 2.727 0 0 1-1.158-2.172 3.75 3.75 0 0 1 .766-2.95Zm.687.347c-.37.42-.599.947-.655 1.504h3.52v-.654a1.654 1.654 0 0 0-.916-1.256l-.471-.111h-.367c-.41.07-.794.248-1.111.517ZM64.917 15.77a2.95 2.95 0 0 1 3.166-.72 2.053 2.053 0 0 1 1.256 1.818l-.818.144c0-.085 0-.249-.04-.327-.038-.079-.071-.242-.104-.366a3.748 3.748 0 0 0-.451-.57l-.242-.091-.458-.13h-.347c-.5.052-.965.284-1.308.653-.595.752-.517 1.78-.438 2.675.1.45.327.86.654 1.184.28.214.604.362.948.432h.49c.353-.048.683-.198.95-.432.231-.265.387-.588.45-.935l.733.17a2.087 2.087 0 0 1-1.145 1.609 3.447 3.447 0 0 1-1.687.222 2.172 2.172 0 0 1-1.962-1.249 4.035 4.035 0 0 1-.334-1.923c-.03-.78.212-1.546.687-2.165ZM72.661 15.056a3.27 3.27 0 0 1 1.27-.176v.765h-.452a4.329 4.329 0 0 0-1.655.654 2.993 2.993 0 0 0-.078.72v3.976h-.766v-6.017h.654v.451l.099.366c.243-.319.562-.573.928-.739ZM75.65 15.54a2.957 2.957 0 0 1 2.617-.588 1.96 1.96 0 0 1 1.432 1.269 4.5 4.5 0 0 1 .157 1.962h-4.251c0 .281.039.563.072.844.039.117.078.235.11.36.128.305.328.574.583.784.28.172.587.294.91.36a2.25 2.25 0 0 0 1.255-.274c.275-.23.468-.542.55-.89.241.04.49.072.732.118a2.06 2.06 0 0 1-1.818 1.668 3.505 3.505 0 0 1-1.963-.288 2.891 2.891 0 0 1-1.216-2.767 3.09 3.09 0 0 1 .83-2.557Zm.53.517c-.386.398-.604.93-.608 1.485h3.486a2.191 2.191 0 0 0-.484-1.59 2.067 2.067 0 0 0-.961-.444 2.276 2.276 0 0 0-1.433.55ZM87.103 14.965a4.252 4.252 0 0 1 2.028.085 1.472 1.472 0 0 1 .903 1.42v3.55l.117.498h.654v.53c-.425.072-.987.235-1.308-.157-.157-.15-.11-.386-.117-.576a2.565 2.565 0 0 1-2.31.824 1.465 1.465 0 0 1-1.523-1.354 1.87 1.87 0 0 1 .758-1.779 5.057 5.057 0 0 1 2.976-.445v-1.105c-.072-.19-.15-.38-.228-.575a1.892 1.892 0 0 0-1.531-.34l-.366.11a1.401 1.401 0 0 0-.602.923l-.72-.066a1.687 1.687 0 0 1 1.27-1.543Zm-.399 3.637c-.248.299-.368.685-.333 1.072.046.125.085.255.124.38a1.452 1.452 0 0 0 1.681.392 2.31 2.31 0 0 0 1.125-.752v-1.55h-1.563a2.308 2.308 0 0 0-1.034.458ZM93.912 15.057c.41-.143.843-.203 1.276-.177v.844c-.334-.164-.654 0-1.014.039-.42.15-.812.372-1.158.654v1.864c-.032.91 0 1.812 0 2.721h-.765v-6.017h.654c0 .274.066.55.085.83.243-.322.56-.582.922-.758ZM100.237 15.044a4.516 4.516 0 0 1 2.028-.085 1.6 1.6 0 0 1 1.119 1.491v3.807c0 .065.085.203.117.268h.654v.504c-.399.104-.909.242-1.262-.053-.157-.117-.15-.327-.196-.497l-.223.092a3.043 3.043 0 0 1-2.57.523c-1.354-.399-1.354-2.518-.19-3.133a5.311 5.311 0 0 1 2.904-.392v-.988c-.117-.32-.189-.707-.516-.877a2 2 0 0 0-1.609-.039 1.217 1.217 0 0 0-.654.916l-.694-.066a1.538 1.538 0 0 1 1.092-1.471Zm-.51 4.029v.74c.13.268.335.495.589.653.478.076.967.035 1.426-.118.33-.183.64-.402.922-.654v-1.583h-1.642a1.673 1.673 0 0 0-1.282.962h-.013ZM96.411 15.004h.785v6.011h-.785c.013-2.006.013-4.01 0-6.011ZM54.883 23.455h.766c0 2.276-.033 4.579 0 6.835-.04.654 0 1.36 0 2.04h-.654v-.333c0-.085-.072-.261-.099-.346a3.532 3.532 0 0 1-1.197.713c-.726.199-1.5.105-2.158-.262a2.614 2.614 0 0 1-.922-1.818 5.07 5.07 0 0 1 .34-2.872 2.21 2.21 0 0 1 2.073-1.21 2.97 2.97 0 0 1 1.851.523v-3.27Zm-3.152 4.154a4.703 4.703 0 0 0-.262 2.904 1.603 1.603 0 0 0 1.092 1.308 2.688 2.688 0 0 0 2.342-.896v-3.48a5.76 5.76 0 0 0-1.387-.595h-.726a1.688 1.688 0 0 0-1.06.778v-.02ZM77.868 23.435l.726.032v8.863h-.654l-.04-.654a3.428 3.428 0 0 1-1.628.759c-.594.099-1.204-.01-1.727-.308-.824-.582-1.02-1.68-1-2.616a3.696 3.696 0 0 1 .712-2.57c.276-.29.614-.514.988-.655a4.87 4.87 0 0 1 1.687 0c.311.128.611.281.897.458.11-1.079-.014-2.21.039-3.31Zm-2.944 3.832a3.068 3.068 0 0 0-.654 1.753v.825c.112.654.19 1.367.772 1.746a2.25 2.25 0 0 0 2.793-.726c.066-.602 0-1.217 0-1.825.036-.544.01-1.09-.078-1.629a5.636 5.636 0 0 0-1.413-.575h-.615c-.301.072-.578.22-.805.431ZM112.148 23.487h1.08c-.589.654-1.132 1.394-1.701 2.093l-.582-.15c.36-.68.817-1.295 1.203-1.943ZM106.687 23.611a.794.794 0 0 1 .771.15.733.733 0 0 1 0 .845c-.183.274-.569.163-.837.163a.657.657 0 0 1-.204-.932.65.65 0 0 1 .27-.226ZM67.344 23.795h4.827v.654h-4.082v3.212c1.256.104 2.525 0 3.78.039v.654h-3.78v3.33c1.393.104 2.8 0 4.193.045v.654h-4.938c.013-2.878.013-5.74 0-8.588ZM58.677 26.68a3.153 3.153 0 0 1 2.355-.439 1.963 1.963 0 0 1 1.485 1.308c.175.614.224 1.257.143 1.89h-4.297c0 .099 0 .295.04.387.045.196.078.386.104.582.104.403.333.762.654 1.027.4.223.85.347 1.308.36.358-.055.697-.197.988-.413.194-.214.333-.472.405-.752l.746.092c-.033.11-.059.229-.085.346a2.125 2.125 0 0 1-1.59 1.308 3.053 3.053 0 0 1-2.433-.49 2.833 2.833 0 0 1-.902-2.08 3.27 3.27 0 0 1 0-1.014 2.843 2.843 0 0 1 1.079-2.113Zm.163.843a4.12 4.12 0 0 0-.497 1.23l.164.059c1.132.059 2.263 0 3.395 0-.03-.365-.081-.727-.15-1.086a1.962 1.962 0 0 0-.505-.654 1.773 1.773 0 0 0-2.407.412v.04ZM89.118 26.26c.811-.117 1.792-.163 2.427.465.398.384.632.906.654 1.459l-.798.118a1.877 1.877 0 0 0-.432-1.086 1.964 1.964 0 0 0-.778-.393 2.349 2.349 0 0 0-1.544.465 2.616 2.616 0 0 0-.654 1.308c-.03.468-.03.938 0 1.406a1.96 1.96 0 0 0 2.093 1.845 1.833 1.833 0 0 0 1.276-.811l.143-.576.746.157a2.113 2.113 0 0 1-1.504 1.78c-.962.156-2.1.17-2.832-.583-.812-.883-.838-2.184-.707-3.27a2.538 2.538 0 0 1 1.91-2.283ZM94.383 26.613a2.8 2.8 0 0 1 1.963-.405 1.65 1.65 0 0 1 1.308.523c.294.4.44.89.412 1.387v3.08a2.1 2.1 0 0 0 .091.654h.654v.497a1.504 1.504 0 0 1-1.177 0c-.275-.156-.288-.516-.373-.778 0 .262-.222.386-.399.504a3.12 3.12 0 0 1-2.367.307c-.883-.274-1.132-1.36-.883-2.158a1.812 1.812 0 0 1 1.308-1.19 7.763 7.763 0 0 1 2.367-.158v-.857a3.22 3.22 0 0 0-.248-.745 1.764 1.764 0 0 0-.563-.412 2.479 2.479 0 0 0-1.445.183 1.223 1.223 0 0 0-.517.87 5.12 5.12 0 0 1-.765-.15 2.16 2.16 0 0 1 .654-1.12l-.02-.032Zm.197 3.395a1.353 1.353 0 0 0-.197 1.112.935.935 0 0 0 .936.706 2.565 2.565 0 0 0 1.962-.817v-1.557a17.5 17.5 0 0 0-1.76 0 1.89 1.89 0 0 0-.941.556ZM99.995 27.896a2.443 2.443 0 0 1 1.963-1.662 3.27 3.27 0 0 1 1.962.255 1.92 1.92 0 0 1 .889 1.407c0 .078 0 .229.046.307h-.418l-.367.111a2.189 2.189 0 0 0-.373-1.04 1.853 1.853 0 0 0-.824-.451 2.125 2.125 0 0 0-1.779.654 3.27 3.27 0 0 0-.458 2.329 2.232 2.232 0 0 0 .818 1.622 2.007 2.007 0 0 0 2.06.072 1.76 1.76 0 0 0 .654-1.125l.386.137h.347a2.091 2.091 0 0 1-1.648 1.818 3.375 3.375 0 0 1-2.394-.346 2.481 2.481 0 0 1-.87-1.178 5.888 5.888 0 0 1-.118-2.498l.124-.412ZM109.911 26.836a2.661 2.661 0 0 1 1.963-.654 2.394 2.394 0 0 1 1.844.654c.36.427.587.95.654 1.504a6.406 6.406 0 0 1 0 1.695 2.665 2.665 0 0 1-1.308 2.119 3.59 3.59 0 0 1-1.91.255 2.208 2.208 0 0 1-1.825-1.197 3.545 3.545 0 0 1-.346-1.308 4.604 4.604 0 0 1 0-1.125 2.97 2.97 0 0 1 .928-1.943Zm.524.517c-.336.366-.563.82-.654 1.308-.024.436-.024.872 0 1.308.078.268.15.536.228.811.194.394.514.712.91.903.157 0 .307.072.464.117h.726a1.77 1.77 0 0 0 1.105-.732c.379-.782.514-1.66.386-2.518a1.96 1.96 0 0 0-1.033-1.59l-.464-.124h-.602a2.21 2.21 0 0 0-1.086.517h.02ZM117.152 26.902a3.271 3.271 0 0 1 2.865-.602 1.646 1.646 0 0 1 .981 1.59v4.44h-.765v-4.343a1.31 1.31 0 0 0-1.407-1.164l-.817.249-.229.11a6.458 6.458 0 0 0-.85.557v4.578h-.785v-6.004h.7v.654l.307-.065ZM80.615 26.32h.811v4.578a1.216 1.216 0 0 0 .693.811 2.937 2.937 0 0 0 2.42-.72c.19-.13.131-.372.144-.562v-4.101h.766v6.017h-.72v-.817a3.407 3.407 0 0 1-2.701.909 1.38 1.38 0 0 1-1.1-.654 2.427 2.427 0 0 1-.267-1.007c-.046-1.505.013-2.983-.046-4.455ZM106.536 26.32h.765v6.017h-.765c.013-2.015.013-4.02 0-6.018Z" clip-rule="evenodd"/><path fill="#fff" fill-rule="evenodd" d="M14.624 17.718a11.237 11.237 0 0 1 15.286 0l-.549.602a10.544 10.544 0 0 0-6.946-2.767 10.368 10.368 0 0 0-7.195 2.774 8.66 8.66 0 0 1-.596-.609ZM11.747 16.234c.183-.157.32.066.45.164 2.25 2.276 4.54 4.513 6.777 6.802-.15.223-.3.445-.458.654-.425-.36-.804-.772-1.197-1.157-1.792-1.786-3.577-3.585-5.37-5.364-.333-.262-.229-.732-.202-1.099ZM32.213 16.541c.176-.144.333-.458.595-.3.05.29.05.586 0 .876a5.33 5.33 0 0 1-.563.588c-2.053 2.048-4.1 4.108-6.16 6.155-.178-.21-.341-.425-.505-.654 2.172-2.23 4.409-4.434 6.633-6.665Z" clip-rule="evenodd"/><path fill="#fff" fill-rule="evenodd" d="M17.581 20.675a7.018 7.018 0 0 1 9.373 0c-.17.196-.347.399-.53.595a6.338 6.338 0 0 0-4.46-1.563 6.574 6.574 0 0 0-3.873 1.563c-.176-.183-.34-.392-.51-.595ZM11.733 20.858c.219.067.428.162.622.282 1.962 1.223 3.924 2.394 5.815 3.636l-.197.811c-2.106-1.242-4.173-2.564-6.246-3.859 0-.288 0-.582.006-.87ZM31.716 21.433c.33-.253.701-.445 1.099-.569.02.281.02.563 0 .844-.28.227-.58.429-.896.602-1.636 1.02-3.27 2.027-4.906 3.048-.15.081-.308.147-.471.196l-.118-.83c1.753-1.08 3.52-2.192 5.292-3.29ZM18.536 25.718a3.748 3.748 0 0 1 7.463-.177c.04.929 0 1.864 0 2.8.023.423.01.847-.04 1.268a6.133 6.133 0 0 1-1.733.079c-.313 0-.241-.425-.215-.654.209-.301.654-.111.98-.164l.177-.19v-2.753a2.904 2.904 0 0 0-4.513-2.427 3.08 3.08 0 0 0-1.308 2.414c-.04.935 0 1.87 0 2.806.3.235.693.118 1.046.17.354.052.23.575.053.746-.55.053-1.103.064-1.655.032-.288 0-.222-.353-.236-.543-.02-1.125-.045-2.27-.02-3.407ZM11.727 25.084c.576.121 1.146.272 1.707.451l4.579 1.308v.844c-2.093-.556-4.154-1.203-6.234-1.779a4.72 4.72 0 0 1-.052-.824ZM31.663 25.371c.375-.127.76-.22 1.152-.274.013.266 0 .534-.04.798-1.726.556-3.486 1.014-5.232 1.537a6.836 6.836 0 0 1-1.02.255v-.824c1.72-.504 3.433-.994 5.14-1.492Z" clip-rule="evenodd"/><path fill="#fff" fill-rule="evenodd" d="M19.903 26.268h.818v1.15c.333.217.797.053 1.183.125 0 .654.04 1.354 0 2.028-.242.137-.542 0-.804 0V28.3h-1.17c-.04-.673-.034-1.327-.027-2.033ZM23.808 26.28h.817c0 .654.046 1.348 0 2.021a6.98 6.98 0 0 1-1.17.066v1.308h-.805v-2.1h1.145c.056-.43.06-.864.013-1.295Z" clip-rule="evenodd"/><path fill="#fff" fill-rule="evenodd" d="M21.093 26.358h2.381v.805H21.14l-.046-.805ZM11.727 28.884c2.086-.04 4.173 0 6.266 0v.817h-6.161c-.177-.248-.079-.562-.105-.817ZM26.522 28.89c1.485-.06 2.97 0 4.461 0h1.825v.765c-1.308.091-2.675 0-4.01.039-.745 0-1.49.04-2.236 0a2.616 2.616 0 0 1-.04-.805Z" clip-rule="evenodd"/></svg>