<svg xmlns="http://www.w3.org/2000/svg" width="auto" height="46" fill="none" viewBox="0 0 86 46"><path fill="#fff" d="M82.79 35.61a1.16 1.16 0 0 0 .123-.302v-.188a1.483 1.483 0 0 0 0-.205.807.807 0 0 0 0-.155 1.255 1.255 0 0 0 0-.245 1.04 1.04 0 0 0-.057-.172l-.05-.09a1.774 1.774 0 0 0-.171-.237 1.325 1.325 0 0 0-.344-.229 2.11 2.11 0 0 0-.302-.123l-.327-.065a1.764 1.764 0 0 0-.352 0c-.218 0-.435.03-.645.09-.11.031-.217.072-.319.123a1.112 1.112 0 0 0-.523-.156h-1.52c-.268 0-.526.096-.728.27l-.082.09a2.152 2.152 0 0 0-.458-.22 3.27 3.27 0 0 0-.98-.14h-.818c-.27 0-.53.096-.736.27a1.006 1.006 0 0 0-.122.139 1.112 1.112 0 0 0-.523-.335 1.021 1.021 0 0 0-.327-.05h-.548c-.117.001-.233.02-.343.058a1.022 1.022 0 0 0-.507.352c-.058.082-.107.17-.147.261a2.232 2.232 0 0 0-.818-.49 3.268 3.268 0 0 0-.98-.14h-.777a1.12 1.12 0 0 0-.49.123l-.14-.065a1.3 1.3 0 0 0-.27-.057h-.514a1.111 1.111 0 0 0-.27.057.94.94 0 0 0-.205.098 1.895 1.895 0 0 0-.286-.114l-.327-.066a1.705 1.705 0 0 0-.351 0c-.218 0-.436.03-.646.09a1.815 1.815 0 0 0-.638.327 1.196 1.196 0 0 0-.27-.18 1.992 1.992 0 0 0-.588-.155h-1.242c-.153 0-.304.033-.442.098a.957.957 0 0 0-.392-.098h-1.512a1.007 1.007 0 0 0-.32.057 1.081 1.081 0 0 0-.244-.057h-.515c-.127.006-.251.034-.368.082a.956.956 0 0 0-.466.376 1.12 1.12 0 0 0-.499-.393 1.28 1.28 0 0 0-.327-.065h-.515a.597.597 0 0 1-.49 0h-.515a.966.966 0 0 0-.368.106 1.16 1.16 0 0 0-.384-.106h-.466a1.11 1.11 0 0 0-.343.09.882.882 0 0 0-.278.172 1.342 1.342 0 0 0-.425-.197 1.764 1.764 0 0 0-.377 0H53.6c-.18.005-.356.05-.515.131l-.148-.073a1.375 1.375 0 0 0-.27-.058h-.506a1.289 1.289 0 0 0-.278.058c-.153.05-.292.134-.409.245a1.202 1.202 0 0 0-.4-.245 1.31 1.31 0 0 0-.27-.058h-.515a.958.958 0 0 0-.27.058.98.98 0 0 0-.498.343c-.042.07-.078.144-.107.22a.973.973 0 0 0-.343-.44 1.072 1.072 0 0 0-.564-.18h-1.52a1.103 1.103 0 0 0-.728.27l-.082.089a2.153 2.153 0 0 0-.457-.22 3.27 3.27 0 0 0-.981-.14h-.818a1.12 1.12 0 0 0-.736.27 1.097 1.097 0 0 0-.36.818v1.634a1.079 1.079 0 0 0-.604-.204h-.041v-1.537a1.013 1.013 0 0 0-.245-.637 1.135 1.135 0 0 0-.442-.295 1.286 1.286 0 0 0-.278-.057H40.7c-.091.01-.182.029-.27.057a1.063 1.063 0 0 0-.473.32 1.178 1.178 0 0 0-.859-.385h-.45a1.12 1.12 0 0 0-.343.057 1.022 1.022 0 0 0-.506.352.924.924 0 0 0-.123.22l-.074-.09a1.717 1.717 0 0 0-.53-.351 1.996 1.996 0 0 0-.59-.155H35.266a.964.964 0 0 0-.434.098 1.028 1.028 0 0 0-.4-.098h-1.504a1.111 1.111 0 0 0-.483.122 1.115 1.115 0 0 0-.376-.106h-.465c-.122.011-.24.042-.352.09a.818.818 0 0 0-.27.172 1.265 1.265 0 0 0-.425-.197 1.753 1.753 0 0 0-.368 0h-.335a1.103 1.103 0 0 0-.458.107.924.924 0 0 0-.408-.107h-1.513c-.223.002-.44.073-.62.205l-.287-.123-.409-.098a3.273 3.273 0 0 0-.507 0 2.748 2.748 0 0 0-.98.164c-.306.119-.585.3-.818.53-.2.206-.357.448-.466.712v-.36a.973.973 0 0 0-.147-.523 1.153 1.153 0 0 0-.425-.368 1.114 1.114 0 0 0-.376-.106h-.466a1.17 1.17 0 0 0-.351.09c-.1.041-.19.1-.27.172a1.298 1.298 0 0 0-.417-.197 1.762 1.762 0 0 0-.376 0h-.327c-.17.002-.339.044-.49.123a1.013 1.013 0 0 0-.287-.752c-.14-.13-.312-.22-.498-.261a1.643 1.643 0 0 0-.376 0h-.368c-.1.007-.198.024-.294.049-.124.042-.242.1-.352.171a.891.891 0 0 0-.204.188l-.433.49a1.067 1.067 0 0 0-.14.213 2.02 2.02 0 0 0-.22.14 1.218 1.218 0 0 0-.417-.27 1.286 1.286 0 0 0-.278-.058h-.507a.958.958 0 0 0-.27.057.663.663 0 0 0-.171.082.813.813 0 0 0-.147-.065l-.344-.09a2.232 2.232 0 0 0-.408 0 2.452 2.452 0 0 0-.916.171 2.406 2.406 0 0 0-.376.205l-.163-.106a1.796 1.796 0 0 0-.336-.148l-.343-.09a2.232 2.232 0 0 0-.409 0 2.452 2.452 0 0 0-.915.172 1.72 1.72 0 0 0-.27.147l-.09-.09a1.07 1.07 0 0 0-.564-.18H8.134c-.27 0-.53.096-.736.27-.057 0-.09-.073-.155-.098a1.995 1.995 0 0 0-.589-.155H5.436c-.17.004-.338.046-.49.123l-.139-.066a1.315 1.315 0 0 0-.27-.057h-.515a1.112 1.112 0 0 0-.27.057.981.981 0 0 0-.433.286 2.717 2.717 0 0 0-.441-.204 3.215 3.215 0 0 0-.973-.14h-.817A1.07 1.07 0 0 0 0 35.242v2.65a1.071 1.071 0 0 0 1.087 1.103h.727c.324.006.646-.038.957-.13.176-.056.346-.13.506-.221.12.129.268.227.434.286.09.032.183.054.278.065h.515a1.297 1.297 0 0 0 .384-.114l.106.049c.087.031.178.053.27.065h.515c.095-.011.188-.033.278-.065a.816.816 0 0 0 .27-.131l.22.123c.113.042.231.067.352.073h.474c.11-.01.22-.032.327-.065.123.043.253.065.384.065h1.52c.198-.007.39-.066.556-.171l.074-.074c.083.053.17.1.261.139.283.103.582.156.883.155.155.014.311.014.466 0l.392-.106c.108-.04.212-.089.311-.147a.466.466 0 0 0 .106-.066c.121.081.25.15.385.205.285.103.587.155.89.155.156.013.311.013.466 0 .13-.028.259-.064.385-.106h.106l.155.073c.09.033.183.055.278.066h.507c.095-.011.188-.033.278-.066a.99.99 0 0 0 .368-.228c.132.08.272.15.417.204.298.094.61.141.923.139.332.004.662-.055.973-.172.13-.058.256-.126.376-.204.097.098.21.179.335.237.102.044.21.075.32.09h.506c.104-.013.206-.04.302-.082a.934.934 0 0 0 .335-.212c.133.114.29.198.458.245.125.034.255.05.384.049h.262c.122-.002.242-.018.36-.05.156-.053.3-.136.425-.244a1.134 1.134 0 0 0 .36-.834v-.172c.11.25.262.48.45.679.126.124.27.23.424.318l-.343.393a1.059 1.059 0 0 0-.14.212 2.05 2.05 0 0 0-.637.483 1.353 1.353 0 0 0-.188-.352 1.103 1.103 0 0 0-.45-.294 1.25 1.25 0 0 0-.277-.066h-.515a1.306 1.306 0 0 0-.27.066 1.04 1.04 0 0 0-.376.229 2.27 2.27 0 0 0-.425-.205 2.858 2.858 0 0 0-.907-.139 2.607 2.607 0 0 0-.973.172 2.193 2.193 0 0 0-.384.212 1.214 1.214 0 0 0-.287-.228 1.342 1.342 0 0 0-.375-.098h-.475a.974.974 0 0 0-.343.09c-.1.04-.194.094-.278.163a1.186 1.186 0 0 0-.425-.196 1.333 1.333 0 0 0-.368-.05h-.335a1.161 1.161 0 0 0-.556.164l-.196-.082a2.12 2.12 0 0 0-.343-.09 2.232 2.232 0 0 0-.409 0c-.314.001-.625.062-.916.18a1.63 1.63 0 0 0-.261.14l-.09-.082a1.023 1.023 0 0 0-.572-.188h-1.512a1.375 1.375 0 0 0-.32.057 1.096 1.096 0 0 0-.318-.057H7.684a.956.956 0 0 0-.604.212 1.12 1.12 0 0 0-.311.417c-.036.092-.06.188-.074.286a2.2 2.2 0 0 0 0 .254v.204c.02.11.047.22.082.327.06.15.156.285.278.392.141.11.306.186.482.22v1.554c.002.224.08.44.22.613.128.143.288.253.467.319.09.028.183.048.278.057h.515a1.03 1.03 0 0 0 .67-.319c.021.017.04.036.057.058.2.17.456.263.72.261h1.528c.196-.003.386-.062.548-.172 0 0 .049-.049.074-.065.024-.016.171.098.261.13.285.107.587.16.891.156.155.017.311.017.466 0 .132-.02.26-.056.384-.106h.098c.03.011.058.028.082.049.105.041.215.069.327.082h.507c.103-.012.205-.037.302-.074.123-.051.234-.126.327-.22.135.11.29.194.458.245.128.033.26.05.392.049h.262c.12 0 .238-.02.352-.057.158-.046.303-.127.425-.238.14.092.29.166.45.221.294.102.603.151.915.147a2.64 2.64 0 0 0 .972-.171c.142-.064.278-.138.41-.221l.064.074c.202.17.457.262.72.261h1.439c.195 0 .386-.06.547-.172.055.032.112.06.172.082a2.877 2.877 0 0 0 1.888 0c.256-.108.489-.263.687-.458.216.206.472.365.752.466.31.11.636.166.964.164h.336l.327-.05.318-.081.245-.082c.072.048.149.087.23.115.09.03.183.05.277.057h.507c.092-.009.182-.028.27-.057a.99.99 0 0 0 .384-.245c.121.078.25.143.384.196.282.107.582.16.883.155.155.017.311.017.466 0a1.72 1.72 0 0 0 .31-.082.984.984 0 0 0 .287.074h.507a1.063 1.063 0 0 0 .842-.474l.065.106c.137.162.315.283.515.351.103.034.21.051.319.05h.498c.102-.013.201-.04.295-.082.11.038.221.068.335.09.155.013.31.013.466 0 .235 0 .469-.033.694-.098a1.97 1.97 0 0 0 .663-.344c.206-.166.373-.375.49-.613.075-.16.124-.331.147-.507l.245.654-.114.303a1.004 1.004 0 0 0-.082.49 1.06 1.06 0 0 0 .433.728c.14.085.296.141.458.163.093.01.186.01.278 0 .174.006.347-.014.515-.057a1.038 1.038 0 0 0 .736-.662l.67-1.97v.817a.965.965 0 0 0 .196.589 1.095 1.095 0 0 0 .76.4h.516a1.28 1.28 0 0 0 .278-.057.94.94 0 0 0 .465-.319c.136-.176.214-.39.221-.613v-.139H44.976c.09.21.211.406.36.58.223.242.504.422.817.524a2.877 2.877 0 0 0 1.888 0c.141-.064.278-.138.409-.22l.065.073c.2.17.456.264.72.261h1.397a.816.816 0 0 0 .278-.049c.074.025.151.042.23.05h.514a1.3 1.3 0 0 0 .27-.058.989.989 0 0 0 .384-.245c.11.108.24.191.384.245.09.03.184.049.278.057h.515c.092-.01.182-.028.27-.057.151-.057.288-.146.4-.261l.058.057c.2.17.456.264.719.261h1.52c.199-.001.392-.061.556-.171l.074-.066c.084.05.171.094.261.131.283.106.582.158.883.155.158.017.317.017.474 0a1.89 1.89 0 0 0 .385-.106h.098l.081.05c.103.04.21.067.32.08h.514c.101-.011.2-.036.294-.073a.956.956 0 0 0 .336-.22c.134.111.29.194.457.245.128.033.26.05.393.049h.261c.12 0 .239-.02.352-.057a.886.886 0 0 0 .188-.074l.13.066c.09.029.184.048.279.057h.515a1.31 1.31 0 0 0 .27-.058.988.988 0 0 0 .383-.245c.119.078.245.144.376.196.285.107.587.16.892.156.154.017.31.017.465 0 .106-.018.21-.045.311-.082.09.04.188.065.286.074h.507a1.079 1.079 0 0 0 .842-.474l.074.106a1.079 1.079 0 0 0 .833.4h.49c.105-.011.207-.039.303-.082.107.037.216.067.327.09.155.013.311.013.466 0 .235.001.47-.032.695-.098.241-.07.466-.186.662-.343.21-.161.38-.372.49-.613.126-.254.19-.534.189-.818.004-.23-.041-.458-.131-.67a1.546 1.546 0 0 0-.213-.376c.055-.096.098-.197.13-.302a1.684 1.684 0 0 0 0-.188c.006-.071.006-.142 0-.213v-.147a2.178 2.178 0 0 0 0-.245.815.815 0 0 0-.056-.18v-.09a1.585 1.585 0 0 0-.18-.229 1.268 1.268 0 0 0-.343-.237 2.126 2.126 0 0 0-.303-.114 1.918 1.918 0 0 0-.327-.074 2.547 2.547 0 0 0-.351 0c-.219 0-.436.03-.646.09a1.796 1.796 0 0 0-.638.319c-.069.06-.131.125-.188.196a1.93 1.93 0 0 0-.106-.172 1.194 1.194 0 0 0-.531-.343 1.834 1.834 0 0 0-.327-.049h-.499a1.079 1.079 0 0 0-.834.392 1.246 1.246 0 0 0-.229-.155 1.713 1.713 0 0 0-.326-.147 2.206 2.206 0 0 0-.352-.09 2.163 2.163 0 0 0-.409 0c-.311 0-.62.062-.907.18-.133.05-.259.116-.376.196a1.12 1.12 0 0 0-.417-.262 1.303 1.303 0 0 0-.27-.065h-.515l-.27.057-.106.058a1.342 1.342 0 0 0-.376-.099h-.474a.974.974 0 0 0-.343.09c-.1.04-.195.095-.278.164a1.186 1.186 0 0 0-.425-.196 1.333 1.333 0 0 0-.368-.05h-.335a1.162 1.162 0 0 0-.556.164l-.196-.082a2.12 2.12 0 0 0-.344-.09 2.232 2.232 0 0 0-.408 0c-.314.001-.625.062-.916.18a.813.813 0 0 0 0-.286c.175-.058.33-.163.45-.302.053.063.114.12.18.171.088.06.184.106.286.14.088.026.178.045.27.056h.604c.114-.005.226-.024.335-.057.2-.061.376-.18.507-.343a.814.814 0 0 0 .115.13c.2.172.456.264.72.262h1.462c.127-.006.252-.037.368-.09h.05c.087.032.177.054.269.066h.515a1.26 1.26 0 0 0 .278-.066.817.817 0 0 0 .27-.13l.22.122c.113.043.231.067.352.074h.474c.11-.01.22-.033.327-.066h.049c.263.092.54.137.817.131.236.001.47-.032.695-.098.14-.04.275-.098.4-.172a.82.82 0 0 0 .279.156c.09.032.183.054.278.065h.515c.092-.012.182-.034.27-.065a.53.53 0 0 0 .138-.066c.151.082.32.127.49.131h.72c.326.006.652-.038.965-.13.081 0 .147-.066.228-.099.157.129.347.208.548.23h.507c.117-.008.233-.033.343-.074.203-.077.377-.214.499-.393l.073.107c.133.167.312.292.516.36.101.025.205.041.31.048h.499a1.08 1.08 0 0 0 .245-.065c.115.043.237.065.36.065h.719c.326.007.652-.038.965-.13.183-.06.359-.143.523-.246.03.042.066.08.106.115.198.17.45.263.711.261h1.529c.14-.008.275-.044.4-.106.12.044.243.077.368.098.155.014.311.014.466 0 .235 0 .47-.032.695-.098a1.97 1.97 0 0 0 .662-.343c.207-.163.374-.37.49-.605.123-.255.185-.535.18-.818a1.78 1.78 0 0 0-.122-.67c.133-.484.09-1-.123-1.455Zm-71.067.384.057.041v.057h-.057a.353.353 0 0 1-.05-.098h.05Zm2.542.131v-.13l.114.065-.114.065Zm-.221 4.97v-.13l.114.065-.114.065Zm51.45-.13.114.065-.115.065v-.13Zm-6.99 0 .115.065-.115.065v-.13Zm-9.139-5.51v.286c0-.05 0-.131-.049-.196l.05-.09Zm0 .752v.449a.881.881 0 0 0-.09-.147c.03-.098.049-.2.058-.302h.032Zm-16.823 4.757.115.066-.114.065v-.13Zm19.619-2.378c-.094.004-.188.02-.278.049l-.22-.05h-.516l-.27.058c-.186.06-.35.174-.474.327v-.057a1.135 1.135 0 0 0-.719-.36h-.515a1.296 1.296 0 0 0-.27.065c-.14.049-.268.127-.376.229a2.27 2.27 0 0 0-.425-.204 2.895 2.895 0 0 0-.907-.14 2.608 2.608 0 0 0-.973.172c-.204.09-.394.209-.564.352a1.273 1.273 0 0 0-.286-.22 1.873 1.873 0 0 0-.515-.189l-.335-.049H43.521a1.16 1.16 0 0 0-.818.31c-.196.203-.31.471-.319.753l-.049-.05a1.153 1.153 0 0 0-.531-.22h-.294a1.629 1.629 0 0 0-.344 0c-.154.033-.3.094-.433.18a.965.965 0 0 0-.188-.115 1.252 1.252 0 0 0-.392-.09h-.515a1.112 1.112 0 0 0-.564.246v-.14a1.578 1.578 0 0 0-.057-.18l-.05-.089a1.578 1.578 0 0 0-.18-.229 1.265 1.265 0 0 0-.343-.237 2.127 2.127 0 0 0-.621-.188 2.664 2.664 0 0 0-.36 0 2.452 2.452 0 0 0-.645.09 1.832 1.832 0 0 0-.63.319 1.48 1.48 0 0 0-.196.196.652.652 0 0 0-.106-.172 1.153 1.153 0 0 0-.532-.343 1.843 1.843 0 0 0-.326-.05h-.5a1.502 1.502 0 0 0-.342.058c-.19.062-.359.178-.483.335a1.073 1.073 0 0 0-.237-.155 1.513 1.513 0 0 0-.327-.147 2.009 2.009 0 0 0-.351-.09 2.077 2.077 0 0 0-.4 0 2.405 2.405 0 0 0-1.292.376 1.062 1.062 0 0 0-.417-.262 1.298 1.298 0 0 0-.27-.065h-.515l-.262.057a1.373 1.373 0 0 0-.27.131l-.245-.098a2.32 2.32 0 0 0-.408-.098 3.176 3.176 0 0 0-.507 0 2.672 2.672 0 0 0-.973.172 2.125 2.125 0 0 0-.71.44l-.09-.08v-.05a.924.924 0 0 0 0-.613h.056l.278-.098c.177.12.384.185.597.188h1.52a.956.956 0 0 0 .36-.082c.098.038.2.066.303.082h.506c.104-.013.206-.04.303-.082a.9.9 0 0 0 .327-.212c.131.116.288.2.458.245.125.034.254.05.384.049h.261c.12 0 .237-.017.352-.05l.22-.09c.155.089.33.136.507.14h1.529c.124-.008.246-.038.36-.09h.049c.09.032.183.054.278.065h.515a1.3 1.3 0 0 0 .27-.065.82.82 0 0 0 .27-.13l.22.122c.112.042.231.067.351.073h1.259c.118-.005.234-.03.343-.073.204-.075.379-.212.499-.392a.463.463 0 0 0 .066.106c.132.167.311.292.514.36.105.026.212.042.32.049h.49a.974.974 0 0 0 .245-.066c.115.042.237.064.36.066h1.39a.924.924 0 0 0 .588-.197c.096-.08.176-.177.237-.286.053.081.117.155.188.22.2.173.456.266.72.263h.719c.326.005.651-.039.964-.131.184-.06.36-.143.523-.245l.098.114c.2.17.456.264.72.262h1.528c.197-.008.389-.068.556-.172a1.03 1.03 0 0 0 .352-.442c.035-.101.062-.205.081-.31v-.18c.1.235.248.446.434.621.206.195.455.338.727.417.264.085.54.124.818.114.277.002.552-.04.817-.122.165-.062.322-.144.466-.245.09.095.199.173.319.229.102.043.209.073.319.09h.506c.104-.014.206-.041.303-.082a.931.931 0 0 0 .335-.213c.1.087.217.154.343.196l-.163.188-.041.05h-.066a1.085 1.085 0 0 0-.31-.058l-2.11-.081ZM85.006 5.617v-.115l-.049-.163a6.114 6.114 0 0 0-6.13-4.75h-3.663a.949.949 0 0 0-.302-.057H61.374a.9.9 0 0 0-.817.523l-.434.908a.115.115 0 0 0 0-.057l.058-.18a.909.909 0 0 0-.818-1.194H36.37a.907.907 0 0 0-.818.564l-.817 2.052c-.818 1.97-1.635 3.948-2.452 5.926v.074h-.172c-1.692-.074-3.392-.074-5.044-.074H24.28a1.766 1.766 0 0 0-1.692 1.047c-1.104 2.223-2.224 4.447-3.335 6.67l-2.502 4.994a1.749 1.749 0 0 1-1.577 1.014 1.92 1.92 0 0 1-.703-.139.695.695 0 0 1-.409-.327.607.607 0 0 1 .098-.466c1.205-2.327 2.414-4.65 3.63-6.972l1.724-3.27c1.564-2.992 3.123-5.99 4.676-8.992l.05-.082c.203-.334.308-.72.302-1.111a.916.916 0 0 0-.908-.818h-9.318a.924.924 0 0 0-.818.499l-3.49 6.825c-2.725 5.38-5.45 10.755-8.175 16.128a7.872 7.872 0 0 0-.956 4.153 5.003 5.003 0 0 0 2.133 3.637c.337.25.75.378 1.17.36l16.47-.073h.68a1.635 1.635 0 0 0 1.495-.924l1.455-2.763 2.06-3.9c2.338-4.446 4.673-8.893 7.005-13.34 0-.049 0-.073.066-.073h1.569L25.93 30.14a1.217 1.217 0 0 0 1.243 1.953h7.863a1.815 1.815 0 0 0 1.742-1.079l4.316-8.46c-.07.268-.07.55 0 .817.272.87.485 1.758.637 2.657a3.825 3.825 0 0 1-1.201 3.752c-.17.15-.33.308-.483.474a1.063 1.063 0 0 0-.278.932 1.03 1.03 0 0 0 .613.76c.257.119.536.18.818.18a3.057 3.057 0 0 0 2.215-.89 29.035 29.035 0 0 0 2.256-3.467c.818-1.438 1.545-2.926 2.232-4.373a1.218 1.218 0 0 0 .09-1.104 1.143 1.143 0 0 0-.818-.654 2.658 2.658 0 0 0-.637-.09 1.742 1.742 0 0 0-1.635 1.12c-.115.23-.597 1.26-.597 1.26-.049-.352-.098-.712-.139-1.064a1.316 1.316 0 0 0-1.34-1.283 1.722 1.722 0 0 0-.336 0h-.204a1.292 1.292 0 0 0-1.03.417l1.324-2.591 1.946-3.81a461.203 461.203 0 0 0 2.289-4.479v-.04h7.945c.387.01.769-.095 1.095-.303l-3.997 8.583s-3.866 8.28-5.01 10.716a1.447 1.447 0 0 0-.066 1.414 1.39 1.39 0 0 0 1.283.532h2.11c1.887 0 3.85 0 5.721.081h.115a1.855 1.855 0 0 0 1.782-1.16c.817-1.635 1.635-3.327 2.452-4.995l2.452-5.002.058-.115h6.138a15.906 15.906 0 0 0 8.06-2.052 16.104 16.104 0 0 0 6.074-5.722 15.613 15.613 0 0 0 2.019-5.354 1.006 1.006 0 0 0 0-.155V5.878a1.039 1.039 0 0 0-.04-.261ZM74.821 9.655a4.683 4.683 0 0 1-1.25 1.635 12.85 12.85 0 0 1-8.38 3.114h-.335c.221-.515 1.366-3.27 1.366-3.27l.564-1.34c.335-.818.662-1.586 1.021-2.452H70.276c.11.042.226.065.343.065h2.706a1.684 1.684 0 0 1 1.43.711 1.634 1.634 0 0 1 .066 1.537Z"/><path fill="#009183" d="M3.5 36.007c.006.244-.03.488-.107.72a1.258 1.258 0 0 1-.31.482 1.291 1.291 0 0 1-.5.278 2.49 2.49 0 0 1-.694.082h-.727a.196.196 0 0 1-.131 0 .196.196 0 0 1-.05-.148v-2.648a.18.18 0 0 1 .05-.147.205.205 0 0 1 .13-.05h.818c.233-.005.465.028.687.099.177.054.34.15.474.278.133.127.234.284.294.458.053.194.075.395.065.596Zm-.638 0a1.537 1.537 0 0 0-.05-.4.948.948 0 0 0-.163-.327.77.77 0 0 0-.286-.213 1.192 1.192 0 0 0-.458-.073h-.31v2.068h.319c.147.002.293-.02.433-.066a.736.736 0 0 0 .286-.204.694.694 0 0 0 .172-.327c.033-.142.047-.288.04-.433l.017-.025ZM4.612 37.486a.074.074 0 0 1-.05 0h-.539V34.577h.589a.049.049 0 0 1 0 .04v2.87ZM7.53 37.493h-.491a.288.288 0 0 1-.098 0h-.049l-.278-.678-.09-.205a.817.817 0 0 0-.106-.155.745.745 0 0 0-.13-.09.638.638 0 0 0-.18 0h-.189v1.153a.074.074 0 0 1-.049 0h-.49a.074.074 0 0 1-.05 0v-2.755c0-.074 0-.123.058-.147a.17.17 0 0 1 .13-.05h1.12c.116.017.228.047.336.09.09.04.174.095.245.164.07.069.123.153.155.245.038.102.058.21.058.32a.989.989 0 0 1 0 .277.71.71 0 0 1-.303.392c-.076.051-.159.092-.245.123l.123.074.114.114.098.155c.037.063.067.128.09.197l.262.596a.734.734 0 0 1 .04.131.252.252 0 0 1-.081.05Zm-.818-2.06a.409.409 0 0 0-.073-.253.32.32 0 0 0-.221-.147H5.87v.817h.311a.643.643 0 0 0 .229 0 .35.35 0 0 0 .163-.09.302.302 0 0 0 .107-.139.531.531 0 0 0 .09-.188h-.058ZM9.786 37.34v.114a.521.521 0 0 1 0 .073H8.224a.171.171 0 0 1-.13 0 .172.172 0 0 1-.058-.147v-2.648c0-.074 0-.123.058-.148a.172.172 0 0 1 .13-.049h1.553a.245.245 0 0 1 0 .082.433.433 0 0 1 0 .115.4.4 0 0 1 0 .106.245.245 0 0 1 0 .082v.04h-1.12v.744h.957a.196.196 0 0 1 0 .074.466.466 0 0 1 0 .114.5.5 0 0 1 0 .115.155.155 0 0 1 0 .065H8.658v.818h1.087a.524.524 0 0 1 0 .073s.04.327.04.376ZM12.352 37.118V37.388l-.098.073-.18.074a1.079 1.079 0 0 1-.245.065c-.101.009-.202.009-.303 0a1.57 1.57 0 0 1-.564-.098 1.26 1.26 0 0 1-.425-.286 1.374 1.374 0 0 1-.27-.482 2.494 2.494 0 0 1 0-1.357c.065-.184.165-.354.295-.499.119-.138.27-.245.441-.31.182-.074.376-.11.572-.107h.245c.072.012.143.028.213.05.063.02.123.047.18.081l.114.074a.19.19 0 0 1 0 .057v.441a.172.172 0 0 1-.09 0l-.139-.09-.204-.098a.96.96 0 0 0-.286 0 .68.68 0 0 0-.564.286.973.973 0 0 0-.147.335 1.48 1.48 0 0 0-.058.442c-.003.154.016.309.058.458.03.118.082.229.155.327a.76.76 0 0 0 .245.188c.104.04.215.06.327.057a.98.98 0 0 0 .286 0 .954.954 0 0 0 .205-.09l.139-.082a.204.204 0 0 1 .09 0 .205.205 0 0 1 0 .082l.008.139ZM14.943 37.12a.336.336 0 0 1 0 .097.179.179 0 0 1 0 .074v.049l-.04.049-.099.073-.18.074a1.078 1.078 0 0 1-.245.065 1.625 1.625 0 0 1-.294 0 1.51 1.51 0 0 1-.564-.098 1.218 1.218 0 0 1-.433-.286 1.373 1.373 0 0 1-.27-.482 2.274 2.274 0 0 1-.09-.662c-.005-.236.031-.471.107-.695.058-.185.156-.355.285-.499.12-.138.272-.245.442-.31.182-.074.376-.11.572-.107.082-.008.164-.008.245 0 .075.012.149.028.221.05l.18.081.106.074.05.057v.36a.244.244 0 0 1 0 .081h-.042a.171.171 0 0 1-.09 0 .68.68 0 0 0-.139-.09l-.204-.098a.965.965 0 0 0-.286 0 .68.68 0 0 0-.564.287.973.973 0 0 0-.147.335 1.806 1.806 0 0 0 0 .899c.033.117.086.227.155.327a.71.71 0 0 0 .254.188c.1.04.21.06.318.057a.98.98 0 0 0 .286 0 .96.96 0 0 0 .205-.09l.139-.082a.207.207 0 0 1 .09 0h.04a.205.205 0 0 1 0 .082.583.583 0 0 1-.008.14ZM15.965 37.486a.074.074 0 0 1-.05 0h-.489a.074.074 0 0 1-.05 0V34.577H15.966v2.91ZM19.357 36.024c.004.23-.03.459-.098.678-.054.188-.149.36-.278.507-.126.14-.282.25-.458.319-.2.076-.414.112-.629.106-.21.002-.42-.028-.621-.09a1.145 1.145 0 0 1-.442-.286 1.186 1.186 0 0 1-.261-.482 2.453 2.453 0 0 1-.09-.695c-.003-.225.03-.448.098-.662.052-.186.148-.356.278-.499.126-.14.282-.25.458-.319.203-.079.42-.118.637-.114.206-.004.411.03.605.098.169.053.32.149.442.278.124.139.216.304.27.482.062.221.092.45.09.679Zm-.645 0c.013-.144.013-.29 0-.433a1.02 1.02 0 0 0-.123-.336.678.678 0 0 0-.245-.212.818.818 0 0 0-.376-.082.753.753 0 0 0-.376.09.686.686 0 0 0-.254.229 1.023 1.023 0 0 0-.13.335 2.078 2.078 0 0 0 0 .4c-.014.15-.014.3 0 .45.018.12.062.235.13.335a.564.564 0 0 0 .237.221c.118.054.247.08.376.074a.817.817 0 0 0 .384-.09.655.655 0 0 0 .246-.23c.063-.102.107-.216.13-.334a2.26 2.26 0 0 0 0-.384v-.033Zm-.638-2.33.057-.057h.482a.122.122 0 0 1 .082 0v.049a.156.156 0 0 1-.049.057l-.515.474h-.515v-.057l.458-.466ZM22.382 37.356a.22.22 0 0 1 0 .098.13.13 0 0 1-.05.066.106.106 0 0 1-.073 0 .164.164 0 0 1-.09 0h-.401a.302.302 0 0 1-.114-.057l-.098-.123c0-.05-.065-.106-.106-.188l-.752-1.422c0-.082-.09-.172-.13-.27a2.754 2.754 0 0 1-.124-.286V37.446a.074.074 0 0 1-.049 0H19.954v-2.73a.204.204 0 0 1 .065-.163.237.237 0 0 1 .164-.058h.482a.253.253 0 0 1 .106.05.527.527 0 0 1 .09.097s.058.09.09.156l.589 1.111.098.197.098.196.098.188c0 .065.057.122.082.188v-2.109a.073.073 0 0 1 0-.041H22.406v.04l-.024 2.788ZM26.568 35.018v.196h-.139a.917.917 0 0 0-.18-.09 1.488 1.488 0 0 0-.27-.09 1.161 1.161 0 0 0-.76.033.882.882 0 0 0-.498.547c-.048.14-.07.286-.066.434-.005.155.017.31.066.457.043.123.11.237.196.335.081.09.182.16.294.205.126.043.259.066.392.065h.205a.75.75 0 0 0 .188-.073v-.703h-.58a.074.074 0 0 1-.066-.05.469.469 0 0 1 0-.18v-.114a.157.157 0 0 1 0-.065h1.103a.107.107 0 0 1 .05 0 .128.128 0 0 1 0 .057.244.244 0 0 1 0 .082v1.21c.009.04.009.082 0 .122a.145.145 0 0 1-.099.082.919.919 0 0 1-.196.065l-.229.058h-.49a1.798 1.798 0 0 1-.654-.107 1.308 1.308 0 0 1-.49-.302 1.381 1.381 0 0 1-.303-.482 1.78 1.78 0 0 1-.106-.646 1.89 1.89 0 0 1 .114-.67 1.371 1.371 0 0 1 .817-.826c.21-.075.432-.111.655-.106.12-.01.24-.01.36 0 .093.015.186.037.277.065l.204.082a.43.43 0 0 1 .107.082.139.139 0 0 1 .049.09.89.89 0 0 1 .049.237ZM28.995 37.34v.114a.5.5 0 0 1 0 .073h-1.561a.171.171 0 0 1-.131 0 .204.204 0 0 1-.057-.147v-2.648a.18.18 0 0 1 .057-.148.171.171 0 0 1 .13-.049h1.554a.249.249 0 0 1 0 .082.438.438 0 0 1 0 .115.402.402 0 0 1 0 .106.249.249 0 0 1 0 .082v.04h-1.12v.744h.956a.198.198 0 0 1 0 .074.466.466 0 0 1 0 .114.498.498 0 0 1 0 .115.157.157 0 0 1 0 .065H27.867v.818h1.087a.53.53 0 0 1 0 .073s.04.327.04.376ZM32.045 37.356a.22.22 0 0 1 0 .099.13.13 0 0 1-.05.065.163.163 0 0 1-.073 0 .18.18 0 0 1-.09 0h-.401a.3.3 0 0 1-.114-.057l-.098-.123a1.696 1.696 0 0 1-.106-.188l-.752-1.422c-.05-.082-.09-.172-.14-.27l-.122-.286V37.446a.074.074 0 0 1-.049 0H29.576a.058.058 0 0 1-.041 0v-2.73a.204.204 0 0 1 .066-.163.213.213 0 0 1 .155-.058h.482c.041.008.08.025.114.05a.537.537 0 0 1 .09.097c.033.05.06.101.082.156l.597 1.111.098.197.098.196c.033.06.063.124.09.188l.09.188v-2.149a.074.074 0 0 1 .049 0h.441a.081.081 0 0 1 .041 0v.04l.017 2.787ZM34.505 37.339v.114a.53.53 0 0 1 0 .074h-1.578a.18.18 0 0 1-.13 0 .204.204 0 0 1-.057-.147V34.73a.18.18 0 0 1 .057-.147.188.188 0 0 1 .13-.049h1.554v.425h-1.12v.744h.956v.368H33.361v.817h1.095a.532.532 0 0 1 0 .074s.05.327.05.376ZM37.301 37.493H36.721a.074.074 0 0 1-.05 0l-.277-.678-.09-.205a.815.815 0 0 0-.107-.155.742.742 0 0 0-.13-.09.637.637 0 0 0-.18 0h-.188v1.153a.074.074 0 0 1-.05 0h-.49a.074.074 0 0 1-.049 0v-2.755a.18.18 0 0 1 .057-.147.172.172 0 0 1 .131-.05h1.12c.115.016.228.046.335.09.091.04.174.095.246.164a.63.63 0 0 1 .155.245c.041.101.06.21.057.32a.986.986 0 0 1-.04.277.711.711 0 0 1-.303.392c-.077.051-.159.092-.245.123l.122.074a.76.76 0 0 1 .115.114l.098.155c.036.063.066.128.09.197l.261.596a.94.94 0 0 1 .05.131s-.058.033-.058.05Zm-.817-2.06a.409.409 0 0 0-.074-.253.32.32 0 0 0-.22-.147h-.548v.817h.31a.643.643 0 0 0 .23 0 .433.433 0 0 0 .17-.09.352.352 0 0 0 .099-.139.53.53 0 0 0 .057-.188h-.024ZM40.284 37.34v.138a.073.073 0 0 1 0 .074.187.187 0 0 1-.09 0h-.474a.074.074 0 0 1-.049 0v-.05l-.204-.604H38.33l-.197.588v.058a.074.074 0 0 1-.049 0 .29.29 0 0 1-.098 0h-.327a.131.131 0 0 1-.09 0v-.074a.572.572 0 0 1 0-.13l.932-2.699v-.065H39.287a.644.644 0 0 1 0 .074l.997 2.69Zm-1.398-2.224-.433 1.291h.867l-.434-1.291ZM42.336 37.322a.466.466 0 0 1 0 .114.204.204 0 0 1 0 .082.074.074 0 0 1 0 .05h-1.43a.18.18 0 0 1-.131 0 .195.195 0 0 1-.049-.148v-2.763a.073.073 0 0 1 0-.04h.597a.074.074 0 0 1 0 .04v2.452h.956a.164.164 0 0 1 0 .074c.025.043.045.09.057.139ZM46.309 36.007c.006.244-.03.488-.106.72-.065.184-.175.35-.32.482-.14.128-.307.223-.49.278-.229.06-.466.087-.703.082h-.719a.172.172 0 0 1-.13 0 .172.172 0 0 1-.058-.148v-2.648c0-.074 0-.123.057-.147a.172.172 0 0 1 .131-.05h.818c.232-.005.464.028.686.099.178.053.341.148.474.278.133.129.236.285.303.458.05.194.069.396.057.596Zm-.638 0a1.538 1.538 0 0 0-.049-.4 1.112 1.112 0 0 0-.163-.327.817.817 0 0 0-.286-.213 1.218 1.218 0 0 0-.458-.073h-.343v2.068h.327c.144.002.288-.02.425-.066a.819.819 0 0 0 .466-.531 1.89 1.89 0 0 0 .081-.433v-.025ZM48.614 37.339a.497.497 0 0 1 0 .114.163.163 0 0 1 0 .074h-1.57a.197.197 0 0 1-.13 0 .196.196 0 0 1-.05-.147V34.73a.18.18 0 0 1 .05-.147.203.203 0 0 1 .13-.049h1.554v.425h-1.12v.744h.956v.368H47.478v.817h1.136a.163.163 0 0 1 0 .074.465.465 0 0 1 0 .376ZM52.725 36.44c.005.17-.023.339-.081.499-.055.14-.138.269-.246.376a1.037 1.037 0 0 1-.392.229 1.562 1.562 0 0 1-.54.081 1.7 1.7 0 0 1-.514-.073.932.932 0 0 1-.385-.213.866.866 0 0 1-.237-.368 1.342 1.342 0 0 1-.09-.506V34.577H50.83v1.838a1.196 1.196 0 0 0 0 .311.589.589 0 0 0 .13.22c.057.056.124.1.197.132a.876.876 0 0 0 .261 0 .82.82 0 0 0 .262 0 .638.638 0 0 0 .196-.131.76.76 0 0 0 .123-.213 1 1 0 0 0 0-.286v-1.872H52.579v.041l.146 1.823ZM55.889 37.356a.402.402 0 0 1 0 .098.22.22 0 0 1-.057.065.106.106 0 0 1-.074 0 .164.164 0 0 1-.09 0h-.401a.375.375 0 0 1-.114-.057.474.474 0 0 1-.09-.123.954.954 0 0 1-.106-.188l-.76-1.422c0-.082-.09-.172-.13-.27a2.754 2.754 0 0 1-.124-.286v2.273H53.493v-2.73a.18.18 0 0 1 .066-.164.205.205 0 0 1 .156-.057h.482a.252.252 0 0 1 .106.049c.036.026.067.06.09.098.035.048.066.1.09.155l.589 1.112c0 .065.065.13.106.196.033.064.063.13.09.196l.098.188c0 .065.057.123.082.188v-2.109a.05.05 0 0 1 0-.04h.44v2.828ZM57.172 37.486a.074.074 0 0 1-.05 0h-.49a.074.074 0 0 1-.05 0v-2.869a.05.05 0 0 1 0-.04H57.173v2.91ZM59.347 37.46a.239.239 0 0 1 0 .065.132.132 0 0 1-.066 0H58.58a.496.496 0 0 1 0-.057l-.908-2.69v-.13a.098.098 0 0 1 0-.074.155.155 0 0 1 .098 0H58.235a.081.081 0 0 1 .041 0v.058l.744 2.346.727-2.33a.157.157 0 0 1 0-.066H60.239a.155.155 0 0 1 .082 0c.009.027.009.056 0 .082a.733.733 0 0 1 0 .131l-.973 2.665ZM62.478 37.34v.114a.5.5 0 0 1 0 .073h-1.561a.171.171 0 0 1-.131 0 .204.204 0 0 1-.057-.147v-2.648a.18.18 0 0 1 .057-.148.171.171 0 0 1 .13-.049h1.554a.249.249 0 0 1 0 .082.438.438 0 0 1 0 .115.402.402 0 0 1 0 .106.249.249 0 0 1 0 .082v.04h-1.12v.744h.956a.194.194 0 0 1 0 .074.466.466 0 0 1 0 .114.498.498 0 0 1 0 .115.153.153 0 0 1 0 .065h-.915v.818h.964a.53.53 0 0 1 0 .073s.123.327.123.376ZM65.273 37.493h-.466a.289.289 0 0 1-.098 0h-.049l-.278-.678a1.625 1.625 0 0 0-.098-.205.564.564 0 0 0-.098-.155.583.583 0 0 0-.139-.09.543.543 0 0 0-.171 0h-.188v1.153a.074.074 0 0 1-.05 0h-.564a.074.074 0 0 1-.049 0v-2.755c0-.074 0-.123.058-.147a.17.17 0 0 1 .13-.05h1.12c.113.016.223.046.327.09.094.039.18.094.254.164a.63.63 0 0 1 .155.245.925.925 0 0 1 .016.597.712.712 0 0 1-.302.392c-.077.051-.159.092-.245.123l.122.074.115.114.098.155c.036.063.066.128.09.197l.261.596a.752.752 0 0 1 0 .131c.019.014.035.03.05.05Zm-.817-2.06a.4.4 0 0 0-.16-.35.32.32 0 0 0-.126-.05h-.548v.817h.31a.642.642 0 0 0 .23 0 .351.351 0 0 0 .163-.09.245.245 0 0 0 .098-.139.376.376 0 0 0 .05-.188h-.017ZM67.48 36.665a.923.923 0 0 1-.09.417.743.743 0 0 1-.245.303 1.04 1.04 0 0 1-.352.188c-.143.04-.292.059-.441.057a1.455 1.455 0 0 1-.532-.09l-.171-.074a.253.253 0 0 1-.098-.073.13.13 0 0 1-.041-.082.864.864 0 0 1 0-.172.535.535 0 0 1 0-.122v-.074a.123.123 0 0 1 0-.049c.029-.01.06-.01.09 0l.155.082c.074.035.15.062.229.081a.818.818 0 0 0 .294 0c.068.01.137.01.205 0a.459.459 0 0 0 .155-.073.27.27 0 0 0 .09-.123.37.37 0 0 0 0-.163.262.262 0 0 0-.057-.18.54.54 0 0 0-.14-.13 1.287 1.287 0 0 0-.212-.107l-.237-.106-.237-.131a1.342 1.342 0 0 1-.204-.172.973.973 0 0 1-.148-.237.94.94 0 0 1 .025-.703.818.818 0 0 1 .22-.278.817.817 0 0 1 .328-.163c.127-.036.26-.056.392-.057h.213l.204.049c.06.015.117.037.172.065a.287.287 0 0 1 .09.057V34.891a.163.163 0 0 1 0 .074.05.05 0 0 1 0 .049h-.082l-.14-.065-.187-.074a1.044 1.044 0 0 0-.237 0 .544.544 0 0 0-.172 0 .345.345 0 0 0-.13.074.22.22 0 0 0-.074.098.368.368 0 0 0 0 .13.278.278 0 0 0 .057.18c.04.054.09.098.147.131.068.04.14.076.213.106l.237.107c.083.035.162.079.237.13.079.043.15.098.212.164.059.073.108.152.147.237a.924.924 0 0 1 .115.433ZM68.568 37.486a.074.074 0 0 1-.05 0h-.588V34.577h.589a.05.05 0 0 1 0 .04l.049 2.87ZM71.755 36.007a2.11 2.11 0 0 1-.115.72 1.096 1.096 0 0 1-.31.482c-.142.13-.313.225-.499.278-.226.06-.46.088-.695.082h-.719a.171.171 0 0 1-.13 0 .171.171 0 0 1-.058-.148v-2.648c0-.074 0-.123.057-.147a.17.17 0 0 1 .131-.05h.776c.233-.005.465.028.687.099.178.053.341.148.474.278.133.127.234.284.295.458.07.19.106.393.106.596Zm-.638 0a1.533 1.533 0 0 0-.049-.4 1.11 1.11 0 0 0-.163-.327.818.818 0 0 0-.286-.213 1.218 1.218 0 0 0-.458-.073h-.319v2.068h.327c.144.002.288-.02.425-.066a.818.818 0 0 0 .466-.531 1.89 1.89 0 0 0 .057-.433v-.025ZM74.616 37.34a.807.807 0 0 1 0 .138v.074a.155.155 0 0 1-.09 0H74.06a.074.074 0 0 1-.049 0v-.05l-.204-.604h-1.145l-.188.588v.058a.074.074 0 0 1-.049 0 .288.288 0 0 1-.098 0h-.335a.107.107 0 0 1-.082 0 .074.074 0 0 1 0-.074v-.13l.94-2.699a.163.163 0 0 1 0-.065H73.627l.04.074.949 2.69Zm-1.39-2.224-.433 1.291h.818l-.385-1.291ZM77.583 36.007c.007.244-.03.488-.106.72-.065.184-.174.35-.319.482a1.26 1.26 0 0 1-.49.278c-.23.06-.466.087-.703.082h-.72a.171.171 0 0 1-.13 0 .205.205 0 0 1-.057-.148v-2.648a.18.18 0 0 1 .057-.147.17.17 0 0 1 .13-.05h.818c.233-.005.465.028.687.099.18.054.344.15.482.278.127.131.227.287.294.458.05.194.07.396.057.596Zm-.637 0a1.533 1.533 0 0 0-.05-.4.947.947 0 0 0-.163-.327.818.818 0 0 0-.286-.213 1.192 1.192 0 0 0-.458-.073h-.31v2.068h.319c.144.003.288-.02.425-.066a.817.817 0 0 0 .294-.204.883.883 0 0 0 .172-.327c.039-.14.058-.287.057-.433v-.025ZM79.889 37.339v.114a.362.362 0 0 1 0 .074h-1.57a.197.197 0 0 1-.13 0 .196.196 0 0 1-.05-.147V34.73a.18.18 0 0 1 .05-.147.203.203 0 0 1 .13-.049h1.562a.249.249 0 0 1 0 .082.438.438 0 0 1 0 .114.402.402 0 0 1 0 .107.249.249 0 0 1 0 .081v.041h-1.177v.744h.956v.368h-.956v.817h1.136v.074l.049.376ZM82.186 36.668a.819.819 0 0 1-.09.417.818.818 0 0 1-.237.302 1.079 1.079 0 0 1-.36.188c-.14.041-.286.06-.433.058a1.643 1.643 0 0 1-.294 0 1.4 1.4 0 0 1-.237-.066l-.172-.073a.253.253 0 0 1-.098-.074.139.139 0 0 1-.05-.082.983.983 0 0 1 0-.171v-.123a.502.502 0 0 1 0-.073.074.074 0 0 1 0-.05.156.156 0 0 1 .09 0l.156.082c.07.035.145.062.22.082.1.017.203.017.303 0a.822.822 0 0 0 .205 0 .415.415 0 0 0 .147-.074.357.357 0 0 0 .098-.122.367.367 0 0 0 0-.164.262.262 0 0 0-.057-.18.76.76 0 0 0-.147-.13 1.202 1.202 0 0 0-.205-.107l-.237-.106a2.213 2.213 0 0 1-.237-.13 1.037 1.037 0 0 1-.204-.172.817.817 0 0 1-.205-.564.82.82 0 0 1 .303-.654.817.817 0 0 1 .319-.164c.13-.036.265-.055.4-.057h.213l.204.049.163.065c.037.012.07.031.099.058a.204.204 0 0 0 0 .065v.106a.497.497 0 0 1 0 .115.179.179 0 0 1 0 .073v.05h-.082l-.14-.066-.187-.074a1.105 1.105 0 0 0-.237 0 .596.596 0 0 0-.18 0 .31.31 0 0 0-.123.074.22.22 0 0 0-.073.098.364.364 0 0 0 0 .13.327.327 0 0 0 .049.18.629.629 0 0 0 .155.132l.204.106.246.106.237.13a.816.816 0 0 1 .351.401.77.77 0 0 1 .123.41ZM9.949 39.757v.114a.524.524 0 0 1 0 .074.106.106 0 0 1 0 .05h-.817v2.452h-.597v-2.453h-.818a.106.106 0 0 1 0-.049.524.524 0 0 1 0-.074v-.318h2.216v.082c0 .032.016.073.016.122ZM12.107 42.303v.106a.25.25 0 0 1 0 .082h-1.561a.23.23 0 0 1-.131 0 .204.204 0 0 1-.04-.073c-.01-.027-.012-.055-.01-.083v-2.648a.198.198 0 0 1 .05-.147.179.179 0 0 1 .13 0H12.1v.376h-1.08v.735h.916v.368h-.956v.818h1.095a.163.163 0 0 1 0 .073s.033.344.033.393ZM14.681 42.088a.33.33 0 0 1 0 .098.227.227 0 0 1 0 .073v.05l-.04.048a.393.393 0 0 1-.099.066.917.917 0 0 1-.18.081l-.245.066a1.625 1.625 0 0 1-.294 0 1.511 1.511 0 0 1-.564-.098 1.03 1.03 0 0 1-.433-.286 1.334 1.334 0 0 1-.27-.474 2.38 2.38 0 0 1-.09-.67 2.02 2.02 0 0 1 .106-.687c.06-.187.158-.36.287-.507.123-.133.274-.24.44-.31.184-.067.378-.1.573-.099a1.17 1.17 0 0 1 .245 0l.221.057.18.082c.04.016.077.042.106.074l.05.049a.546.546 0 0 1 0 .057v.311a.163.163 0 0 1 0 .073.13.13 0 0 1 0 .05.122.122 0 0 1-.09 0l-.14-.09a.94.94 0 0 0-.49-.132.68.68 0 0 0-.564.287.973.973 0 0 0-.147.335 1.682 1.682 0 0 0-.058.433c0 .157.02.314.058.466a.965.965 0 0 0 .155.319c.069.083.156.15.254.196.1.04.21.06.318.057a.752.752 0 0 0 .286 0 .96.96 0 0 0 .205-.082l.139-.081a.204.204 0 0 1 .09 0h.04a.163.163 0 0 1 0 .073.653.653 0 0 1-.049.115ZM17.625 42.332c.009.03.009.06 0 .09a.164.164 0 0 1-.049.073h-.572a.286.286 0 0 1-.106-.065.476.476 0 0 1-.099-.114c0-.05-.065-.115-.106-.189l-.752-1.422c-.049-.081-.09-.18-.139-.278l-.122-.278v2.314a.091.091 0 0 1-.041 0H15.148v-2.73a.24.24 0 0 1 .066-.172c.045-.033.1-.05.155-.05h.482l.106.058c.04.026.072.06.099.098.03.047.058.096.081.147l.589 1.112c0 .065.073.13.106.196l.098.196.09.196c0 .058.057.123.09.188v-2.108a.074.074 0 0 1 .05 0H17.518a.238.238 0 0 1 .082 0l.024 2.738ZM21.024 41.025c.004.23-.03.458-.098.678a1.446 1.446 0 0 1-.277.507 1.2 1.2 0 0 1-.458.31 1.897 1.897 0 0 1-1.25 0 1.021 1.021 0 0 1-.442-.278 1.145 1.145 0 0 1-.262-.482 2.243 2.243 0 0 1-.09-.694 2.357 2.357 0 0 1 .09-.663c.058-.186.152-.358.278-.506.129-.14.288-.25.466-.32.2-.076.415-.112.63-.106.207-.001.414.029.612.09.168.06.319.158.442.286.122.138.213.3.27.475.064.228.094.465.09.703Zm-.653 0c.013-.145.013-.29 0-.434a.956.956 0 0 0-.131-.335.613.613 0 0 0-.237-.22.882.882 0 0 0-.376-.074.819.819 0 0 0-.384.09.703.703 0 0 0-.246.22.923.923 0 0 0-.13.336 2.233 2.233 0 0 0 0 .408c-.014.15-.014.3 0 .45.02.118.06.232.122.335a.54.54 0 0 0 .237.213.89.89 0 0 0 .384.073c.13.006.26-.022.377-.082a.604.604 0 0 0 .245-.228c.065-.106.112-.222.139-.344a2.115 2.115 0 0 0 0-.408ZM23.209 42.286a.498.498 0 0 1 0 .115.244.244 0 0 1 0 .082H21.81a.246.246 0 0 1-.13 0 .203.203 0 0 1-.05-.156v-2.754a.074.074 0 0 1 .05 0h.49a.074.074 0 0 1 .049 0v2.452h.997v.049a.163.163 0 0 1 0 .074.54.54 0 0 1-.008.138ZM26.216 41.025c.006.23-.025.458-.09.678a1.446 1.446 0 0 1-.278.507 1.2 1.2 0 0 1-.458.31 1.897 1.897 0 0 1-1.25 0 1.021 1.021 0 0 1-.442-.277 1.256 1.256 0 0 1-.27-.483 2.532 2.532 0 0 1-.081-.694 2.357 2.357 0 0 1 .09-.663c.057-.185.152-.358.278-.506.129-.14.288-.25.466-.32.2-.076.414-.112.629-.105.208-.002.415.028.613.09.167.06.319.157.442.286.121.136.21.298.261.474.068.227.099.465.09.703Zm-.646 0c.013-.145.013-.29 0-.434a.956.956 0 0 0-.13-.335.613.613 0 0 0-.238-.22.883.883 0 0 0-.376-.074.818.818 0 0 0-.384.09.703.703 0 0 0-.245.22.923.923 0 0 0-.13.336 2.233 2.233 0 0 0 0 .409c-.014.149-.014.3 0 .45.019.117.06.231.122.334a.54.54 0 0 0 .237.213.89.89 0 0 0 .384.073c.13.006.26-.022.376-.082a.604.604 0 0 0 .245-.228 1.08 1.08 0 0 0 .14-.344 2.115 2.115 0 0 0 0-.408Zm-.637-2.338s0-.041.065-.05h.564a.049.049 0 0 1 0 .058v.057l-.523.466h-.507v-.057l.4-.474ZM29.175 39.97a.536.536 0 0 1 0 .122.163.163 0 0 1 0 .073.229.229 0 0 1-.098 0 .98.98 0 0 0-.188-.098l-.261-.09a1.639 1.639 0 0 0-.368 0 1.063 1.063 0 0 0-.4.074.906.906 0 0 0-.303.22 1.038 1.038 0 0 0-.196.336 1.542 1.542 0 0 0 0 .89c.043.124.11.238.196.336a.818.818 0 0 0 .303.196.97.97 0 0 0 .384.074.873.873 0 0 0 .204 0 .748.748 0 0 0 .188-.074v-.703h-.572a.082.082 0 0 1-.074-.049.887.887 0 0 1 0-.18v-.114a.411.411 0 0 0 0-.074h1.128a.149.149 0 0 1 .058 0 .476.476 0 0 1 0 .066.25.25 0 0 1 0 .081v1.21a.27.27 0 0 1 0 .123.162.162 0 0 1-.099.082l-.188.065-.237.057h-.49a2.039 2.039 0 0 1-.654-.098 1.382 1.382 0 0 1-.482-.302 1.323 1.323 0 0 1-.31-.49 2.019 2.019 0 0 1 0-1.317 1.373 1.373 0 0 1 .816-.817c.21-.077.431-.116.654-.115.12-.013.24-.013.36 0 .095.01.188.033.278.066a.97.97 0 0 1 .319.155.27.27 0 0 1 .04.098.864.864 0 0 1-.008.196ZM30.417 42.462h-.597v-2.87h.597v2.87ZM33.18 42.087V42.357a.344.344 0 0 1-.106.065.624.624 0 0 1-.18.082 1.4 1.4 0 0 1-.237.066c-.1.008-.202.008-.302 0a1.571 1.571 0 0 1-.564-.099 1.005 1.005 0 0 1-.425-.286 1.333 1.333 0 0 1-.27-.474 2.109 2.109 0 0 1-.09-.67 2.25 2.25 0 0 1 .098-.687 1.48 1.48 0 0 1 .294-.507c.124-.133.274-.239.442-.31.183-.068.377-.101.572-.098.081-.008.163-.008.245 0l.213.057a.92.92 0 0 1 .18.082.345.345 0 0 1 .114.073.183.183 0 0 1 0 .05.115.115 0 0 1 0 .056v.311a.532.532 0 0 1 0 .074.074.074 0 0 1 0 .049.122.122 0 0 1-.09 0l-.139-.09-.204-.09a1 1 0 0 0-.287 0 .68.68 0 0 0-.564.286 1.16 1.16 0 0 0-.155.335 1.71 1.71 0 0 0-.049.433c-.004.158.015.315.057.466.028.117.081.226.156.32a.638.638 0 0 0 .245.195c.104.041.215.061.327.058a.818.818 0 0 0 .286 0 .965.965 0 0 0 .204-.082l.14-.082a.204.204 0 0 1 .09 0 .502.502 0 0 1 0 .074v.073ZM36.115 42.304a.596.596 0 0 1 0 .131.074.074 0 0 1 0 .074.131.131 0 0 1-.09 0h-.474a.074.074 0 0 1-.049 0v-.05l-.204-.612h-1.136l-.197.596a.072.072 0 0 1 0 .058.074.074 0 0 1-.049 0H33.491a.156.156 0 0 1-.081 0 .074.074 0 0 1 0-.074.557.557 0 0 1 0-.139l.932-2.69v-.065a.132.132 0 0 1 .065 0h.653a.131.131 0 0 1 .066 0 .155.155 0 0 1 0 .074l.99 2.697Zm-1.398-2.223-.425 1.283h.818l-.392-1.283ZM38.339 41.63a.907.907 0 0 1-.327.72c-.108.081-.23.142-.36.179-.14.043-.286.065-.433.065a1.644 1.644 0 0 1-.294 0l-.237-.065-.172-.074-.106-.073a.188.188 0 0 1 0-.09.812.812 0 0 1 0-.163v-.123a.244.244 0 0 1 0-.082.231.231 0 0 1 .098 0l.155.09c.072.033.145.06.22.082.101.013.203.013.303 0a.822.822 0 0 0 .205 0 .631.631 0 0 0 .147-.082.36.36 0 0 0 .098-.123.476.476 0 0 0 0-.155.31.31 0 0 0-.058-.18.567.567 0 0 0-.147-.13 1.194 1.194 0 0 0-.204-.107l-.237-.114a1.298 1.298 0 0 1-.237-.123.817.817 0 0 1-.204-.172.815.815 0 0 1-.204-.564.818.818 0 0 1 .081-.384.646.646 0 0 1 .22-.27.818.818 0 0 1 .32-.163c.126-.04.259-.06.392-.057h.22l.205.04.163.066.099.057v.05a.153.153 0 0 1 0 .065.337.337 0 0 1 0 .098.43.43 0 0 1 0 .114v.122a.155.155 0 0 1-.082 0l-.14-.073-.187-.065a.754.754 0 0 0-.237 0 .565.565 0 0 0-.18 0 .434.434 0 0 0-.123.065.229.229 0 0 0-.073.107.238.238 0 0 0 0 .13c-.002.061.015.121.049.172.04.052.09.096.147.13l.212.107.238.115.245.122c.075.048.144.106.204.172a.645.645 0 0 1 .147.237.769.769 0 0 1 .074.327ZM41.102 42.538l-.253.744a.139.139 0 0 1-.115.082c-.092.01-.185.01-.278 0h-.171a.106.106 0 0 1-.082 0 .041.041 0 0 1 0-.05.106.106 0 0 1 0-.065l.278-.703a.145.145 0 0 1-.057 0v-.065l-.728-1.921a.494.494 0 0 1 0-.13.09.09 0 0 1 0-.066.194.194 0 0 1 .098 0H40.22s.04 0 .048.049a.274.274 0 0 1 0 .082l.49 1.397.45-1.43s0-.066.041-.074a.155.155 0 0 1 .074 0h.351a.279.279 0 0 1 .099 0c.009.024.009.05 0 .074a.245.245 0 0 1 0 .098l-.67 1.978ZM45.344 40.428c0 .156-.028.31-.082.457a.866.866 0 0 1-.237.327 1.013 1.013 0 0 1-.368.213c-.17.044-.346.066-.523.065h-.253v.973a.074.074 0 0 1-.05 0h-.49a.074.074 0 0 1-.049 0v-2.73a.27.27 0 0 1 .057-.172.236.236 0 0 1 .156-.049H44.6a.894.894 0 0 1 .515.286.68.68 0 0 1 .147.262c.056.114.084.24.082.367Zm-.646.049a.59.59 0 0 0-.057-.262.376.376 0 0 0-.14-.155.738.738 0 0 0-.17-.066h-.45v1.038h.277a.697.697 0 0 0 .246 0 .392.392 0 0 0 .163-.114.433.433 0 0 0 .098-.172.891.891 0 0 0 .033-.27ZM48.549 41.025a2.2 2.2 0 0 1-.09.678 1.446 1.446 0 0 1-.278.507 1.202 1.202 0 0 1-.458.31 1.897 1.897 0 0 1-1.25 0 1.022 1.022 0 0 1-.442-.278 1.26 1.26 0 0 1-.27-.482 2.537 2.537 0 0 1-.082-.694 2.353 2.353 0 0 1 .09-.663c.058-.186.153-.358.278-.506.128-.143.288-.252.466-.32.201-.076.415-.112.63-.106.207-.001.414.029.613.09.167.06.318.158.441.286.122.137.211.299.262.475.068.227.098.465.09.703Zm-.646 0c.013-.145.013-.29 0-.434a1.145 1.145 0 0 0-.13-.335.638.638 0 0 0-.246-.22.818.818 0 0 0-.368-.074.762.762 0 0 0-.384.09.702.702 0 0 0-.245.22.924.924 0 0 0-.131.336 1.694 1.694 0 0 0 0 .408c-.017.15-.017.3 0 .45.02.118.06.232.123.335a.54.54 0 0 0 .237.213.89.89 0 0 0 .384.073c.13.006.26-.022.376-.082a.661.661 0 0 0 .245-.228.908.908 0 0 0 .13-.344c.02-.135.023-.272.009-.408ZM50.74 42.286a.498.498 0 0 1 0 .115.244.244 0 0 1 0 .082h-1.464a.246.246 0 0 1-.13 0 .205.205 0 0 1-.05-.156v-2.754a.074.074 0 0 1 .05 0h.54v2.452h.988a.074.074 0 0 1 0 .049.166.166 0 0 1 0 .074c.029.042.05.09.066.138ZM51.727 42.461a.074.074 0 0 1-.049 0h-.539v-2.869H51.679a.074.074 0 0 1 .048 0v2.87ZM54.401 39.757v.114a.533.533 0 0 1 0 .074v.05h-.817v2.452a.074.074 0 0 1-.05 0h-.539v-2.453h-.817a.107.107 0 0 1 0-.049.164.164 0 0 1 0-.074.497.497 0 0 1 0-.114.534.534 0 0 1 0-.122.245.245 0 0 1 0-.082h2.215v.082l.008.122ZM56.567 42.297v.188h-1.561a.171.171 0 0 1-.188-.196v-2.648a.205.205 0 0 1 .057-.148.171.171 0 0 1 .13 0h1.554a.819.819 0 0 1 0 .074v.229a.377.377 0 0 1 0 .074h-1.08v.735H56.437a.163.163 0 0 1 0 .074c.011.073.011.147 0 .22a.163.163 0 0 1 0 .074h-.956v.817h1.087a.504.504 0 0 1 0 .074v.433Zm-.727-3.621.057-.049h.572a.066.066 0 0 1 0 .057v.057l-.523.466h-.515v-.057l.409-.474ZM59.143 42.087V42.357a.396.396 0 0 1-.099.065.922.922 0 0 1-.18.082l-.244.066c-.101.008-.202.008-.303 0a1.5 1.5 0 0 1-.556-.099 1.03 1.03 0 0 1-.433-.286 1.331 1.331 0 0 1-.27-.474 2.373 2.373 0 0 1-.09-.67c-.003-.233.03-.464.098-.687.067-.185.167-.357.295-.507.123-.133.274-.239.441-.31.183-.067.377-.1.572-.098.082-.008.164-.008.245 0l.213.057a.734.734 0 0 1 .18.082.27.27 0 0 1 .114.073.183.183 0 0 1 0 .05v.367a.532.532 0 0 1 0 .074.074.074 0 0 1 0 .049.123.123 0 0 1-.09 0l-.139-.09-.204-.09a.966.966 0 0 0-.286 0 .678.678 0 0 0-.564.286.973.973 0 0 0-.147.335 1.39 1.39 0 0 0-.057.433c0 .157.019.314.057.466a.963.963 0 0 0 .155.32c.07.082.156.15.254.195.1.04.21.06.318.058a.753.753 0 0 0 .286 0 .963.963 0 0 0 .205-.082l.139-.082a.204.204 0 0 1 .09 0 .166.166 0 0 1 0 .074v.073ZM62.086 42.332c.004.03.004.06 0 .09l-.05.074h-.572a.473.473 0 0 1-.204-.18c0-.05-.065-.115-.106-.188l-.76-1.423-.131-.277-.123-.278v2.313H59.65v-2.73a.203.203 0 0 1 .065-.172.236.236 0 0 1 .155-.049h.483l.106.057a.262.262 0 0 1 .09.098c.034.047.064.096.09.147l.588 1.112c0 .066.074.13.107.196l.098.197.09.196c0 .057.057.122.09.188v-2.109a.074.074 0 0 1 .049 0H62.02a.234.234 0 0 1 .082 0 .081.081 0 0 1 .04 0l-.056 2.738ZM63.368 42.461a.074.074 0 0 1-.05 0h-.49a.074.074 0 0 1-.049 0v-2.869a.074.074 0 0 1 .05 0h.49a.074.074 0 0 1 .049 0v2.87ZM66.13 42.088V42.259a.113.113 0 0 1 0 .05v.048a.394.394 0 0 1-.097.066.737.737 0 0 1-.18.081l-.245.066a1.625 1.625 0 0 1-.294 0 1.51 1.51 0 0 1-.564-.098.958.958 0 0 1-.426-.286 1.13 1.13 0 0 1-.27-.474 2.102 2.102 0 0 1-.098-.67 2.02 2.02 0 0 1 .107-.687c.06-.187.157-.36.286-.507.124-.133.274-.24.441-.31.184-.067.377-.1.573-.099.081-.008.163-.008.245 0l.22.057.18.082c.04.016.077.042.107.074l.049.049a.546.546 0 0 1 0 .057.234.234 0 0 1 0 .073.509.509 0 0 1 0 .115.546.546 0 0 1 0 .123.166.166 0 0 1 0 .073v.05c-.03.01-.061.01-.09 0l-.14-.09a.94.94 0 0 0-.481-.132.711.711 0 0 0-.328.074.762.762 0 0 0-.245.213.973.973 0 0 0-.147.335 1.71 1.71 0 0 0-.049.433c-.002.157.014.313.05.466.03.117.085.226.163.319a.638.638 0 0 0 .245.196c.104.041.215.06.327.057a.71.71 0 0 0 .278 0 .96.96 0 0 0 .204-.082l.147-.081h.082v.073a.661.661 0 0 1-.05.115ZM69.066 42.305V42.51a.155.155 0 0 1-.098 0h-.466a.074.074 0 0 1-.049 0v-.049l-.204-.613h-1.145l-.188.597v.057a.072.072 0 0 1-.049 0H66.442a.188.188 0 0 1-.081 0V42.288l.94-2.689v-.065a.144.144 0 0 1 .057 0H68.085a.323.323 0 0 1 0 .074l.981 2.697Zm-1.398-2.223-.433 1.283h.842l-.409-1.283ZM71.29 41.63a.971.971 0 0 1-.09.417.817.817 0 0 1-.245.302 1.02 1.02 0 0 1-.352.18 1.56 1.56 0 0 1-.441.065 1.645 1.645 0 0 1-.295 0l-.237-.065-.171-.074a.377.377 0 0 1-.099-.073.131.131 0 0 1 0-.09.72.72 0 0 1 0-.163.535.535 0 0 1 0-.123v-.082a.207.207 0 0 1 .09 0l.156.09.229.082c.097.014.196.014.294 0 .068.01.136.01.204 0a.696.696 0 0 0 .156-.082.27.27 0 0 0 .09-.123.337.337 0 0 0 0-.155.262.262 0 0 0-.058-.18.426.426 0 0 0-.139-.13l-.212-.107-.237-.114a1.631 1.631 0 0 1-.237-.123 1.342 1.342 0 0 1-.205-.172.971.971 0 0 1-.147-.237.939.939 0 0 1 .025-.71.816.816 0 0 1 .22-.27.818.818 0 0 1 .327-.164c.127-.04.26-.06.393-.057h.212l.205.04.171.066.09.057V40.044a.04.04 0 0 1 0 .04h-.04a.179.179 0 0 1-.082 0l-.14-.073a.819.819 0 0 0-.187-.065.72.72 0 0 0-.237 0 .543.543 0 0 0-.172 0 .392.392 0 0 0-.13.065.31.31 0 0 0-.074.107.335.335 0 0 0 0 .13.253.253 0 0 0 .057.172c.037.056.087.1.147.13.066.044.138.08.212.107l.238.115a1.304 1.304 0 0 1 .45.294c.06.071.109.151.146.237.059.1.097.212.115.327ZM14.273 1.418h9.319a1.373 1.373 0 0 1-.253.727 3548.881 3548.881 0 0 1-4.676 8.992c-1.782 3.425-3.58 6.842-5.354 10.275a1.348 1.348 0 0 0 .768 2.044 2.64 2.64 0 0 0 3.441-1.308c1.946-3.89 3.908-7.766 5.845-11.665a.817.817 0 0 1 .907-.54c2.584 0 5.167 0 7.75.09a.866.866 0 0 0 .98-.637c1.08-2.665 2.2-5.321 3.27-7.978h22.995c-.074.22-.123.441-.213.646-1.087 2.452-2.182 4.904-3.27 7.422a.948.948 0 0 1-1.013.678h-7.856a.882.882 0 0 0-.907.548 693.386 693.386 0 0 1-3.36 6.54c-2.256 4.42-4.512 8.841-6.768 13.267a.915.915 0 0 1-.94.58h-7.856c-.654 0-.703-.074-.417-.662 1.919-4.038 3.845-8.08 5.78-12.123l3.645-7.667c.213-.442.172-.49-.318-.499h-2.453a.883.883 0 0 0-.907.548c-2.725 5.188-5.45 10.365-8.174 15.531-.818 1.488-1.578 2.967-2.354 4.455a.736.736 0 0 1-.736.442h-1.635l-15.229.057a1.316 1.316 0 0 1-.89-.164 4.088 4.088 0 0 1-1.783-2.975 7.054 7.054 0 0 1 .818-3.687c2.991-5.913 5.989-11.82 8.991-17.722l2.853-5.215ZM84.13 7.633a14.794 14.794 0 0 1-1.904 5.052 15.213 15.213 0 0 1-5.722 5.37 15.057 15.057 0 0 1-7.766 1.93c-1.896 0-3.784 0-5.673-.05a.973.973 0 0 0-1.013.63c-1.635 3.335-3.27 6.662-4.905 9.997a.972.972 0 0 1-1.038.646c-2.632-.106-5.273-.074-7.905-.098-.613 0-.662-.082-.4-.654l5.002-10.717 5.886-12.613c.891-1.904 1.79-3.8 2.69-5.722h13.487c.218.063.445.085.67.066h3.27a5.248 5.248 0 0 1 5.256 4.087l.098.319-.032 1.757ZM70.618 6.464V6.4h-2.86a.736.736 0 0 0-.818.548c-.515 1.275-1.055 2.533-1.586 3.809a256.421 256.421 0 0 0-1.635 4.03c-.155.36-.057.523.327.515.384-.008.818 0 1.17 0a13.896 13.896 0 0 0 8.942-3.327 5.437 5.437 0 0 0 1.488-1.954 2.453 2.453 0 0 0-2.314-3.556h-2.714Z"/><path fill="#009183" d="m43.971 26.824 1.292-2.705c.171-.368.335-.736.515-1.096a.883.883 0 0 1 1.21-.547c.375.098.212.335.122.523-.687 1.446-1.39 2.885-2.182 4.275a29.304 29.304 0 0 1-2.2 3.36 2.126 2.126 0 0 1-1.945.449c-.147-.065-.147-.155-.049-.261a6.35 6.35 0 0 1 .409-.41 4.741 4.741 0 0 0 1.496-4.569c-.16-.94-.38-1.868-.663-2.779-.122-.392 0-.588.401-.58.111.012.224.012.335 0 .384-.066.564.073.613.466.14 1.128.303 2.24.466 3.36a.955.955 0 0 0 .18.514Z"/></svg>